<?xml version="1.0" encoding="UTF-8" standalone="no"?>
<svg
   xmlns:dc="http://purl.org/dc/elements/1.1/"
   xmlns:cc="http://creativecommons.org/ns#"
   xmlns:rdf="http://www.w3.org/1999/02/22-rdf-syntax-ns#"
   xmlns:svg="http://www.w3.org/2000/svg"
   xmlns="http://www.w3.org/2000/svg"
   xmlns:sodipodi="http://sodipodi.sourceforge.net/DTD/sodipodi-0.dtd"
   xmlns:inkscape="http://www.inkscape.org/namespaces/inkscape"
   inkscape:version="1.0beta2 (2b71d25, 2019-12-03)"
   sodipodi:docname="car3_noun.svg"
   id="svg841"
   xml:space="preserve"
   enable-background="new 0 0 100 100"
   viewBox="0 0 100 100"
   y="0px"
   x="0px"
   version="1.1"
   fill="#000000"
   width="100px"
   height="100px"><metadata
     id="metadata847"><rdf:RDF><cc:Work
         rdf:about=""><dc:format>image/svg+xml</dc:format><dc:type
           rdf:resource="http://purl.org/dc/dcmitype/StillImage" /><dc:title></dc:title></cc:Work></rdf:RDF></metadata><defs
     id="defs845" /><sodipodi:namedview
     inkscape:current-layer="svg841"
     inkscape:window-maximized="0"
     inkscape:window-y="23"
     inkscape:window-x="0"
     inkscape:cy="50.223691"
     inkscape:cx="44.76629"
     inkscape:zoom="6.0630347"
     inkscape:pagecheckerboard="true"
     showgrid="false"
     id="namedview843"
     inkscape:window-height="862"
     inkscape:window-width="1536"
     inkscape:pageshadow="2"
     inkscape:pageopacity="0"
     guidetolerance="10"
     gridtolerance="10"
     objecttolerance="10"
     borderopacity="1"
     inkscape:document-rotation="0"
     bordercolor="#666666"
     pagecolor="#ffffff" /><path
     inkscape:export-ydpi="501.24542"
     inkscape:export-xdpi="501.24542"
     inkscape:export-filename="/Users/Jonas/Transidious/Assets/Resources/Sprites/car3.png"
     style="fill:#ffffff;fill-opacity:1"
     sodipodi:nodetypes="csscccsscccccccccccccccccccccccccccccccccccccsscccccccccccccccccccccccccccccccccccccsccccccc"
     inkscape:connector-curvature="0"
     id="path833"
     d="m 61.64265,95.047357 c 0,0 1.447,-1.27 1.447,-2.489 v -76.259 c 0,-5.41 -2.064,-11.5710001 -4.79,-13.6580001 -4.545,-4.052 -15.997,-3.61400002 -16.086,-3.61100002 -0.089,-0.003 -11.541,-0.44099998 -16.086,3.61100002 -2.726,2.087 -4.79,8.2480001 -4.79,13.6580001 v 76.259 c 0,1.219 1.447,2.489 1.447,2.489 v 1.968 h 19.428 0.002 19.428 z M 26.21765,5.9893569 c -0.152,-0.914 2.286,-3.81 7.619,-3.81 l -0.61,1.524 -3.2,0.609 c 0.001,10e-4 -3.657,2.592 -3.809,1.677 z m 28.182,-1.676 -3.2,-0.609 -0.609,-1.524 c 5.334,0 7.772,2.895 7.619,3.81 -0.152,0.914 -3.81,-1.677 -3.81,-1.677 z m -19.047,62.9000001 h 6.24 v 15.339 h -6.24 z m 7.483,0 h 6.24 v 15.339 h -6.24 z m 7.483,0 h 5.659 l -0.051,14.221 -5.608,1.02 z m 9.507,-33.217 -0.508,4.266 v 15.44 l 0.914,2.844 v 12.19 l -1.524,3.555 c 0,0 -1.625,-7.517 -1.625,-9.853 0,-2.336 -0.508,-16.964 0.508,-22.145 1.016,-5.181 1.422,-6.704 1.422,-6.704 z m -24.908,-11.466 v -1.497 h 14.592 v 1.497 z m -1.795,2.324 h 1.519 l -0.533,10.227 h 1.244 l 0.533,-10.227 h 5.707 v 10.227 h 1.244 v -10.227 h 5.707 l 0.533,10.227 h 1.244 l -0.533,-10.227 h 1.519 l 7.314,3.555 -2.133,9.142 -0.914,1.117 h -13.206 -0.305 -13.205 l -0.914,-1.117 -2.133,-9.142 z m -8.927,43.883 v -12.19 l 0.914,-2.844 v -15.44 l -0.508,-4.266 0.813,-0.406 c 0,0 0.406,1.524 1.422,6.704 1.016,5.181 0.508,19.808 0.508,22.145 0,2.336 -1.625,9.853 -1.625,9.853 z m 4.254,-1.524 h 5.659 v 15.241 l -5.608,-1.02 z" /></svg>
