<?xml version="1.0" encoding="UTF-8" standalone="no"?>
<svg
   xmlns:dc="http://purl.org/dc/elements/1.1/"
   xmlns:cc="http://creativecommons.org/ns#"
   xmlns:rdf="http://www.w3.org/1999/02/22-rdf-syntax-ns#"
   xmlns:svg="http://www.w3.org/2000/svg"
   xmlns="http://www.w3.org/2000/svg"
   xmlns:sodipodi="http://sodipodi.sourceforge.net/DTD/sodipodi-0.dtd"
   xmlns:inkscape="http://www.inkscape.org/namespaces/inkscape"
   inkscape:version="1.0beta2 (2b71d25, 2019-12-03)"
   sodipodi:docname="car4_noun.svg"
   id="svg839"
   xml:space="preserve"
   enable-background="new 0 0 100 100"
   viewBox="0 0 100 125"
   y="0px"
   x="0px"
   version="1.0"><metadata
     id="metadata845"><rdf:RDF><cc:Work
         rdf:about=""><dc:format>image/svg+xml</dc:format><dc:type
           rdf:resource="http://purl.org/dc/dcmitype/StillImage" /><dc:title></dc:title></cc:Work></rdf:RDF></metadata><defs
     id="defs843" /><sodipodi:namedview
     inkscape:current-layer="svg839"
     inkscape:window-maximized="0"
     inkscape:window-y="23"
     inkscape:window-x="0"
     inkscape:cy="46.153962"
     inkscape:cx="60.305344"
     inkscape:zoom="5.24"
     inkscape:pagecheckerboard="true"
     showgrid="false"
     id="namedview841"
     inkscape:window-height="862"
     inkscape:window-width="1536"
     inkscape:pageshadow="2"
     inkscape:pageopacity="0"
     guidetolerance="10"
     gridtolerance="10"
     objecttolerance="10"
     borderopacity="1"
     inkscape:document-rotation="0"
     bordercolor="#666666"
     pagecolor="#ffffff" /><path
     inkscape:export-ydpi="545.11407"
     inkscape:export-xdpi="545.11407"
     inkscape:export-filename="/Users/Jonas/Transidious/Assets/Resources/Sprites/car4.png"
     style="fill:#ffffff;fill-opacity:1"
     id="path833"
     d="M72.3611069,33.3855057c-0.9116669-0.3156357-1.8327026-0.325119-2.5852051-0.0854225  c-0.0011368-0.1440773-0.0017776-0.2215805-0.0017776-0.2215805s1.1054993-7.2419872,0.8113861-11.2078381  C70.29142,17.9048271,72.1881256,3.7657075,50.117321,4.4554219h-0.0013657  c-22.070837-0.6897144-20.1741142,13.4494057-20.4682102,17.4152431c-0.2940941,3.9658508,0.811388,11.2078381,0.811388,11.2078381  s-0.0009079,0.1089516-0.0024529,0.3077164c-0.7906055-0.3229408-1.8093758-0.3498421-2.8177872-0.0007133  c-1.8250389,0.6318321-2.9213123,2.250927-2.448555,3.6163445c0.4726963,1.3654022,2.3353653,1.9600868,4.1604042,1.3282547  c0.3968029-0.1373825,0.7564907-0.3235283,1.0757313-0.5414848c-0.0398102,6.5864639-0.0879822,18.3027382,0.0326595,23.3094788  c0.1724529,7.155777-0.344841,13.1907578-0.6897144,17.1566086c-0.3448715,3.9658508-0.1724205,11.7251205,3.4485722,13.9666977  c3.6209946,2.2415695,16.8979645,2.4139862,16.8979645,2.4139862h0.0013657c0,0,13.2769661-0.1724167,16.8979607-2.4139862  c3.6209946-2.2415771,3.7934189-10.0008469,3.4485626-13.9666977c-0.3448639-3.9658508-0.8621368-10.0008316-0.6897202-17.1566086  c0.119751-4.969265,0.0731812-16.5473976,0.0335388-23.1601448c0.2587128,0.1533966,0.5389862,0.287384,0.8415985,0.3921509  c1.8250046,0.6318321,3.6876907,0.0371475,4.1604156-1.3282547C75.2823868,35.6364326,74.1861343,34.0173378,72.3611069,33.3855057z   M65.0541458,8.8647184c1.4896698,0.8600597,2.2187347,2.3861275,1.6284409,3.4085655  c-0.5903091,1.022438-2.2764511,1.1540794-3.7661133,0.2940187c-1.489666-0.8600607-2.2187386-2.3861284-1.6284447-3.4085655  C61.8783417,8.1362991,63.5644836,8.004673,65.0541458,8.8647184z M50.1159554,5.4680285h0.0013657  c7.2878265,0,11.6554642,1.4881659,11.6554642,1.4881659s-1.2770844,0.7112408-4.1117477,0.2145948  c-2.3973541-0.4200249-6.3742485-0.4340672-7.5444145-0.4284019c-1.170166-0.0056653-5.1470337,0.0083771-7.544384,0.4284019  c-2.8346634,0.4966459-4.1117477-0.2145948-4.1117477-0.2145948S42.8281288,5.4680285,50.1159554,5.4680285z M35.1791267,8.8647184  c1.4896507-0.8600454,3.175808-0.7284193,3.7661171,0.2940187s-0.1387901,2.5485048-1.6284409,3.4085655  c-1.4896812,0.8600607-3.1758385,0.7284193-3.7661171-0.2940187C32.9603767,11.2508459,33.6894455,9.7247782,35.1791267,8.8647184z   M34.4249687,79.806572c-0.088768-2.2191772-0.4770279-7.1106949-0.8434105-14.8288345h3.0294113  c0.1463356,5.6515121,0.4466095,11.1596527,0.9807205,14.3818436C36.2715836,80.9284897,34.5312538,82.4631653,34.4249687,79.806572  z M36.6665344,46.5279083c-0.148819,2.4556007-0.2332268,8.9255714-0.1150055,15.6953049l-3.1278801-0.8056641  c-0.2812767-6.8078461-0.5189896-15.4224167-0.550499-25.925045l4.7501678,7.8148499  C37.0806961,44.2485771,36.7399139,45.3173561,36.6665344,46.5279083z M61.1527214,87.9106979  c-0.1724358,1.379425-11.0354004,1.8967056-11.0354004,1.8967056h-0.0013657c0,0-10.8629837-0.5172806-11.0354042-1.8967056  c-0.1223412-0.9788132,1.2305183-3.1718521,2.0270615-4.3638229c3.5887604,1.0876083,9.0083427,1.0876846,9.0083427,1.0876846  h0.0013657c0,0,5.4195824-0.0000763,9.0083427-1.0876694C59.9221878,84.7388611,61.2750626,86.9318848,61.1527214,87.9106979z   M51.3242989,37.5616493H48.908947c-3.9152718,0.474575-8.0752487,1.8473244-10.4019508,4.5111389  c-1.0816383-1.5805092-3.349865-5.3337975-3.478508-9.1838989c0,0,5.1806946-5.3921661,15.0874672-5.0653648h0.0013657  c9.9067574-0.3268013,15.0874672,5.0653648,15.0874672,5.0653648c-0.1286316,3.8501167-2.3969002,7.603405-3.4785233,9.1838989  C59.3995781,39.4089584,55.2395973,38.0362244,51.3242989,37.5616493z M65.8082733,79.806572  c-0.1062698,2.6565933-1.8465958,1.121933-3.166687-0.446991c0.5340919-3.2221909,0.8343697-8.7303314,0.9806862-14.3818436  h3.0294151C66.2853165,72.6958771,65.8970413,77.5873947,65.8082733,79.806572z M66.8096085,61.4175491l-3.1278763,0.8056641  c0.118206-6.7697334,0.0337982-13.2397041-0.1150246-15.6953049c-0.0733643-1.2105522-0.4141464-2.2793312-0.956768-3.2205544  l4.7501984-7.8148499C67.328598,45.9951324,67.0909042,54.6097031,66.8096085,61.4175491z" /></svg>
