<?xml version="1.0" encoding="UTF-8" standalone="no"?>
<svg
   xmlns:dc="http://purl.org/dc/elements/1.1/"
   xmlns:cc="http://creativecommons.org/ns#"
   xmlns:rdf="http://www.w3.org/1999/02/22-rdf-syntax-ns#"
   xmlns:svg="http://www.w3.org/2000/svg"
   xmlns="http://www.w3.org/2000/svg"
   xmlns:sodipodi="http://sodipodi.sourceforge.net/DTD/sodipodi-0.dtd"
   xmlns:inkscape="http://www.inkscape.org/namespaces/inkscape"
   inkscape:version="1.0beta2 (2b71d25, 2019-12-03)"
   sodipodi:docname="car5_noun.svg"
   id="svg901"
   xml:space="preserve"
   enable-background="new 0 0 100 100"
   viewBox="0 0 100 125"
   y="0px"
   x="0px"
   version="1.0"><metadata
     id="metadata907"><rdf:RDF><cc:Work
         rdf:about=""><dc:format>image/svg+xml</dc:format><dc:type
           rdf:resource="http://purl.org/dc/dcmitype/StillImage" /><dc:title></dc:title></cc:Work></rdf:RDF></metadata><defs
     id="defs905" /><sodipodi:namedview
     inkscape:current-layer="svg901"
     inkscape:window-maximized="0"
     inkscape:window-y="23"
     inkscape:window-x="0"
     inkscape:cy="53.972718"
     inkscape:cx="41.209296"
     inkscape:zoom="4.8657672"
     inkscape:pagecheckerboard="true"
     showgrid="false"
     id="namedview903"
     inkscape:window-height="862"
     inkscape:window-width="1536"
     inkscape:pageshadow="2"
     inkscape:pageopacity="0"
     guidetolerance="10"
     gridtolerance="10"
     objecttolerance="10"
     borderopacity="1"
     inkscape:document-rotation="0"
     bordercolor="#666666"
     pagecolor="#ffffff" /><path
     inkscape:export-ydpi="535.03674"
     inkscape:export-xdpi="535.03674"
     inkscape:export-filename="/Users/Jonas/Transidious/Assets/Resources/Sprites/car5.png"
     style="fill:#ffffff;fill-opacity:1"
     id="path895"
     d="M73.9266281,35.1739159c0,0-1.3151321-1.2665329-3.5658951-1.8577919  c-0.4713287-0.123806-0.9621353-0.0851593-1.2747574,0.2233543c-0.0201416-5.7789536-0.1166077-10.9497585-0.3496094-14.0174274  C67.9401321,9.0384502,64.8879318,5.986279,64.8879318,5.986279c-15.3585358-3.4992917-29.7256012,0-29.7256012,0  s-3.0522003,3.0521712-3.8484039,13.5357723c-0.2336369,3.0761375-0.3300743,8.2668839-0.3498211,14.0651455  c-0.3084526-0.3555794-0.8287106-0.4013939-1.3248348-0.2710724c-2.2507687,0.591259-3.565897,1.8577919-3.565897,1.8577919  c-0.4486465,0.4431725-0.7310944,0.9272804-0.4574165,1.4525261l0.3651237,0.700882  c0.2736759,0.5252495,0.5149345,0.6331749,1.4525394,0.4574623l3.5271587-0.8332443  c0.0160885,13.2521019,0.3531475,28.0878944,0.3531475,28.0878944s-0.1327248,20.6852264,1.4597092,25.7362518  c1.5924606,5.0510178,11.5943794,5.4491196,17.2514954,5.4491196s15.6590271-0.3981018,17.2514954-5.4491196  c1.5924301-5.0510254,1.4597397-25.7362518,1.4597397-25.7362518s0.3368454-14.826931,0.3531113-28.0760269l3.4768982,0.8213768  c0.9376068,0.1757126,1.1788712,0.0677872,1.4525452-0.4574623l0.3651199-0.700882  C74.6577225,36.1011963,74.3752747,35.6170883,73.9266281,35.1739159z M50.0251312,28.0425472  c0,0,9.952774-0.2928638,16.0571442,4.8825817l-3.8484001,9.5546722c0,0-4.246521-1.3270416-12.208744-1.3270416  s-12.2087479,1.3270416-12.2087479,1.3270416l-3.8484001-9.5546722  C40.0723534,27.7496834,50.0251312,28.0425472,50.0251312,28.0425472z M32.6409378,36.1873817l4.1138268,9.211895  l0.4201279,13.9242592l-4.7675591-1.4488525C32.2550697,45.1454697,32.6409378,36.1873817,32.6409378,36.1873817z   M33.3044777,81.4947052c-0.4606247-6.8707581-0.7099876-13.5559616-0.8322182-19.5901756h4.7805023l0.4309273,14.2820168  L33.3044777,81.4947052z M50.0251312,94.7650681c-12.7723999,0-14.6657257-3.0516891-14.6657257-3.0516891l2.9877892-8.2281265  c0,0,4.51194,1.4597397,11.6779366,1.4597397s11.6779327-1.4597397,11.6779327-1.4597397l2.9877853,8.2281265  C64.6908493,91.7133789,62.3666,94.7650681,50.0251312,94.7650681z M66.7457809,81.4947052L62.3666,76.1865463l0.4309273-14.2820168  h4.7804756C67.4557724,67.9387436,67.2064056,74.6239471,66.7457809,81.4947052z M67.6429291,57.8746834l-4.7675629,1.4488525  l0.4201622-13.9242592l4.1137886-9.211895C67.409317,36.1873817,67.7951889,45.1454697,67.6429291,57.8746834z" /></svg>
