<?xml version="1.0" encoding="UTF-8" standalone="no"?>
<!-- Created with Inkscape (http://www.inkscape.org/) -->

<svg
   xmlns:dc="http://purl.org/dc/elements/1.1/"
   xmlns:cc="http://creativecommons.org/ns#"
   xmlns:rdf="http://www.w3.org/1999/02/22-rdf-syntax-ns#"
   xmlns:svg="http://www.w3.org/2000/svg"
   xmlns="http://www.w3.org/2000/svg"
   xmlns:sodipodi="http://sodipodi.sourceforge.net/DTD/sodipodi-0.dtd"
   xmlns:inkscape="http://www.inkscape.org/namespaces/inkscape"
   width="210mm"
   height="297mm"
   viewBox="0 0 210 297"
   version="1.1"
   id="svg920"
   inkscape:version="0.92.4 (5da689c313, 2019-01-14)"
   sodipodi:docname="car5.svg">
  <defs
     id="defs914" />
  <sodipodi:namedview
     id="base"
     pagecolor="#cdcdcd"
     bordercolor="#666666"
     borderopacity="1.0"
     inkscape:pageopacity="0"
     inkscape:pageshadow="2"
     inkscape:zoom="0.98994949"
     inkscape:cx="403.0653"
     inkscape:cy="736.6244"
     inkscape:document-units="mm"
     inkscape:current-layer="layer1"
     showgrid="false"
     inkscape:window-width="1280"
     inkscape:window-height="707"
     inkscape:window-x="0"
     inkscape:window-y="1"
     inkscape:window-maximized="1"
     inkscape:snap-global="false" />
  <metadata
     id="metadata917">
    <rdf:RDF>
      <cc:Work
         rdf:about="">
        <dc:format>image/svg+xml</dc:format>
        <dc:type
           rdf:resource="http://purl.org/dc/dcmitype/StillImage" />
        <dc:title></dc:title>
      </cc:Work>
    </rdf:RDF>
  </metadata>
  <g
     inkscape:label="Ebene 1"
     inkscape:groupmode="layer"
     id="layer1">
    <path
       style="opacity:1;fill:#ffffff;fill-opacity:1;stroke:#1a1a1a;stroke-width:5.17795277;stroke-linecap:butt;stroke-linejoin:miter;stroke-miterlimit:4;stroke-dasharray:none;stroke-dashoffset:0;stroke-opacity:1"
       d="M 383.93555 219.44336 C 379.69575 219.44336 376.28125 222.85591 376.28125 227.0957 L 376.28125 276.43945 C 376.28125 280.67925 379.69575 284.09375 383.93555 284.09375 L 384.63477 284.09375 C 384.14064 285.18219 383.85742 286.38873 383.85742 287.66602 L 383.85742 289.61133 C 383.85742 290.14252 383.91282 290.6599 384.00391 291.16406 L 376.14453 291.16406 C 372.5831 291.16406 369.71484 294.03037 369.71484 297.5918 L 369.71484 312.37695 L 366.04297 312.37695 C 362.48154 312.37695 359.61523 315.24521 359.61523 318.80664 L 359.61523 363.52734 C 359.61523 367.08877 362.48154 369.95508 366.04297 369.95508 L 369.71484 369.95508 L 369.71484 487.13281 L 366.04297 487.13281 C 362.48154 487.13281 359.61523 490.00107 359.61523 493.5625 L 359.61523 538.2832 C 359.61523 541.84463 362.48154 544.71289 366.04297 544.71289 L 369.71484 544.71289 L 369.71484 565.55859 C 369.71484 569.12002 372.5831 571.98633 376.14453 571.98633 L 502.6875 571.98633 C 506.24893 571.98633 509.11719 569.12002 509.11719 565.55859 L 509.11719 544.71289 L 511.7793 544.71289 C 515.34072 544.71289 518.20898 541.84463 518.20898 538.2832 L 518.20898 493.5625 C 518.20898 490.00107 515.34072 487.13281 511.7793 487.13281 L 509.11719 487.13281 L 509.11719 369.95508 L 511.7793 369.95508 C 515.34072 369.95508 518.20898 367.08877 518.20898 363.52734 L 518.20898 318.80664 C 518.20898 315.24521 515.34072 312.37695 511.7793 312.37695 L 509.11719 312.37695 L 509.11719 297.5918 C 509.11719 294.03037 506.24893 291.16406 502.6875 291.16406 L 494.83008 291.16406 C 494.92116 290.65992 494.97461 290.1425 494.97461 289.61133 L 494.97461 287.66602 C 494.97461 286.38895 494.69319 285.18205 494.19922 284.09375 L 494.89844 284.09375 C 499.13823 284.09375 502.55078 280.67925 502.55078 276.43945 L 502.55078 227.0957 C 502.55078 222.85591 499.13823 219.44336 494.89844 219.44336 L 383.93555 219.44336 z "
       transform="scale(0.26458333)"
       id="rect2575" />
  </g>
</svg>
