<?xml version="1.0" encoding="UTF-8" standalone="no"?>
<svg
   xmlns:dc="http://purl.org/dc/elements/1.1/"
   xmlns:cc="http://creativecommons.org/ns#"
   xmlns:rdf="http://www.w3.org/1999/02/22-rdf-syntax-ns#"
   xmlns:svg="http://www.w3.org/2000/svg"
   xmlns="http://www.w3.org/2000/svg"
   xmlns:sodipodi="http://sodipodi.sourceforge.net/DTD/sodipodi-0.dtd"
   xmlns:inkscape="http://www.inkscape.org/namespaces/inkscape"
   inkscape:version="1.0beta2 (2b71d25, 2019-12-03)"
   sodipodi:docname="car6.svg"
   id="svg839"
   xml:space="preserve"
   enable-background="new 0 0 100 100"
   viewBox="0 0 100 125"
   y="0px"
   x="0px"
   version="1.0"><metadata
     id="metadata845"><rdf:RDF><cc:Work
         rdf:about=""><dc:format>image/svg+xml</dc:format><dc:type
           rdf:resource="http://purl.org/dc/dcmitype/StillImage" /><dc:title></dc:title></cc:Work></rdf:RDF></metadata><defs
     id="defs843" /><sodipodi:namedview
     inkscape:current-layer="svg839"
     inkscape:window-maximized="0"
     inkscape:window-y="23"
     inkscape:window-x="0"
     inkscape:cy="57.347328"
     inkscape:cx="50.381679"
     inkscape:zoom="5.24"
     inkscape:pagecheckerboard="true"
     showgrid="false"
     id="namedview841"
     inkscape:window-height="862"
     inkscape:window-width="1536"
     inkscape:pageshadow="2"
     inkscape:pageopacity="0"
     guidetolerance="10"
     gridtolerance="10"
     objecttolerance="10"
     borderopacity="1"
     inkscape:document-rotation="0"
     bordercolor="#666666"
     pagecolor="#ffffff" /><path
     style="fill:#ffffff;fill-opacity:1"
     id="path833"
     d="M70.7108688,27.7987976l-3.1646652-0.7538033c-0.0769119-0.0183182-0.1537781-0.028307-0.2302933-0.0339947  C67.1777496,16.6937943,66.4170914,9.4078579,64.71698,7.0538764c-1.8942719-2.622838-14.7169876-2.622838-14.7169876-2.622838  s-12.8227043,0-14.7169762,2.622838c-1.7001076,2.3539815-2.4607658,9.6399174-2.5989304,19.9571228  c-0.0765152,0.0056877-0.1533852,0.0156765-0.2302933,0.0339947l-3.1646652,0.7538033  c-0.7847023,0.1869106-1.2738018,0.9818707-1.0869007,1.766573l0.2069855,0.8689671l4.2537174-1.0132122  c-0.0017052,0.4088993-0.002739,0.8210926-0.002739,1.2382107c0,12.2398682,0,57.5565147,0,57.5565147  s-2.3314133,7.5770645,17.3398018,7.5770645s17.3398132-7.5770645,17.3398132-7.5770645s0-45.3166466,0-57.5565147  c0-0.4171181-0.00103-0.8293114-0.002739-1.2382107l4.2537155,1.0132122l0.2069855-0.8689671  C71.9846802,28.7806683,71.4955673,27.9857082,70.7108688,27.7987976z M58.9924622,6.5213971  c0,0,5.0828094,0.066391,5.8933945,4.513557c0.810585,4.4472151-2.1763344,0.5310297-2.1763344,0.5310297  S56.3374214,6.3222733,58.9924622,6.5213971z M64.8858566,23.4099007l-3.6056824,12.7057343  c0,0-3.8451385-1.5452843-11.2801819-1.5452843c-7.4350319,0-11.2801704,1.5452843-11.2801704,1.5452843l-3.6056824-12.7057343  c5.1509819-3.7773838,14.8858528-3.8632355,14.8858528-3.8632355S59.7348747,19.6325169,64.8858566,23.4099007z   M58.3452721,43.7197304v8.0964355c0,0.7201424-0.5892029,1.3093529-1.3093452,1.3093529H42.9640656  c-0.7201385,0-1.3093414-0.5892105-1.3093414-1.3093529v-8.0964355c0-0.7201538,0.5892029-1.3093567,1.3093414-1.3093567h14.0718613  C57.7560692,42.4103737,58.3452721,42.9995766,58.3452721,43.7197304z M35.1141396,11.0349541  c0.8105888-4.447166,5.8933945-4.513557,5.8933945-4.513557c2.6550407-0.1991239-3.7170601,5.0445867-3.7170601,5.0445867  S34.3035545,15.4821692,35.1141396,11.0349541z M34.4273415,29.5910721  c3.0905876,7.5547562,3.8632355,12.2764893,3.8632355,12.2764893s0.0123978,4.4029274,0.0230598,10.2232094h-3.8186264  L34.4273415,29.5910721z M34.5007744,54.007534l3.8152351-0.575882c0.0076141,4.4400635,0.0136986,9.5286942,0.0125809,14.0704231  l-3.7818565,1.7838974L34.5007744,54.007534z M34.5990448,86.6810608l-0.0442772-14.7227859l3.7728882-2.5627289  c-0.00317,4.2182465-0.0137978,7.7666931-0.0370789,9.5590439C38.2047272,85.5650177,34.5990448,86.6810608,34.5990448,86.6810608z   M49.9999924,93.2736588c0,0-7.6286392,0.4139023-13.6219521-2.0694962c0,0,1.2780762-4.5968094,6.1790314-4.5231018  c4.900959,0.0737,7.4429207,0,7.4429207,0s2.5419731,0.0737,7.4429321,0  c4.9009552-0.0737076,6.1790314,4.5231018,6.1790314,4.5231018C57.628643,93.687561,49.9999924,93.2736588,49.9999924,93.2736588z   M65.4009476,86.6810608c0,0-3.6056786-1.1160431-3.6915283-7.7264709  c-0.0232811-1.7923508-0.0339088-5.3407974-0.0370789-9.5590439l3.7728882,2.5627289L65.4009476,86.6810608z M65.4532623,69.2859726  l-3.7818565-1.7838974c-0.0011177-4.541729,0.0049667-9.6303596,0.0125809-14.0704231l3.8152351,0.575882L65.4532623,69.2859726z   M65.504982,52.0907707h-3.8186226c0.0106621-5.820282,0.0230598-10.2232094,0.0230598-10.2232094  s0.7726479-4.7217331,3.8632355-12.2764893L65.504982,52.0907707z" /></svg>
