<?xml version="1.0" encoding="UTF-8" standalone="no"?>
<svg
   xmlns:dc="http://purl.org/dc/elements/1.1/"
   xmlns:cc="http://creativecommons.org/ns#"
   xmlns:rdf="http://www.w3.org/1999/02/22-rdf-syntax-ns#"
   xmlns:svg="http://www.w3.org/2000/svg"
   xmlns="http://www.w3.org/2000/svg"
   xmlns:sodipodi="http://sodipodi.sourceforge.net/DTD/sodipodi-0.dtd"
   xmlns:inkscape="http://www.inkscape.org/namespaces/inkscape"
   inkscape:version="1.0beta2 (2b71d25, 2019-12-03)"
   sodipodi:docname="noun_Ferry_894444.svg"
   id="svg5044"
   xml:space="preserve"
   enable-background="new 0 0 100 100"
   viewBox="0 0 100 100"
   y="0px"
   x="0px"
   version="1.1"
   fill="#FFFFFF"
   width="100px"
   height="100px"><metadata
     id="metadata5050"><rdf:RDF><cc:Work
         rdf:about=""><dc:format>image/svg+xml</dc:format><dc:type
           rdf:resource="http://purl.org/dc/dcmitype/StillImage" /><dc:title></dc:title></cc:Work></rdf:RDF></metadata><defs
     id="defs5048" /><sodipodi:namedview
     inkscape:current-layer="svg5044"
     inkscape:window-maximized="0"
     inkscape:window-y="23"
     inkscape:window-x="0"
     inkscape:cy="50"
     inkscape:cx="4.2279412"
     inkscape:zoom="2.72"
     inkscape:pagecheckerboard="true"
     showgrid="false"
     id="namedview5046"
     inkscape:window-height="862"
     inkscape:window-width="1536"
     inkscape:pageshadow="2"
     inkscape:pageopacity="0"
     guidetolerance="10"
     gridtolerance="10"
     objecttolerance="10"
     borderopacity="1"
     inkscape:document-rotation="0"
     bordercolor="#666666"
     pagecolor="#ffffff" /><g
     inkscape:export-ydpi="356.40793"
     inkscape:export-xdpi="356.40793"
     inkscape:export-filename="/Users/Jonas/Transidious/Assets/Resources/Sprites/ui_ferry.png"
     id="g5042"><g
       id="g5040"><path
         id="path5036"
         d="M84.252,77.193c-0.429-1.354-2.103-1.473-3.325-1.559c-0.399-0.028-0.777-0.055-1.041-0.116    c-1.742-0.4-3.784-0.93-5.726-1.819c-1.621-0.744-3.003-1.673-4.106-2.764c-0.589-0.583-1.084-1.258-1.608-1.974    c-0.433-0.592-0.881-1.204-1.389-1.758c-0.245-0.268-0.551-0.602-0.968-0.815c-0.512-0.263-1.08-0.273-1.519-0.028    c-0.206,0.116-0.345,0.273-0.511,0.46c-0.859,0.946-1.535,1.951-2.189,2.922c-0.481,0.715-0.979,1.455-1.515,2.127    c-0.933,0.965-1.696,1.514-2.638,1.893c-0.966,0.389-1.911,0.512-2.912,0.642c-0.361,0.047-0.729,0.095-1.105,0.156    c-1.234,0.198-2.238,0.258-3.16,0.183L50,74.7l-0.54,0.043c-0.926,0.076-2.015,0.013-3.234-0.183    c-0.382-0.062-0.757-0.11-1.127-0.158c-1.012-0.13-1.967-0.253-2.927-0.64c-0.949-0.382-1.744-0.948-2.626-1.857    c-0.564-0.706-1.062-1.443-1.544-2.156c-0.658-0.974-1.339-1.981-2.25-2.985c-0.115-0.128-0.258-0.288-0.466-0.404    c-0.439-0.246-1.008-0.235-1.52,0.028c-0.388,0.198-0.669,0.486-0.971,0.815c-0.507,0.554-0.955,1.166-1.388,1.757    c-0.524,0.716-1.02,1.392-1.609,1.975c-1.102,1.089-2.483,2.02-4.106,2.764c-1.941,0.889-3.983,1.419-5.726,1.819    c-0.264,0.061-0.642,0.087-1.041,0.116c-1.223,0.086-2.897,0.205-3.325,1.559c-0.133,0.419-0.109,0.847-0.079,1.133    c0.069,0.671,0.252,1.301,0.429,1.91l0.617,2.134c0.41,1.414,1.582,1.837,2.917,1.837c1.238,0,2.617-0.364,3.658-0.639    c0.228-0.06,0.439-0.116,0.632-0.164c2.662-0.657,5.232-2.055,8.089-4.401c0.397-0.326,0.869-0.58,1.368-0.848    c0.135-0.072,0.27-0.145,0.402-0.219c0.021,0.019,0.043,0.038,0.064,0.057c0.166,0.147,0.354,0.313,0.604,0.456    c0.414,0.236,0.819,0.488,1.224,0.741c0.462,0.288,0.923,0.575,1.398,0.84c0.542,0.302,1.062,0.535,1.565,0.76    c0.535,0.239,1.04,0.464,1.552,0.762c0.26,0.15,0.495,0.303,0.723,0.45c0.692,0.447,1.345,0.87,2.35,1.072    c0.973,0.195,1.781,0.324,2.715,0.473l0.383,0.061c1.062,0.17,2.135,0.155,3.37-0.051L50,83.489l0.418,0.069    c0.878,0.146,1.957,0.265,3.296,0.051c1.104-0.177,1.921-0.313,3.024-0.534c1.005-0.203,1.658-0.625,2.351-1.073    c0.228-0.147,0.462-0.299,0.721-0.449c0.511-0.297,1.016-0.522,1.55-0.761c0.505-0.225,1.025-0.458,1.567-0.76    c0.477-0.266,0.939-0.554,1.402-0.842c0.404-0.252,0.808-0.503,1.222-0.739c0.25-0.142,0.438-0.309,0.604-0.456    c0.021-0.019,0.043-0.038,0.064-0.057c0.133,0.074,0.268,0.146,0.402,0.219c0.499,0.269,0.971,0.522,1.368,0.848    c2.856,2.346,5.427,3.744,8.088,4.401c0.193,0.048,0.405,0.104,0.633,0.164c1.041,0.275,2.42,0.639,3.658,0.639    c1.335,0,2.507-0.423,2.917-1.837l0.617-2.134c0.177-0.609,0.359-1.239,0.429-1.91C84.361,78.04,84.385,77.612,84.252,77.193z" /><path
         id="path5038"
         d="M24.338,67.419c0.213,0.442,0.453,0.893,0.844,1.19c0.559,0.424,1.345,0.452,2.01,0.229    c0.665-0.223,1.234-0.664,1.764-1.123c1.996-1.729,3.459-3.7,4.873-5.889c0.4-0.619,0.849-2.385,1.832-2.172    c0.661,0.143,1.542,2.248,1.987,2.807c1.617,2.032,3.691,3.653,5.791,5.155c0.902,0.645,1.836,1.285,2.9,1.597    c1.895,0.555,3.822,0.065,5.742,0.055c1.686-0.009,2.647-0.67,4.02-1.652c2.1-1.502,4.174-3.123,5.791-5.155    c0.446-0.56,1.327-2.664,1.987-2.807c0.982-0.213,1.432,1.553,1.832,2.172c1.415,2.189,2.877,4.16,4.873,5.889    c0.53,0.459,1.099,0.9,1.764,1.123c0.665,0.223,1.451,0.195,2.01-0.229c0.391-0.297,0.631-0.747,0.844-1.19    c1.726-3.584,2.379-7.575,4.181-11.159c0.665-1.322,1.651-3.385,1.615-5.2c-0.021-1.076-0.401-2.065-1.421-2.76    c-2.232-1.523-4.515-2.991-6.705-4.574c-1.762-1.274-1.335-3.369-1.327-5.388c0.011-2.933-0.016-5.875-0.385-8.789    c-0.291-2.296-0.219-4.856-2.768-6.014c-0.551-0.25-1.155-0.349-1.744-0.488c-0.833-0.196-1.648-0.482-2.493-0.623    c-0.571-0.095-1.37,0.022-1.904-0.219c-1.036-0.467-0.927-1.796-0.904-2.795c0.025-1.101-0.012-2.362-0.858-3.067    c-0.691-0.577-1.667-0.572-2.566-0.537c-5.371,0.205-10.887,0.206-16.277,0c-0.899-0.034-1.89-0.039-2.581,0.537    c-0.846,0.706-0.889,1.966-0.865,3.067c0.022,0.999,0.128,2.328-0.908,2.795c-0.534,0.241-1.334,0.124-1.906,0.219    c-0.845,0.14-1.662,0.426-2.494,0.623c-0.589,0.139-1.193,0.238-1.744,0.488c-2.55,1.158-2.478,3.718-2.769,6.014    c-0.369,2.914-0.396,5.856-0.385,8.789c0.008,2.019,0.435,4.114-1.327,5.388c-2.19,1.583-4.473,3.051-6.705,4.574    c-1.02,0.696-1.4,1.684-1.421,2.76c-0.036,1.815,0.951,3.878,1.615,5.2C21.959,59.844,22.612,63.835,24.338,67.419z M32.63,37.212    c0.076-0.481,0.056-0.977,0.037-1.416c-0.007-0.16-0.013-0.317-0.015-0.447c0.025-0.809,0.075-1.578,0.145-2.284    c0.077-0.761,0.115-1.521,0.153-2.282c0.036-0.722,0.071-1.444,0.142-2.166c0.111-0.363,0.214-0.954,0.267-1.289    c0.202-1.281,10.383-0.559,11.648-0.559c1.663,0,3.329-0.026,4.993-0.052c1,0.026,3.101,0.052,4.764,0.052    c1.266,0,11.217-0.722,11.419,0.559c0.053,0.335,0.155,0.926,0.267,1.289c0.07,0.722,0.106,1.444,0.142,2.166    c0.038,0.761,0.077,1.521,0.154,2.282c0.069,0.706,0.121,1.475,0.146,2.284c-0.002,0.13-0.004,0.287-0.011,0.447    c-0.019,0.438-0.032,0.935,0.044,1.416c0.112,0.706,0.403,3.637-0.239,4.088c-0.666,0.467-3.264-1.301-3.896-1.606    c-3.157-1.523-6.257-3.045-9.415-4.568c-0.85-0.41-1.602-0.825-2.536-0.956C50.488,34.121,50,34.124,50,34.149    c-0.36-0.025-0.717-0.028-1.069,0.021c-0.934,0.131-1.801,0.546-2.651,0.956c-3.157,1.523-6.315,3.045-9.472,4.568    c-0.632,0.305-3.259,2.073-3.925,1.606C32.241,40.849,32.518,37.917,32.63,37.212z" /></g></g></svg>
