<?xml version="1.0" encoding="UTF-8" standalone="no"?>
<svg
   xmlns:dc="http://purl.org/dc/elements/1.1/"
   xmlns:cc="http://creativecommons.org/ns#"
   xmlns:rdf="http://www.w3.org/1999/02/22-rdf-syntax-ns#"
   xmlns:svg="http://www.w3.org/2000/svg"
   xmlns="http://www.w3.org/2000/svg"
   xmlns:sodipodi="http://sodipodi.sourceforge.net/DTD/sodipodi-0.dtd"
   xmlns:inkscape="http://www.inkscape.org/namespaces/inkscape"
   inkscape:version="1.0beta2 (2b71d25, 2019-12-03)"
   sodipodi:docname="noun_hashtag_2733013.svg"
   id="svg843"
   xml:space="preserve"
   style="enable-background:new 0 0 100 100;"
   viewBox="0 0 100 100"
   y="0px"
   x="0px"
   version="1.1"
   fill="#FFFFFF"
   width="100px"
   height="100px"><metadata
     id="metadata849"><rdf:RDF><cc:Work
         rdf:about=""><dc:format>image/svg+xml</dc:format><dc:type
           rdf:resource="http://purl.org/dc/dcmitype/StillImage" /><dc:title></dc:title></cc:Work></rdf:RDF></metadata><defs
     id="defs847" /><sodipodi:namedview
     inkscape:current-layer="svg843"
     inkscape:window-maximized="0"
     inkscape:window-y="23"
     inkscape:window-x="0"
     inkscape:cy="50"
     inkscape:cx="50"
     inkscape:zoom="6.55"
     inkscape:pagecheckerboard="true"
     showgrid="false"
     id="namedview845"
     inkscape:window-height="862"
     inkscape:window-width="1536"
     inkscape:pageshadow="2"
     inkscape:pageopacity="0"
     guidetolerance="10"
     gridtolerance="10"
     objecttolerance="10"
     borderopacity="1"
     inkscape:document-rotation="0"
     bordercolor="#666666"
     pagecolor="#ffffff" /><g
     inkscape:export-ydpi="250.61052"
     inkscape:export-xdpi="250.61052"
     inkscape:export-filename="/Users/Jonas/Transidious/Assets/Resources/Sprites/hashtag.png"
     id="g841"><path
       id="path833"
       d="M91.4,40.8H14.8c-3.4,0-6.1-2.7-6.1-6.1s2.7-6.1,6.1-6.1h76.6c3.4,0,6.1,2.7,6.1,6.1S94.8,40.8,91.4,40.8z" /><path
       id="path835"
       d="M85.2,71.4H8.6c-3.4,0-6.1-2.7-6.1-6.1s2.7-6.1,6.1-6.1h76.6c3.4,0,6.1,2.7,6.1,6.1C91.4,68.7,88.6,71.4,85.2,71.4z" /><path
       id="path837"
       d="M30.1,99c-0.3,0-0.6,0-0.9-0.1c-3.3-0.5-5.7-3.6-5.2-6.9L36.3,6.3c0.5-3.4,3.6-5.7,6.9-5.2c3.3,0.5,5.7,3.6,5.2,6.9   L36.1,93.7C35.7,96.8,33.1,99,30.1,99z" /><path
       id="path839"
       d="M60.7,99c-0.3,0-0.6,0-0.9-0.1c-3.3-0.5-5.7-3.6-5.2-6.9L66.9,6.3c0.5-3.3,3.6-5.7,6.9-5.2C77.2,1.5,79.5,4.6,79,8   L66.8,93.7C66.3,96.8,63.7,99,60.7,99z" /></g></svg>
