<?xml version="1.0" encoding="UTF-8" standalone="no"?>
<svg
   xmlns:dc="http://purl.org/dc/elements/1.1/"
   xmlns:cc="http://creativecommons.org/ns#"
   xmlns:rdf="http://www.w3.org/1999/02/22-rdf-syntax-ns#"
   xmlns:svg="http://www.w3.org/2000/svg"
   xmlns="http://www.w3.org/2000/svg"
   xmlns:sodipodi="http://sodipodi.sourceforge.net/DTD/sodipodi-0.dtd"
   xmlns:inkscape="http://www.inkscape.org/namespaces/inkscape"
   inkscape:version="1.0beta2 (2b71d25, 2019-12-03)"
   sodipodi:docname="noun_Farmer_1469977.svg"
   id="svg15626"
   xml:space="preserve"
   style="enable-background:new 0 0 64 64;"
   viewBox="0 0 64 64"
   y="0px"
   x="0px"
   version="1.1"
   fill="#FFFFFF"
   width="100px"
   height="100px"><metadata
     id="metadata15632"><rdf:RDF><cc:Work
         rdf:about=""><dc:format>image/svg+xml</dc:format><dc:type
           rdf:resource="http://purl.org/dc/dcmitype/StillImage" /><dc:title></dc:title></cc:Work></rdf:RDF></metadata><defs
     id="defs15630" /><sodipodi:namedview
     inkscape:current-layer="svg15626"
     inkscape:window-maximized="0"
     inkscape:window-y="23"
     inkscape:window-x="0"
     inkscape:cy="50"
     inkscape:cx="4.2279412"
     inkscape:zoom="2.72"
     inkscape:pagecheckerboard="true"
     showgrid="false"
     id="namedview15628"
     inkscape:window-height="862"
     inkscape:window-width="1536"
     inkscape:pageshadow="2"
     inkscape:pageopacity="0"
     guidetolerance="10"
     gridtolerance="10"
     objecttolerance="10"
     borderopacity="1"
     inkscape:document-rotation="0"
     bordercolor="#666666"
     pagecolor="#ffffff" /><g
     inkscape:export-ydpi="253.16507"
     inkscape:export-xdpi="253.16507"
     inkscape:export-filename="/Users/Jonas/Transidious/Assets/Resources/Sprites/occupation_farmer.png"
     id="g15624"><path
       id="path15612"
       d="M56.977,49.774c-0.672-4.029-3.497-7.335-7.372-8.627L41,38.279V37h-2v1.878l-1.492,5.969L33.469,40h-2.938l-4.039,4.847   L25,38.878V37h-2v1.279l-8.604,2.868c-3.875,1.292-6.7,4.598-7.372,8.627L4.819,63H32h27.181L56.977,49.774z M47,53h-3V41.388l3,1   V53z M23.292,40.29l2.216,8.863L31.469,42h1.062l5.961,7.153l2.216-8.863L42,40.721V53H22V40.721L23.292,40.29z M17,42.388l3-1V53   h-3.006L17,42.388z M8.996,50.104c0.548-3.287,2.848-5.983,6.004-7.047v9.888L14.105,61H7.181L8.996,50.104z M16.117,61l0.667-6   h30.437l0.662,6H32H16.117z M49.895,61L49,52.945v-9.888c3.156,1.064,5.456,3.76,6.004,7.047L56.819,61H49.895z" /><path
       id="path15614"
       d="M12.798,23.391l0.404-1.959C7.416,20.241,7.002,19.01,7,19.001C7.172,17.644,16.151,15,32,15s24.828,2.644,25,3.998   c-0.002,0.012-0.416,1.243-6.202,2.434l0.404,1.959C56.522,22.295,59,20.9,59,19c0-2.675-5.609-4.24-12.177-5.097   C45.794,6.591,39.48,1,32,1S18.206,6.591,17.177,13.903C10.609,14.76,5,16.325,5,19C5,20.9,7.478,22.295,12.798,23.391z M32,3   c6.303,0,11.655,4.581,12.767,10.66C40.258,13.18,35.534,13,32,13s-8.258,0.18-12.767,0.66C20.345,7.581,25.697,3,32,3z" /><path
       id="path15616"
       d="M44.105,17.594C40.371,17.2,36.298,17,32,17s-8.371,0.2-12.105,0.594L19,17.689v0.412c-2.279,0.465-4,2.484-4,4.899   c0,2.566,1.95,4.662,4.442,4.944c0.51,1.755,1.452,3.364,2.78,4.692l3.899,3.9C27.065,37.48,28.321,38,29.657,38h4.686   c1.336,0,2.592-0.52,3.536-1.464l3.899-3.9c1.328-1.328,2.269-2.938,2.78-4.692C47.05,27.662,49,25.566,49,23   c0-2.414-1.721-4.434-4-4.899v-0.412L44.105,17.594z M17,23c0-1.302,0.839-2.402,2-2.816v4.674c0,0.327,0.019,0.651,0.047,0.973   C17.862,25.43,17,24.319,17,23z M43,24.858c0,2.404-0.937,4.664-2.636,6.364l-3.899,3.9C35.898,35.688,35.145,36,34.343,36h-4.686   c-0.802,0-1.556-0.312-2.122-0.878l-3.899-3.9c-1.699-1.7-2.636-3.96-2.636-6.364v-5.365C24.418,19.166,28.113,19,32,19   s7.582,0.166,11,0.493V24.858z M47,23c0,1.319-0.862,2.43-2.047,2.83C44.981,25.509,45,25.185,45,24.858v-4.674   C46.161,20.598,47,21.698,47,23z" /><path
       id="path15618"
       d="M26,29v3h12v-3c0-1.654-1.346-3-3-3h-6C27.346,26,26,27.346,26,29z M36,29v1h-8v-1c0-0.551,0.448-1,1-1h6   C35.552,28,36,28.449,36,29z" /><rect
       id="rect15620"
       height="2"
       width="2"
       y="45"
       x="31" /><rect
       id="rect15622"
       height="2"
       width="2"
       y="49"
       x="31" /></g></svg>
