<?xml version="1.0" encoding="UTF-8" standalone="no"?>
<svg
   xmlns:dc="http://purl.org/dc/elements/1.1/"
   xmlns:cc="http://creativecommons.org/ns#"
   xmlns:rdf="http://www.w3.org/1999/02/22-rdf-syntax-ns#"
   xmlns:svg="http://www.w3.org/2000/svg"
   xmlns="http://www.w3.org/2000/svg"
   xmlns:sodipodi="http://sodipodi.sourceforge.net/DTD/sodipodi-0.dtd"
   xmlns:inkscape="http://www.inkscape.org/namespaces/inkscape"
   inkscape:version="1.0beta2 (2b71d25, 2019-12-03)"
   sodipodi:docname="noun_Teacher_1469979.svg"
   id="svg14468"
   xml:space="preserve"
   style="enable-background:new 0 0 64 64;"
   viewBox="0 0 64 64"
   y="0px"
   x="0px"
   version="1.1"
   fill="#FFFFFF"
   width="100px"
   height="100px"><metadata
     id="metadata14474"><rdf:RDF><cc:Work
         rdf:about=""><dc:format>image/svg+xml</dc:format><dc:type
           rdf:resource="http://purl.org/dc/dcmitype/StillImage" /><dc:title></dc:title></cc:Work></rdf:RDF></metadata><defs
     id="defs14472" /><sodipodi:namedview
     inkscape:current-layer="svg14468"
     inkscape:window-maximized="0"
     inkscape:window-y="23"
     inkscape:window-x="0"
     inkscape:cy="50"
     inkscape:cx="4.2279412"
     inkscape:zoom="2.72"
     inkscape:pagecheckerboard="true"
     showgrid="false"
     id="namedview14470"
     inkscape:window-height="862"
     inkscape:window-width="1536"
     inkscape:pageshadow="2"
     inkscape:pageopacity="0"
     guidetolerance="10"
     gridtolerance="10"
     objecttolerance="10"
     borderopacity="1"
     inkscape:document-rotation="0"
     bordercolor="#666666"
     pagecolor="#ffffff" /><g
     inkscape:export-ydpi="253.16972"
     inkscape:export-xdpi="253.16972"
     inkscape:export-filename="/Users/Jonas/Transidious/Assets/Resources/Sprites/occupation_teacher.png"
     id="g14466"><path
       id="path14462"
       d="M56.977,49.774c-0.672-4.029-3.497-7.335-7.372-8.627L41,38.279V37h-2v2.721l2.535,0.845l-3.008,5.347L33.46,40h-2.92   l-5.067,5.913l-3.008-5.347L25,39.721V37h-2v1.279l-8.604,2.868c-3.875,1.292-6.7,4.598-7.372,8.627L4.819,63h54.361L56.977,49.774   z M31.46,42h1.08l4.944,5.767l-3.375,6C33.682,54.527,32.873,55,32,55s-1.682-0.473-2.109-1.233l-3.375-5.999L31.46,42z    M28.147,54.747C28.929,56.137,30.405,57,32,57s3.071-0.863,3.852-2.253l7.615-13.538l1.933,0.644l-7.805,13.874   C36.46,57.746,34.316,59,32,59s-4.461-1.254-5.596-3.273l-7.803-13.873l1.932-0.644L28.147,54.747z M49.905,61l-0.91-9.1   l-1.99,0.199l0.89,8.9H32H16.105l0.89-8.9l-1.99-0.199l-0.91,9.1H7.181l1.815-10.897c0.55-3.296,2.861-6.001,6.032-7.059   l1.64-0.547l7.992,14.21C26.149,59.355,28.962,61,32,61s5.851-1.645,7.338-4.292l7.994-14.211l1.64,0.547   c3.171,1.058,5.482,3.763,6.032,7.059L56.819,61H49.905z" /><path
       id="path14464"
       d="M19.442,27.944c0.51,1.755,1.452,3.364,2.78,4.692l3.899,3.899c0.944,0.944,2.2,1.465,3.536,1.465h4.686   c1.336,0,2.592-0.521,3.536-1.465l3.899-3.899c1.328-1.328,2.269-2.938,2.78-4.692C47.05,27.662,49,25.566,49,23   c0-1.641-0.806-3.088-2.031-4H47v-3c0-8.271-6.729-15-15-15S17,7.729,17,16v3h0.031C15.806,19.912,15,21.359,15,23   C15,25.566,16.95,27.662,19.442,27.944z M42,24h-6c-0.552,0-1-0.449-1-1v-3h8v3C43,23.551,42.552,24,42,24z M34,18h-1h-2h-1h-2.68   c1.771-1.028,3.342-2.407,4.562-4.115L32,13.72l0.118,0.165c1.22,1.708,2.791,3.087,4.562,4.115H34z M21,20h8v3   c0,0.551-0.448,1-1,1h-6c-0.552,0-1-0.449-1-1V20z M40.364,31.222l-3.899,3.899C35.898,35.688,35.145,36,34.343,36h-4.686   c-0.802,0-1.556-0.312-2.122-0.879l-3.899-3.899c-1.467-1.468-2.362-3.354-2.58-5.389C21.354,25.933,21.668,26,22,26h6   c1.654,0,3-1.346,3-3v-3h2v3c0,1.654,1.346,3,3,3h6c0.332,0,0.646-0.067,0.944-0.167C42.726,27.868,41.831,29.754,40.364,31.222z    M44.953,25.83C44.981,25.509,45,25.185,45,24.858V23v-2.816c1.161,0.414,2,1.514,2,2.816C47,24.319,46.138,25.43,44.953,25.83z    M19,16c0-7.168,5.832-13,13-13s13,5.832,13,13v2h-1c-4.062,0-7.895-1.973-10.255-5.278L32,10.28l-1.745,2.442   C27.895,16.027,24.062,18,20,18h-1V16z M19,20.184V23v1.858c0,0.327,0.019,0.651,0.047,0.973C17.862,25.43,17,24.319,17,23   C17,21.698,17.839,20.598,19,20.184z" /></g></svg>
