<?xml version="1.0" encoding="UTF-8" standalone="no"?>
<svg
   xmlns:dc="http://purl.org/dc/elements/1.1/"
   xmlns:cc="http://creativecommons.org/ns#"
   xmlns:rdf="http://www.w3.org/1999/02/22-rdf-syntax-ns#"
   xmlns:svg="http://www.w3.org/2000/svg"
   xmlns="http://www.w3.org/2000/svg"
   xmlns:sodipodi="http://sodipodi.sourceforge.net/DTD/sodipodi-0.dtd"
   xmlns:inkscape="http://www.inkscape.org/namespaces/inkscape"
   inkscape:version="1.0beta2 (2b71d25, 2019-12-03)"
   sodipodi:docname="noun_hunter_1469991.svg"
   id="svg17357"
   xml:space="preserve"
   style="enable-background:new 0 0 64 64;"
   viewBox="0 0 64 64"
   y="0px"
   x="0px"
   version="1.1"
   fill="#FFFFFF"
   width="100px"
   height="100px"><metadata
     id="metadata17363"><rdf:RDF><cc:Work
         rdf:about=""><dc:format>image/svg+xml</dc:format><dc:type
           rdf:resource="http://purl.org/dc/dcmitype/StillImage" /><dc:title></dc:title></cc:Work></rdf:RDF></metadata><defs
     id="defs17361" /><sodipodi:namedview
     inkscape:current-layer="svg17357"
     inkscape:window-maximized="0"
     inkscape:window-y="23"
     inkscape:window-x="0"
     inkscape:cy="50"
     inkscape:cx="4.2279412"
     inkscape:zoom="2.72"
     inkscape:pagecheckerboard="true"
     showgrid="false"
     id="namedview17359"
     inkscape:window-height="862"
     inkscape:window-width="1536"
     inkscape:pageshadow="2"
     inkscape:pageopacity="0"
     guidetolerance="10"
     gridtolerance="10"
     objecttolerance="10"
     borderopacity="1"
     inkscape:document-rotation="0"
     bordercolor="#666666"
     pagecolor="#ffffff" /><g
     inkscape:export-ydpi="253.68774"
     inkscape:export-xdpi="253.68774"
     inkscape:export-filename="/Users/Jonas/Transidious/Assets/Resources/Sprites/occupation_hunter.png"
     id="g17355"><path
       id="path17347"
       d="M56.977,49.774c-0.672-4.029-3.497-7.335-7.372-8.627L41,38.279V37h-2v1.879l-1.492,5.968L33.469,40h-2.938l-4.039,4.847   L25,38.879V37h-2v1.279l-8.604,2.868c-3.875,1.292-6.7,4.598-7.372,8.627L4.819,63h54.361L56.977,49.774z M23.292,40.29   l2.216,8.863L31.469,42h1.062l5.961,7.153l2.216-8.863L44,41.387v8.451c0,2.104,1.215,3.986,3.08,4.869L47.867,61H35v-6.808   l1.929-4.821l-1.857-0.742L33,53.808V61h-2v-7.192l-2.071-5.179l-1.857,0.742L29,54.192V61H16.133l0.787-6.293   c1.865-0.883,3.08-2.766,3.08-4.869v-8.451L23.292,40.29z M8.996,50.103c0.55-3.296,2.861-6.001,6.032-7.059L18,42.054v7.784   c0,1.46-0.931,2.751-2.316,3.214l-0.598,0.199L14.117,61H7.181L8.996,50.103z M49.883,61l-0.969-7.749l-0.598-0.199   C46.931,52.589,46,51.298,46,49.838v-7.784l2.972,0.99c3.171,1.058,5.482,3.763,6.032,7.059L56.819,61H49.883z" /><rect
       id="rect17349"
       height="2"
       width="8"
       y="55"
       x="37" /><rect
       id="rect17351"
       height="2"
       width="8"
       y="55"
       x="19" /><path
       id="path17353"
       d="M15.034,23.335c0.163,2.41,2.028,4.34,4.408,4.609c0.51,1.755,1.452,3.364,2.78,4.692l3.899,3.899   c0.944,0.944,2.2,1.465,3.536,1.465h4.686c1.336,0,2.592-0.521,3.536-1.465l3.899-3.899c1.328-1.328,2.269-2.937,2.78-4.692   c2.38-0.269,4.245-2.198,4.408-4.609c1.992-0.179,3.066-0.329,3.175-0.345l1.046-0.149l-0.207-1.037   c-0.043-0.218-1.11-5.209-6.11-7.504C46.017,6.794,39.615,1,32,1S17.983,6.794,17.129,14.299c-5,2.295-6.066,7.286-6.11,7.504   l-0.207,1.037l1.046,0.149C11.968,23.006,13.042,23.155,15.034,23.335z M17.05,23.5c0.597,0.044,1.252,0.088,1.95,0.131v1.227   c0,0.327,0.019,0.651,0.047,0.973C18.015,25.482,17.236,24.596,17.05,23.5z M40.364,31.222l-3.899,3.899   C35.898,35.688,35.145,36,34.343,36h-4.686c-0.802,0-1.556-0.312-2.122-0.879l-3.899-3.899c-1.699-1.7-2.636-3.96-2.636-6.364   v-1.117C23.972,23.889,27.636,24,32,24s8.028-0.111,11-0.259v1.117C43,27.262,42.063,29.521,40.364,31.222z M44.953,25.83   C44.981,25.508,45,25.185,45,24.857V23.63c0.697-0.043,1.353-0.086,1.95-0.131C46.764,24.596,45.985,25.482,44.953,25.83z    M44.845,14.18c-0.953,0.144-2.612,0.359-4.9,0.533c-0.328-5.545-2.691-9.18-4.68-11.279C40.243,4.74,44.106,8.945,44.845,14.18z    M32,3.199c1.443,1.028,5.535,4.567,5.951,11.644C36.227,14.937,34.24,15,32,15c-2.238,0-4.226-0.064-5.951-0.158   C26.465,7.766,30.557,4.227,32,3.199z M28.735,3.433c-1.989,2.099-4.352,5.734-4.68,11.278c-2.285-0.174-3.946-0.389-4.9-0.533   C19.894,8.945,23.757,4.74,28.735,3.433z M18.111,16.037C19.339,16.254,24.142,17,32,17s12.661-0.746,13.89-0.963   c2.943,1.284,4.266,3.719,4.804,5.113C48.205,21.423,41.789,22,32,22c-9.782,0-16.195-0.576-18.688-0.85   C13.856,19.756,15.187,17.314,18.111,16.037z" /></g></svg>
