<?xml version="1.0" encoding="UTF-8" standalone="no"?>
<svg
   xmlns:dc="http://purl.org/dc/elements/1.1/"
   xmlns:cc="http://creativecommons.org/ns#"
   xmlns:rdf="http://www.w3.org/1999/02/22-rdf-syntax-ns#"
   xmlns:svg="http://www.w3.org/2000/svg"
   xmlns="http://www.w3.org/2000/svg"
   xmlns:sodipodi="http://sodipodi.sourceforge.net/DTD/sodipodi-0.dtd"
   xmlns:inkscape="http://www.inkscape.org/namespaces/inkscape"
   inkscape:version="1.0beta2 (2b71d25, 2019-12-03)"
   sodipodi:docname="noun_pastor_1469973.svg"
   id="svg15043"
   xml:space="preserve"
   style="enable-background:new 0 0 64 64;"
   viewBox="0 0 64 64"
   y="0px"
   x="0px"
   version="1.1"
   fill="#FFFFFF"
   width="100px"
   height="100px"><metadata
     id="metadata15049"><rdf:RDF><cc:Work
         rdf:about=""><dc:format>image/svg+xml</dc:format><dc:type
           rdf:resource="http://purl.org/dc/dcmitype/StillImage" /><dc:title></dc:title></cc:Work></rdf:RDF></metadata><defs
     id="defs15047" /><sodipodi:namedview
     inkscape:current-layer="svg15043"
     inkscape:window-maximized="0"
     inkscape:window-y="23"
     inkscape:window-x="0"
     inkscape:cy="50"
     inkscape:cx="4.2279412"
     inkscape:zoom="2.72"
     inkscape:pagecheckerboard="true"
     showgrid="false"
     id="namedview15045"
     inkscape:window-height="862"
     inkscape:window-width="1536"
     inkscape:pageshadow="2"
     inkscape:pageopacity="0"
     guidetolerance="10"
     gridtolerance="10"
     objecttolerance="10"
     borderopacity="1"
     inkscape:document-rotation="0"
     bordercolor="#666666"
     pagecolor="#ffffff" /><g
     inkscape:export-ydpi="253.16972"
     inkscape:export-xdpi="253.16972"
     inkscape:export-filename="/Users/Jonas/Transidious/Assets/Resources/Sprites/occupation_pastor.png"
     id="g15041"><path
       id="path15037"
       d="M56.977,49.774c-0.672-4.029-3.497-7.335-7.372-8.627L41,38.279V37h-2v1.646C38.446,39.258,36.479,41,32,41   s-6.446-1.742-7-2.354V37h-2v1.279l-8.604,2.868c-3.875,1.292-6.7,4.598-7.372,8.627L4.819,63h54.361L56.977,49.774z M45.26,41.807   c0.58,1.434,2.616,7.329,2.728,19.193h-7.985c0.025-6.019,0.278-8.806,0.524-11.5c0.101-1.095,0.198-2.172,0.279-3.436   l-1.996-0.128c-0.079,1.244-0.176,2.304-0.274,3.382c-0.187,2.057-0.379,4.172-0.474,7.682H35v-5h-6v5h-3.061   c-0.095-3.51-0.287-5.625-0.474-7.682c-0.099-1.078-0.195-2.138-0.274-3.382l-1.996,0.128c0.081,1.264,0.179,2.34,0.279,3.436   c0.245,2.694,0.498,5.481,0.524,11.5h-7.985c0.112-11.864,2.148-17.758,2.728-19.193l4.278-1.426   c0.19,3.637,3.04,5.038,5.148,6.064C29.976,47.328,31,47.881,31,49v1h2v-1c0-1.119,1.024-1.672,2.834-2.554   c2.107-1.027,4.958-2.427,5.148-6.064L45.26,41.807z M25.979,59H31v-5h2v5h5.021c-0.009,0.627-0.015,1.29-0.018,2H25.997   C25.995,60.29,25.988,59.627,25.979,59z M38.779,41.344c-0.553,1.686-2.14,2.484-3.82,3.304c-1.054,0.514-2.175,1.076-2.958,1.902   c-0.783-0.826-1.904-1.388-2.958-1.902c-1.681-0.819-3.268-1.618-3.82-3.304C26.611,42.183,28.788,43,32,43   C35.212,43,37.389,42.183,38.779,41.344z M8.996,50.104c0.55-3.297,2.861-6.001,6.032-7.059l1.299-0.433   c-0.89,2.81-2.226,8.657-2.315,18.388H7.181L8.996,50.104z M49.988,61c-0.089-9.731-1.424-15.578-2.315-18.388l1.299,0.433   c3.171,1.057,5.482,3.762,6.032,7.059L56.819,61H49.988z" /><path
       id="path15039"
       d="M19.442,27.944c0.51,1.755,1.452,3.364,2.78,4.692l3.899,3.9C27.065,37.48,28.321,38,29.657,38h4.686   c1.336,0,2.592-0.52,3.536-1.464l3.899-3.9c1.328-1.328,2.269-2.938,2.78-4.692C47.05,27.662,49,25.566,49,23   c0-1.641-0.806-3.088-2.031-4H47v-3c0-8.271-6.729-15-15-15S17,7.729,17,16v3h0.031C15.806,19.912,15,21.359,15,23   C15,25.566,16.95,27.662,19.442,27.944z M40.364,31.222l-3.899,3.9C35.898,35.688,35.145,36,34.343,36h-4.686   c-0.802,0-1.556-0.312-2.122-0.878l-3.899-3.9c-1.699-1.7-2.636-3.96-2.636-6.364V20h3.395c3.225,0,6.258-1.421,8.322-3.898   C33.829,14.766,35.465,14,37.204,14c2.868,0,5.291,2.053,5.763,4.88L43,24.858C43,27.262,42.063,29.522,40.364,31.222z    M44.953,25.83C44.981,25.509,45,25.185,45,24.858v-4.674c1.161,0.414,2,1.514,2,2.816C47,24.319,46.138,25.43,44.953,25.83z    M19,16c0-7.168,5.832-13,13-13s13,5.832,13,13v2.101c-0.052-0.011-0.108-0.007-0.16-0.016C44.027,14.533,40.893,12,37.204,12   c-2.334,0-4.53,1.028-6.024,2.822C29.497,16.842,27.023,18,24.395,18H19V16z M19,20.184v4.674c0,0.327,0.019,0.651,0.047,0.973   C17.862,25.43,17,24.319,17,23C17,21.698,17.839,20.598,19,20.184z" /></g></svg>
