<?xml version="1.0" encoding="UTF-8" standalone="no"?>
<svg
   xmlns:dc="http://purl.org/dc/elements/1.1/"
   xmlns:cc="http://creativecommons.org/ns#"
   xmlns:rdf="http://www.w3.org/1999/02/22-rdf-syntax-ns#"
   xmlns:svg="http://www.w3.org/2000/svg"
   xmlns="http://www.w3.org/2000/svg"
   xmlns:sodipodi="http://sodipodi.sourceforge.net/DTD/sodipodi-0.dtd"
   xmlns:inkscape="http://www.inkscape.org/namespaces/inkscape"
   inkscape:version="1.0beta2 (2b71d25, 2019-12-03)"
   sodipodi:docname="noun_Bus_1953596.svg"
   id="svg6897"
   clip-rule="evenodd"
   fill-rule="evenodd"
   y="0px"
   x="0px"
   viewBox="0 0 333 333"
   style="shape-rendering:geometricPrecision;text-rendering:geometricPrecision;image-rendering:optimizeQuality;"
   version="1.1"
   xml:space="preserve"
   fill="#FFFFFF"
   width="100px"
   height="100px"><metadata
     id="metadata6901"><rdf:RDF><cc:Work
         rdf:about=""><dc:format>image/svg+xml</dc:format><dc:type
           rdf:resource="http://purl.org/dc/dcmitype/StillImage" /><dc:title></dc:title></cc:Work></rdf:RDF></metadata><sodipodi:namedview
     inkscape:current-layer="svg6897"
     inkscape:window-maximized="0"
     inkscape:window-y="23"
     inkscape:window-x="0"
     inkscape:cy="50"
     inkscape:cx="4.2279412"
     inkscape:zoom="2.72"
     inkscape:pagecheckerboard="true"
     showgrid="false"
     id="namedview6899"
     inkscape:window-height="862"
     inkscape:window-width="1536"
     inkscape:pageshadow="2"
     inkscape:pageopacity="0"
     guidetolerance="10"
     gridtolerance="10"
     objecttolerance="10"
     borderopacity="1"
     inkscape:document-rotation="0"
     bordercolor="#666666"
     pagecolor="#ffffff" /><defs
     id="defs6891"><style
       id="style6889"
       type="text/css">
   
    .fil0 {fill:#FFFFFF}
   
  </style></defs><g
     inkscape:export-ydpi="265.43826"
     inkscape:export-xdpi="265.43826"
     inkscape:export-filename="/Users/Jonas/Transidious/Assets/Resources/Sprites/ui_bus.png"
     id="g6895"><path
       id="path6893"
       d="M65 30l56 0 15 -17 61 0 15 17 56 0c12,0 21,10 21,23l0 30c8,0 16,1 16,12l0 30c0,10 -8,11 -16,11l0 129c0,12 -9,22 -21,22l0 23c0,6 -5,11 -11,11l-12 0c-6,0 -11,-5 -11,-11l0 -23c-49,0 -86,0 -135,0l0 23c0,6 -5,11 -10,11l-13 0c-6,0 -10,-5 -10,-11l0 -23c-13,0 -22,-10 -22,-22l0 -129c-8,0 -16,-1 -16,-11l0 -30c0,-11 8,-12 16,-12l0 -30c0,-13 10,-23 21,-23zm54 182l95 0 0 24 -95 0 0 -24zm32 -49l-37 26c35,0 70,0 106,0l-38 -26 0 19c0,5 -7,5 -7,0l0 -52c0,-5 7,-5 7,0l0 24 50 35 46 0 0 -105c-74,0 -148,0 -222,0l0 105 46 0 49 -35 0 -24c0,-5 7,-5 7,0l0 52c0,5 -7,5 -7,0l0 -19zm110 41l-21 0c-3,0 -6,3 -6,7l0 21c0,3 3,6 6,6l21 0c4,0 7,-3 7,-6l0 -21c0,-4 -3,-7 -7,-7zm-189 0l21 0c4,0 7,3 7,7l0 21c0,3 -3,6 -7,6l-21 0c-4,0 -7,-3 -7,-6l0 -21c0,-4 3,-7 7,-7z"
       class="fil0" /></g></svg>
