<?xml version="1.0" encoding="UTF-8" standalone="no"?>
<svg
   xmlns:i="http://ns.adobe.com/AdobeIllustrator/10.0/"
   xmlns:dc="http://purl.org/dc/elements/1.1/"
   xmlns:cc="http://creativecommons.org/ns#"
   xmlns:rdf="http://www.w3.org/1999/02/22-rdf-syntax-ns#"
   xmlns:svg="http://www.w3.org/2000/svg"
   xmlns="http://www.w3.org/2000/svg"
   xmlns:sodipodi="http://sodipodi.sourceforge.net/DTD/sodipodi-0.dtd"
   xmlns:inkscape="http://www.inkscape.org/namespaces/inkscape"
   inkscape:version="1.0beta2 (2b71d25, 2019-12-03)"
   sodipodi:docname="noun_stadium_2228304.svg"
   id="svg849"
   xml:space="preserve"
   style="enable-background:new 0 0 100 100;"
   viewBox="0 0 100 100"
   y="0px"
   x="0px"
   version="1.1"
   fill="#FFFFFF"
   width="100px"
   height="100px"><metadata
     id="metadata855"><rdf:RDF><cc:Work
         rdf:about=""><dc:format>image/svg+xml</dc:format><dc:type
           rdf:resource="http://purl.org/dc/dcmitype/StillImage" /><dc:title></dc:title></cc:Work></rdf:RDF></metadata><defs
     id="defs853" /><sodipodi:namedview
     inkscape:current-layer="svg849"
     inkscape:window-maximized="0"
     inkscape:window-y="23"
     inkscape:window-x="0"
     inkscape:cy="50"
     inkscape:cx="50"
     inkscape:zoom="6.55"
     inkscape:pagecheckerboard="true"
     showgrid="false"
     id="namedview851"
     inkscape:window-height="862"
     inkscape:window-width="1536"
     inkscape:pageshadow="2"
     inkscape:pageopacity="0"
     guidetolerance="10"
     gridtolerance="10"
     objecttolerance="10"
     borderopacity="1"
     inkscape:document-rotation="0"
     bordercolor="#666666"
     pagecolor="#ffffff" /><g
     inkscape:export-ydpi="258.42273"
     inkscape:export-xdpi="258.42273"
     inkscape:export-filename="/Users/Jonas/Transidious/Assets/Resources/Sprites/stadium.png"
     id="g847"><g
       id="g845"
       i:extraneous="self"><g
         id="g843"><path
           id="path833"
           d="M21.3,63c-1.4-0.2-2.7-0.5-3.9-0.7c-0.5-0.1-1.1,0-1.5,0.4c-0.4,0.3-0.7,0.9-0.7,1.4v5.7c0,0.9,0.6,1.6,1.4,1.8     c1.3,0.3,2.7,0.5,4.1,0.7c0.1,0,0.2,0,0.3,0c0.4,0,0.8-0.2,1.2-0.4c0.4-0.3,0.6-0.8,0.6-1.4v-5.7C22.8,63.9,22.2,63.2,21.3,63z" /><path
           id="path835"
           d="M32.4,64.2c-1.4-0.1-2.7-0.2-4-0.3c-0.5,0-1,0.1-1.4,0.5c-0.4,0.3-0.6,0.8-0.6,1.3v5.6c0,0.9,0.7,1.7,1.6,1.8     c1.3,0.1,2.7,0.2,4.1,0.3c0,0,0.1,0,0.1,0c0.5,0,0.9-0.2,1.2-0.5c0.4-0.3,0.6-0.8,0.6-1.3V66C34.1,65.1,33.3,64.3,32.4,64.2z" /><path
           id="path837"
           d="M67.7,73.5c0,0,0.1,0,0.1,0c1.4-0.1,2.7-0.2,4.1-0.3c0.9-0.1,1.6-0.9,1.6-1.8v-5.6c0-0.5-0.2-1-0.6-1.3     c-0.4-0.3-0.9-0.5-1.4-0.5c-1.3,0.1-2.6,0.2-4,0.3c-0.9,0.1-1.7,0.8-1.7,1.8v5.6c0,0.5,0.2,1,0.6,1.3     C66.8,73.3,67.3,73.5,67.7,73.5z" /><path
           id="path839"
           d="M79,72.3c0.1,0,0.2,0,0.3,0c1.4-0.2,2.8-0.4,4.1-0.7c0.8-0.2,1.4-0.9,1.4-1.8v-5.7c0-0.5-0.2-1.1-0.7-1.4     c-0.4-0.3-1-0.5-1.5-0.4c-1.2,0.3-2.6,0.5-3.9,0.7c-0.9,0.1-1.5,0.9-1.5,1.8v5.7c0,0.5,0.2,1,0.6,1.4     C78.2,72.1,78.6,72.3,79,72.3z" /><path
           id="path841"
           d="M85.2,35.7V25.3l8.2-4.1c0.5-0.3,0.5-0.9,0-1.2l-8.2-4.1v-1.1c0-1.3-1-2.3-2.3-2.3c-1.3,0-2.3,1-2.3,2.3v19.9     c-5.7-1-12-1.6-17.3-1.9V22.8l8.2-4.1c0.5-0.2,0.5-0.9,0-1.2l-8.2-4.1v-1.1c0-1.3-1-2.3-2.3-2.3s-2.3,1.1-2.3,2.3v20.2     c-4.7-0.2-8.1-0.2-8.6-0.2c-0.5,0-3.9,0-8.7,0.2v-9.8l8.2-4.1c0.5-0.2,0.5-0.9,0-1.2l-8.2-4.1v-1.1c0-1.3-1-2.3-2.3-2.3     c-1.3,0-2.3,1.1-2.3,2.3v20.5c-5.4,0.3-11.7,0.9-17.3,1.9v-9.5l8.2-4.1c0.5-0.3,0.5-0.9,0-1.2l-8.2-4.1v-1.1     c0-1.3-1.1-2.3-2.3-2.3c-1.3,0-2.3,1-2.3,2.3v20.9c-7,1.7-12.2,4.2-12.2,8c0,0.1,4,33,4,33c0.3,2.2,1.7,4.2,3.7,5     c6.7,2.9,17.4,4.8,29.6,5.5l0,0c0.1,1.5,1.3,2.6,2.7,2.6h15c1.4,0,2.6-1.1,2.7-2.6l0,0c12.2-0.7,22.9-2.6,29.6-5.5     c2.1-0.9,3.5-2.8,3.8-5c0,0,4-33,4-33C97.5,39.9,92.2,37.4,85.2,35.7z M55.7,85.3H44.3l-1-13.8c4.2-2.9,9.2-2.9,13.4,0L55.7,85.3     z M89,76.2c-0.1,0.6-0.4,1.1-1,1.4c-6,2.6-16.1,4.4-27.4,5.1l0.8-11.3c0.1-1.2-0.4-2.4-1.2-3c-6.2-4.7-14-4.7-20.2,0     c-0.9,0.6-1.3,1.8-1.2,3l0.8,11.3c-11.4-0.7-21.4-2.5-27.4-5.1c-0.5-0.3-0.9-0.7-1-1.4L7.9,49.4C19.9,54.9,48.5,55,50,55     c1.5,0,30.1-0.1,42.2-5.6L89,76.2z M84.8,47.1c-3.5-2.4-17.7-4.3-34.8-4.3c-17.1,0-31.4,1.8-34.8,4.3c-4.7-1.2-7.4-2.4-8-3.4     C8.7,41.2,23.9,37,50,37c26.1,0,41.3,4.2,42.8,6.7C92.2,44.7,89.5,45.9,84.8,47.1z" /></g></g></g></svg>
