<?xml version="1.0" encoding="UTF-8" standalone="no"?>
<svg
   xmlns:dc="http://purl.org/dc/elements/1.1/"
   xmlns:cc="http://creativecommons.org/ns#"
   xmlns:rdf="http://www.w3.org/1999/02/22-rdf-syntax-ns#"
   xmlns:svg="http://www.w3.org/2000/svg"
   xmlns="http://www.w3.org/2000/svg"
   xmlns:sodipodi="http://sodipodi.sourceforge.net/DTD/sodipodi-0.dtd"
   xmlns:inkscape="http://www.inkscape.org/namespaces/inkscape"
   inkscape:version="1.0beta2 (2b71d25, 2019-12-03)"
   sodipodi:docname="noun_Car_2855623.svg"
   id="svg839"
   xml:space="preserve"
   enable-background="new 0 0 100 100"
   viewBox="0 0 100 125"
   y="0px"
   x="0px"
   version="1.0"><metadata
     id="metadata845"><rdf:RDF><cc:Work
         rdf:about=""><dc:format>image/svg+xml</dc:format><dc:type
           rdf:resource="http://purl.org/dc/dcmitype/StillImage" /><dc:title></dc:title></cc:Work></rdf:RDF></metadata><defs
     id="defs843" /><sodipodi:namedview
     inkscape:current-layer="svg839"
     inkscape:window-maximized="0"
     inkscape:window-y="23"
     inkscape:window-x="0"
     inkscape:cy="52.576336"
     inkscape:cx="50.763359"
     inkscape:zoom="5.24"
     inkscape:pagecheckerboard="true"
     showgrid="false"
     id="namedview841"
     inkscape:window-height="862"
     inkscape:window-width="1536"
     inkscape:pageshadow="2"
     inkscape:pageopacity="0"
     guidetolerance="10"
     gridtolerance="10"
     objecttolerance="10"
     borderopacity="1"
     inkscape:document-rotation="0"
     bordercolor="#666666"
     pagecolor="#ffffff" /><path
     inkscape:export-ydpi="531.84082"
     inkscape:export-xdpi="531.84082"
     inkscape:export-filename="/Users/Jonas/Transidious/Assets/Resources/Sprites/car1.png"
     style="fill:#ffffff;fill-opacity:1"
     id="path833"
     d="M73.3938522,34.4005127c-0.1553574-1.3355713-2.3980331-1.8824043-3.3725357-2.0578117  c-0.1796646-6.9379387-0.6025467-16.7777023-1.587944-21.1310349c-1.6031647-7.082581-16.1429024-6.9625387-16.1429024-6.9625387  h-0.3961411c0,0-14.5397301-0.1200423-16.1429062,6.9625387c-0.9853935,4.3533316-1.4082756,14.1930962-1.5879402,21.1310349  c-0.9745064,0.1754227-3.2171631,0.7222404-3.3725376,2.0578117c-0.198904,1.709919,0,1.2928619,0,1.2928619l3.3181858-1.0145454  c-0.0642128,3.1151161-0.075386,5.2233124-0.075386,5.2233124v34.572628c0,0,0.5725594,6.7224655,1.1451187,12.604599  c0.5725594,5.8821487,2.1757355,8.2830276,9.9625397,9.1233215c7.7868004,0.8403244,13.9020042,0,13.9020042,0  c7.7868004-0.8402939,9.3899651-3.2411728,9.9625282-9.1233215c0.5725555-5.8821335,1.1451187-12.604599,1.1451187-12.604599  v-34.572628c0,0-0.0111694-2.1081963-0.075386-5.2233124l3.3181839,1.0145454  C73.3938522,35.6933746,73.5927734,36.1104317,73.3938522,34.4005127z M39.186779,23.8162708  c4.1224327-3.2411861,12.70755-3.3379765,12.70755-3.3379765h0.3961411c0,0,8.5851173,0.0967903,12.7075462,3.3379765  s2.1757355,7.3226776,1.4886475,10.6838932c-0.6870575,3.3612251-1.259613,6.0021896-1.259613,6.0021896  s-5.7190552-1.8006554-12.9365807-1.8006554h-0.3961411c-7.2175369,0-12.9365654,1.8006554-12.9365654,1.8006554  s-0.5725594-2.6409645-1.2596474-6.0021896C37.0110588,31.1389484,35.0643501,27.0574551,39.186779,23.8162708z   M35.4973869,34.1381912h0.6173058c0.8230934,4.4580193,1.851944,9.4193726,2.0577049,16.2743988  c0.0293198,0.9768181,0.049263,1.9409218,0.0614738,2.8972054c-1.4500465-0.6837654-2.3057976-1.4763985-2.7841682-2.0597458  C35.402916,41.3993607,35.4973869,34.1381912,35.4973869,34.1381912z M37.4179039,70.2337723  c-0.7544823,6.6870346-1.5775642,4.0265884-1.5775642,4.0265884c-0.2057266-6.350235-0.3123283-12.9231377-0.3631516-18.8662567  c0.7641907,0.3957787,2.0161934,0.6743774,2.7660828,0.8161049C38.2130432,60.9144974,37.9552727,65.4710922,37.4179039,70.2337723z   M52.2904701,88.0192795h-0.3961411c-11.5041008,0-13.9887657-2.3373947-13.9887657-2.3373947s0-1.4803543,0.3419762-4.1294327  c0.3419914-2.6490479,1.1444931-7.4018097,1.1444931-7.4018097c6.4661217,1.2466431,12.4423904,1.2358932,12.4423904,1.2358932  h0.2108307c0,0,6.2814026,0.0107498,12.7475166-1.2358932c0,0,0.8024979,4.7527618,1.1444855,7.4018097  c0.34198,2.6490784,0.34198,4.1294327,0.34198,4.1294327S63.7945595,88.0192795,52.2904701,88.0192795z M68.3444595,74.2603607  c0,0-0.8230743,2.6604462-1.5775681-4.0265884c-0.5373688-4.7626801-0.7951202-9.3192749-0.8253632-14.0235634  c0.7499008-0.1417274,2.0019073-0.4203377,2.766098-0.8161049C68.6567993,61.3372231,68.5501862,67.9101257,68.3444595,74.2603607z   M68.7350922,51.2500763c-0.4783783,0.5833435-1.3341446,1.3759804-2.7841797,2.0597343  c0.0122223-0.9562721,0.0321655-1.9204025,0.0614853-2.8972206c0.20578-6.8550262,1.2346268-11.8163795,2.0576935-16.2743988  h0.6173172C68.6874084,34.1381912,68.7818832,41.3993721,68.7350922,51.2500763z" /></svg>
