<?xml version="1.0" encoding="UTF-8" standalone="no"?>
<svg
   xmlns:dc="http://purl.org/dc/elements/1.1/"
   xmlns:cc="http://creativecommons.org/ns#"
   xmlns:rdf="http://www.w3.org/1999/02/22-rdf-syntax-ns#"
   xmlns:svg="http://www.w3.org/2000/svg"
   xmlns="http://www.w3.org/2000/svg"
   xmlns:sodipodi="http://sodipodi.sourceforge.net/DTD/sodipodi-0.dtd"
   xmlns:inkscape="http://www.inkscape.org/namespaces/inkscape"
   inkscape:version="1.0beta2 (2b71d25, 2019-12-03)"
   sodipodi:docname="noun_sportman_1469983.svg"
   id="svg17932"
   xml:space="preserve"
   style="enable-background:new 0 0 64 64;"
   viewBox="0 0 64 64"
   y="0px"
   x="0px"
   version="1.1"
   fill="#FFFFFF"
   width="100px"
   height="100px"><metadata
     id="metadata17938"><rdf:RDF><cc:Work
         rdf:about=""><dc:format>image/svg+xml</dc:format><dc:type
           rdf:resource="http://purl.org/dc/dcmitype/StillImage" /><dc:title></dc:title></cc:Work></rdf:RDF></metadata><defs
     id="defs17936" /><sodipodi:namedview
     inkscape:current-layer="svg17932"
     inkscape:window-maximized="0"
     inkscape:window-y="23"
     inkscape:window-x="0"
     inkscape:cy="50"
     inkscape:cx="4.2279412"
     inkscape:zoom="2.72"
     inkscape:pagecheckerboard="true"
     showgrid="false"
     id="namedview17934"
     inkscape:window-height="862"
     inkscape:window-width="1536"
     inkscape:pageshadow="2"
     inkscape:pageopacity="0"
     guidetolerance="10"
     gridtolerance="10"
     objecttolerance="10"
     borderopacity="1"
     inkscape:document-rotation="0"
     bordercolor="#666666"
     pagecolor="#ffffff" /><g
     inkscape:export-ydpi="253.68774"
     inkscape:export-xdpi="253.68774"
     inkscape:export-filename="/Users/Jonas/Transidious/Assets/Resources/Sprites/occupation_athlete.png"
     id="g17930"><path
       id="path17926"
       d="M56.976,49.774c-0.671-4.029-3.496-7.335-7.372-8.627L41,38.279V37h-2v1.903c-0.127,0.623-1.257,5.279-7,7.054   c-5.751-1.778-6.876-6.444-7-7.052V37h-2v1.279l-8.604,2.868c-3.875,1.292-6.7,4.598-7.372,8.627L4.819,63H32h27.181L56.976,49.774   z M23.314,40.282c0.669,1.983,2.7,6.047,8.411,7.679L32,48.04l0.275-0.078c5.711-1.632,7.742-5.696,8.411-7.679l3.32,1.107   c0.062,9.3,2.288,13.032,3.044,14.029L47.275,57H16.725l0.226-1.582c0.756-0.997,2.981-4.729,3.044-14.029L23.314,40.282z    M8.997,50.103c0.549-3.296,2.861-6.001,6.032-7.059l2.954-0.985c-0.18,9.411-2.675,12.217-2.69,12.234l-0.236,0.235L14.133,61   H7.181L8.997,50.103z M16.153,61l0.286-2h31.123l0.286,2H32H16.153z M49.867,61l-0.924-6.472l-0.236-0.235   c-0.026-0.026-2.511-2.807-2.69-12.234l2.954,0.985c3.171,1.058,5.482,3.763,6.032,7.059L56.819,61H49.867z" /><path
       id="path17928"
       d="M19.442,27.944c0.51,1.755,1.452,3.364,2.78,4.692l3.9,3.899c0.944,0.944,2.2,1.465,3.535,1.465h4.687   c1.335,0,2.591-0.521,3.535-1.465l3.9-3.899c1.328-1.328,2.27-2.937,2.78-4.692C47.05,27.662,49,25.566,49,23   c0-1.641-0.806-3.088-2.031-4H47v-3c0-8.271-6.729-15-15-15S17,7.729,17,16v3h0.031C15.806,19.912,15,21.359,15,23   C15,25.566,16.95,27.662,19.442,27.944z M40.364,31.222l-3.9,3.899C35.906,35.68,35.133,36,34.343,36h-4.687   c-0.79,0-1.562-0.32-2.121-0.879l-3.9-3.899c-1.7-1.7-2.636-3.96-2.636-6.364v-5.525l1.862-2.483   c0.519-0.69,1.46-1.006,2.284-0.768L32,18.04l6.854-1.959c0.822-0.232,1.765,0.078,2.283,0.769L43,19.333v5.525   C43,27.262,42.064,29.521,40.364,31.222z M44.953,25.83C44.981,25.508,45,25.185,45,24.857v-4.673c1.161,0.414,2,1.514,2,2.816   C47,24.319,46.138,25.43,44.953,25.83z M19,16c0-7.168,5.832-13,13-13s13,5.832,13,13v2.101c-0.148-0.03-0.307-0.03-0.46-0.046   l-1.803-2.404c-1.006-1.341-2.835-1.949-4.433-1.492L32,15.96l-6.304-1.801c-1.598-0.458-3.428,0.15-4.434,1.491l-1.803,2.404   c-0.153,0.017-0.311,0.016-0.46,0.046V16z M19,20.184v4.673c0,0.327,0.019,0.651,0.047,0.973C17.862,25.43,17,24.319,17,23   C17,21.698,17.839,20.598,19,20.184z" /></g></svg>
