<svg height='100px' width='100px'  fill="#FFFFFF" xmlns="http://www.w3.org/2000/svg" xmlns:xlink="http://www.w3.org/1999/xlink" version="1.1" x="0px" y="0px" viewBox="0 0 100 100" enable-background="new 0 0 100 100" xml:space="preserve"><g><path fill-rule="evenodd" clip-rule="evenodd" d="M91.58,39.633c0.188-0.109,0.371-0.234,0.548-0.377v19.421   c-0.177-0.144-0.36-0.269-0.548-0.378c-0.583-0.331-1.237-0.497-1.964-0.497c-1.113,0-2.065,0.396-2.854,1.183   c-0.788,0.789-1.184,1.74-1.184,2.854c0,0.96,0.292,1.797,0.875,2.512c0.097,0.12,0.2,0.233,0.309,0.343   c0.063,0.063,0.131,0.125,0.205,0.188H57.545c0.384-0.159,0.76-0.337,1.132-0.53c1.509-0.789,2.914-1.835,4.217-3.138   c3.309-3.302,4.962-7.287,4.962-11.956c0-4.045-1.242-7.577-3.728-10.593c-0.384-0.468-0.794-0.922-1.234-1.362   c-1.383-1.383-2.881-2.478-4.491-3.283c-0.41-0.206-0.832-0.392-1.26-0.558h29.415c-0.155,0.178-0.292,0.363-0.412,0.558   c-0.377,0.611-0.566,1.303-0.566,2.074c0,1.113,0.396,2.065,1.184,2.854c0.788,0.789,1.74,1.183,2.854,1.183   C90.343,40.13,90.997,39.964,91.58,39.633z M90.14,31.062H13.604c-2.926,0-4.388,1.463-4.388,4.388v27.443   c0,2.926,1.462,4.389,4.388,4.389H90.14c2.926,0,4.389-1.463,4.389-4.389V35.45C94.528,32.525,93.065,31.062,90.14,31.062z    M90.132,28.131c4.89,0,7.336,2.442,7.336,7.328v27.443c0,4.892-2.446,7.337-7.336,7.337H13.596c-4.886,0-7.328-2.445-7.328-7.337   V35.458c0-4.885,2.442-7.328,7.328-7.328H90.132z M43.473,34.019c-1.618,0.805-3.117,1.899-4.5,3.283   c-3.303,3.303-4.954,7.287-4.954,11.956c0,2.262,0.388,4.365,1.165,6.307c0.823,2.063,2.086,3.946,3.789,5.648   c1.302,1.303,2.711,2.349,4.226,3.138c0.371,0.193,0.748,0.371,1.131,0.53H16.912c0.069-0.063,0.135-0.125,0.197-0.188   c0.108-0.109,0.211-0.223,0.309-0.343c0.583-0.715,0.874-1.552,0.874-2.512c0-1.114-0.394-2.065-1.183-2.854   c-0.788-0.787-1.74-1.183-2.854-1.183c-0.783,0-1.483,0.194-2.1,0.583c-0.188,0.115-0.369,0.248-0.54,0.402V39.315   c0.171,0.149,0.352,0.283,0.54,0.403c0.617,0.382,1.317,0.574,2.1,0.574c1.114,0,2.066-0.394,2.854-1.183   c0.789-0.788,1.183-1.74,1.183-2.854c0-0.84-0.223-1.586-0.668-2.237c-0.131-0.195-0.283-0.38-0.455-0.558h27.563   C44.304,33.627,43.883,33.813,43.473,34.019z"></path><path fill-rule="evenodd" clip-rule="evenodd" d="M52.969,52.034c-0.28-0.28-0.754-0.536-1.422-0.771v3.864   c0.64-0.193,1.104-0.457,1.396-0.787c0.291-0.327,0.438-0.727,0.438-1.201C53.386,52.694,53.249,52.325,52.969,52.034z    M49.224,45.795c0.114,0.08,0.24,0.148,0.377,0.206c0.131,0.057,0.348,0.145,0.65,0.265v-3.068   c-0.485,0.125-0.862,0.323-1.131,0.591c-0.28,0.292-0.42,0.618-0.42,0.978c0,0.205,0.043,0.394,0.128,0.565   C48.926,45.515,49.058,45.669,49.224,45.795z M44.552,42.649c0.377-0.816,0.926-1.516,1.646-2.099   c0.36-0.292,0.713-0.532,1.063-0.72c0.354-0.195,0.766-0.355,1.234-0.48c0.463-0.126,1.04-0.244,1.732-0.352v-1.757   c0.005-0.178,0.071-0.329,0.197-0.455c0.125-0.115,0.276-0.177,0.454-0.189c0.171,0.012,0.325,0.08,0.462,0.206   c0.127,0.126,0.195,0.286,0.207,0.48v1.654c1.668,0.12,2.947,0.434,3.839,0.942c0.897,0.509,1.352,1.183,1.362,2.023   c-0.017,0.588-0.211,1.083-0.582,1.482c-0.365,0.388-0.846,0.591-1.44,0.608c-0.172,0-0.36-0.023-0.564-0.068   c-0.212-0.058-0.499-0.154-0.857-0.292c-0.418-0.148-0.737-0.251-0.96-0.308c-0.234-0.068-0.5-0.12-0.797-0.154v3.471   c0.805,0.263,1.454,0.474,1.944,0.634c0.486,0.166,0.883,0.324,1.192,0.472c0.319,0.143,0.631,0.311,0.934,0.506   c0.8,0.497,1.408,1.143,1.825,1.937c0.44,0.795,0.66,1.686,0.66,2.675c-0.012,0.959-0.209,1.859-0.591,2.698   c-0.012,0.018-0.021,0.032-0.025,0.043c-0.406,0.847-0.979,1.578-1.715,2.194c-0.366,0.303-0.734,0.551-1.105,0.747   c-0.378,0.199-0.812,0.368-1.303,0.505c-0.497,0.137-1.104,0.257-1.816,0.359v1.56c0,0.225-0.049,0.401-0.146,0.532   c-0.097,0.137-0.223,0.211-0.377,0.223c-0.223-0.012-0.409-0.086-0.558-0.223c-0.131-0.131-0.203-0.308-0.214-0.532v-1.516   c-0.749-0.047-1.359-0.104-1.833-0.172c-0.577-0.08-1.157-0.212-1.74-0.395c-0.595-0.199-1.118-0.432-1.569-0.693   c-0.4-0.252-0.699-0.544-0.899-0.875c-0.207-0.332-0.308-0.714-0.308-1.148c0.004-0.218,0.033-0.42,0.085-0.609   c0.085-0.331,0.24-0.622,0.463-0.873c0.36-0.395,0.811-0.604,1.354-0.626c0.155,0,0.3,0.012,0.437,0.034   c0.137,0.028,0.32,0.077,0.549,0.145c0.234,0.075,0.569,0.19,1.002,0.345c0.332,0.126,0.615,0.228,0.849,0.308   c0.252,0.074,0.497,0.138,0.737,0.188c0.246,0.046,0.537,0.087,0.874,0.12v-4.379c-0.182-0.047-0.342-0.088-0.479-0.129   c-0.138-0.041-0.235-0.074-0.292-0.104c-0.348-0.086-0.64-0.168-0.875-0.248c-0.24-0.068-0.428-0.12-0.565-0.154   c-0.354-0.12-0.704-0.257-1.046-0.411c-0.326-0.143-0.648-0.323-0.969-0.54c-0.651-0.417-1.15-0.977-1.5-1.68   c-0.359-0.697-0.542-1.477-0.548-2.339C43.984,44.307,44.175,43.449,44.552,42.649z"></path></g></svg>