<?xml version="1.0" encoding="UTF-8" standalone="no"?>
<svg
   xmlns:dc="http://purl.org/dc/elements/1.1/"
   xmlns:cc="http://creativecommons.org/ns#"
   xmlns:rdf="http://www.w3.org/1999/02/22-rdf-syntax-ns#"
   xmlns:svg="http://www.w3.org/2000/svg"
   xmlns="http://www.w3.org/2000/svg"
   xmlns:sodipodi="http://sodipodi.sourceforge.net/DTD/sodipodi-0.dtd"
   xmlns:inkscape="http://www.inkscape.org/namespaces/inkscape"
   inkscape:version="1.0beta2 (2b71d25, 2019-12-03)"
   sodipodi:docname="noun_Energy_2895090.svg"
   id="svg8115"
   version="1.1"
   y="0px"
   x="0px"
   viewBox="0 0 121.19106 164.65654"
   data-name="Слой 3"
   fill="#FFFFFF"
   width="100px"
   height="100px">
  <metadata
     id="metadata8121">
    <rdf:RDF>
      <cc:Work
         rdf:about="">
        <dc:format>image/svg+xml</dc:format>
        <dc:type
           rdf:resource="http://purl.org/dc/dcmitype/StillImage" />
        <dc:title>104</dc:title>
      </cc:Work>
    </rdf:RDF>
  </metadata>
  <defs
     id="defs8119" />
  <sodipodi:namedview
     inkscape:current-layer="svg8115"
     inkscape:window-maximized="0"
     inkscape:window-y="23"
     inkscape:window-x="0"
     inkscape:cy="50"
     inkscape:cx="4.2279412"
     inkscape:zoom="2.72"
     inkscape:pagecheckerboard="true"
     showgrid="false"
     id="namedview8117"
     inkscape:window-height="862"
     inkscape:window-width="1536"
     inkscape:pageshadow="2"
     inkscape:pageopacity="0"
     guidetolerance="10"
     gridtolerance="10"
     objecttolerance="10"
     borderopacity="1"
     inkscape:document-rotation="0"
     bordercolor="#666666"
     pagecolor="#ffffff" />
  <title
     id="title8111">104</title>
  <path
     inkscape:export-ydpi="245.21867"
     inkscape:export-xdpi="245.21867"
     inkscape:export-filename="/Users/Jonas/Transidious/Assets/Resources/Sprites/ui_energy.png"
     id="path8113"
     transform="translate(-89.40447 -67.67173)"
     d="M209.14652,143.2376,158.06989,138.699a1.58727,1.58727,0,0,1-1.36917-2.07131l21.71616-66.86947a1.58727,1.58727,0,0,0-2.632-1.61265l-85.91326,85.912a1.58727,1.58727,0,0,0,.98188,2.70342l51.07661,4.53856a1.58726,1.58726,0,0,1,1.36918,2.07128l-21.71506,66.87086a1.58727,1.58727,0,0,0,2.63205,1.6126L210.12841,145.941A1.58727,1.58727,0,0,0,209.14652,143.2376Z" />
</svg>
