<?xml version="1.0" encoding="UTF-8" standalone="no"?>
<svg
   xmlns:dc="http://purl.org/dc/elements/1.1/"
   xmlns:cc="http://creativecommons.org/ns#"
   xmlns:rdf="http://www.w3.org/1999/02/22-rdf-syntax-ns#"
   xmlns:svg="http://www.w3.org/2000/svg"
   xmlns="http://www.w3.org/2000/svg"
   xmlns:sodipodi="http://sodipodi.sourceforge.net/DTD/sodipodi-0.dtd"
   xmlns:inkscape="http://www.inkscape.org/namespaces/inkscape"
   inkscape:version="1.0beta2 (2b71d25, 2019-12-03)"
   sodipodi:docname="noun_Doctor_1469978.svg"
   id="svg13893"
   xml:space="preserve"
   style="enable-background:new 0 0 64 64;"
   viewBox="0 0 64 64"
   y="0px"
   x="0px"
   version="1.1"
   fill="#FFFFFF"
   width="100px"
   height="100px"><metadata
     id="metadata13899"><rdf:RDF><cc:Work
         rdf:about=""><dc:format>image/svg+xml</dc:format><dc:type
           rdf:resource="http://purl.org/dc/dcmitype/StillImage" /><dc:title></dc:title></cc:Work></rdf:RDF></metadata><defs
     id="defs13897" /><sodipodi:namedview
     inkscape:current-layer="svg13893"
     inkscape:window-maximized="0"
     inkscape:window-y="23"
     inkscape:window-x="0"
     inkscape:cy="50"
     inkscape:cx="4.2279412"
     inkscape:zoom="2.72"
     inkscape:pagecheckerboard="true"
     showgrid="false"
     id="namedview13895"
     inkscape:window-height="862"
     inkscape:window-width="1536"
     inkscape:pageshadow="2"
     inkscape:pageopacity="0"
     guidetolerance="10"
     gridtolerance="10"
     objecttolerance="10"
     borderopacity="1"
     inkscape:document-rotation="0"
     bordercolor="#666666"
     pagecolor="#ffffff" /><g
     inkscape:export-ydpi="253.16972"
     inkscape:export-xdpi="253.16972"
     inkscape:export-filename="/Users/Jonas/Transidious/Assets/Resources/Sprites/occupation_doctor.png"
     id="g13891"><path
       id="path13887"
       d="M56.977,49.774c-0.672-4.029-3.497-7.335-7.372-8.627L41,38.279V37h-2v1.878l-1.492,5.969L33.469,40h-2.938l-4.039,4.847   L25,38.878V37h-2v1.279l-8.604,2.868c-3.875,1.292-6.7,4.598-7.372,8.627L4.819,63h54.361L56.977,49.774z M22,52   c1.103,0,2,0.897,2,2s-0.897,2-2,2s-2-0.897-2-2S20.897,52,22,52z M8.996,50.104c0.55-3.297,2.861-6.001,6.032-7.059L21,41.054   v9.088c-1.721,0.447-3,2-3,3.858c0,2.206,1.794,4,4,4s4-1.794,4-4c0-1.858-1.279-3.411-3-3.858v-9.755l0.292-0.097l2.216,8.863   L31.469,42h1.062l5.961,7.153l2.216-8.863L41,40.387v7.994l-3.789,1.895C35.848,50.958,35,52.329,35,53.854V55c0,2.206,1.794,4,4,4   h1v-2h-1c-1.103,0-2-0.897-2-2v-1.146c0-0.762,0.424-1.448,1.105-1.789L42,50.118l3.895,1.947C46.576,52.406,47,53.092,47,53.854   V55c0,1.103-0.897,2-2,2h-1v2h1c0.996,0,1.896-0.379,2.597-0.983L47.895,61H33V45h-2v16H16.105l0.89-8.9l-1.99-0.199l-0.91,9.1   H7.181L8.996,50.104z M49.905,61l-0.91-9.1l-0.484,0.048c-0.383-0.706-0.97-1.296-1.722-1.672L43,48.382v-7.328l5.972,1.991   c3.171,1.057,5.482,3.762,6.032,7.059L56.819,61H49.905z" /><path
       id="path13889"
       d="M19.442,27.944c0.51,1.755,1.452,3.364,2.78,4.692l3.899,3.9C27.065,37.48,28.321,38,29.657,38h4.686   c1.336,0,2.592-0.52,3.536-1.464l3.899-3.9c1.328-1.328,2.269-2.938,2.78-4.692C47.05,27.662,49,25.566,49,23   c0-1.641-0.806-3.088-2.031-4H47v-3c0-8.271-6.729-15-15-15S17,7.729,17,16v3h0.031C15.806,19.912,15,21.359,15,23   C15,25.566,16.95,27.662,19.442,27.944z M40.364,31.222l-3.899,3.9C35.898,35.688,35.145,36,34.343,36h-4.686   c-0.802,0-1.556-0.312-2.122-0.878l-3.899-3.9c-1.699-1.7-2.636-3.96-2.636-6.364V20h7.395c2.338,0,4.607-0.626,6.605-1.818   C36.998,19.374,39.268,20,41.605,20H43v4.858C43,27.262,42.063,29.522,40.364,31.222z M44.953,25.83   C44.981,25.509,45,25.185,45,24.858v-4.674c1.161,0.414,2,1.514,2,2.816C47,24.319,46.138,25.43,44.953,25.83z M19,16   c0-7.168,5.832-13,13-13s13,5.832,13,13v2.101C44.677,18.035,44.342,18,44,18h-2.395c-2.161,0-4.253-0.633-6.051-1.832L35,15.798   l-0.555,0.37C32.647,17.367,30.556,18,28.395,18H20c-0.342,0-0.677,0.035-1,0.101V16z M19,20.184v4.674   c0,0.327,0.019,0.651,0.047,0.973C17.862,25.43,17,24.319,17,23C17,21.698,17.839,20.598,19,20.184z" /></g></svg>
