<?xml version="1.0" encoding="UTF-8" standalone="no"?>
<svg
   xmlns:dc="http://purl.org/dc/elements/1.1/"
   xmlns:cc="http://creativecommons.org/ns#"
   xmlns:rdf="http://www.w3.org/1999/02/22-rdf-syntax-ns#"
   xmlns:svg="http://www.w3.org/2000/svg"
   xmlns="http://www.w3.org/2000/svg"
   xmlns:sodipodi="http://sodipodi.sourceforge.net/DTD/sodipodi-0.dtd"
   xmlns:inkscape="http://www.inkscape.org/namespaces/inkscape"
   inkscape:version="1.0beta2 (2b71d25, 2019-12-03)"
   sodipodi:docname="noun_Factory_10948.svg"
   id="svg855"
   xml:space="preserve"
   enable-background="new 0 0 33 36.643"
   viewBox="0 0 33 36.643"
   y="0px"
   x="0px"
   version="1.1"
   fill="#FFFFFF"
   width="100px"
   height="100px"><metadata
     id="metadata861"><rdf:RDF><cc:Work
         rdf:about=""><dc:format>image/svg+xml</dc:format><dc:type
           rdf:resource="http://purl.org/dc/dcmitype/StillImage" /><dc:title></dc:title></cc:Work></rdf:RDF></metadata><defs
     id="defs859" /><sodipodi:namedview
     inkscape:current-layer="svg855"
     inkscape:window-maximized="0"
     inkscape:window-y="23"
     inkscape:window-x="0"
     inkscape:cy="50"
     inkscape:cx="4.2279412"
     inkscape:zoom="2.72"
     inkscape:pagecheckerboard="true"
     showgrid="false"
     id="namedview857"
     inkscape:window-height="862"
     inkscape:window-width="1536"
     inkscape:pageshadow="2"
     inkscape:pageopacity="0"
     guidetolerance="10"
     gridtolerance="10"
     objecttolerance="10"
     borderopacity="1"
     inkscape:document-rotation="0"
     bordercolor="#666666"
     pagecolor="#ffffff" /><g
     inkscape:export-ydpi="246.22604"
     inkscape:export-xdpi="246.22604"
     inkscape:export-filename="/Users/Jonas/Transidious/Assets/Resources/Sprites/factory.png"
     id="g3157"><path
       d="M22.08,22.612v-6l-9,6h-1v-9h-4v9h-2v-9h-4v9h-2v14h31v-20L22.08,22.612z M9.08,32.612h-5v-5h5V32.612z M19.08,32.612h-5v-5  h5V32.612z"
       id="path851" /><path
       d="M33.082,4.615c0,6.076-16.658,9.501-19.341,4.99  c-0.844,1.793-3.082,2.531-4.817,1.594c-2.877-1.556-0.732,0.416-3.843,0.416c-2.627,0-3.982-3.264-2.123-5.123  c2.106-2.105,3.359,0.262,5.69-1.294c3.355-2.239,2.605,1.253,6.01-1.665c2.013-1.726,3.877-0.348,6.036-1.459  C24.088,0.326,33.082-2.625,33.082,4.615z"
       id="path853" /></g></svg>
