<?xml version="1.0" encoding="UTF-8" standalone="no"?>
<svg
   xmlns:dc="http://purl.org/dc/elements/1.1/"
   xmlns:cc="http://creativecommons.org/ns#"
   xmlns:rdf="http://www.w3.org/1999/02/22-rdf-syntax-ns#"
   xmlns:svg="http://www.w3.org/2000/svg"
   xmlns="http://www.w3.org/2000/svg"
   xmlns:sodipodi="http://sodipodi.sourceforge.net/DTD/sodipodi-0.dtd"
   xmlns:inkscape="http://www.inkscape.org/namespaces/inkscape"
   inkscape:version="1.0beta2 (2b71d25, 2019-12-03)"
   sodipodi:docname="noun_Scientist_1469988.svg"
   id="svg16201"
   xml:space="preserve"
   style="enable-background:new 0 0 64 64;"
   viewBox="0 0 64 64"
   y="0px"
   x="0px"
   version="1.1"
   fill="#FFFFFF"
   width="100px"
   height="100px"><metadata
     id="metadata16207"><rdf:RDF><cc:Work
         rdf:about=""><dc:format>image/svg+xml</dc:format><dc:type
           rdf:resource="http://purl.org/dc/dcmitype/StillImage" /><dc:title></dc:title></cc:Work></rdf:RDF></metadata><defs
     id="defs16205" /><sodipodi:namedview
     inkscape:current-layer="svg16201"
     inkscape:window-maximized="0"
     inkscape:window-y="23"
     inkscape:window-x="0"
     inkscape:cy="50"
     inkscape:cx="4.2279412"
     inkscape:zoom="2.72"
     inkscape:pagecheckerboard="true"
     showgrid="false"
     id="namedview16203"
     inkscape:window-height="862"
     inkscape:window-width="1536"
     inkscape:pageshadow="2"
     inkscape:pageopacity="0"
     guidetolerance="10"
     gridtolerance="10"
     objecttolerance="10"
     borderopacity="1"
     inkscape:document-rotation="0"
     bordercolor="#666666"
     pagecolor="#ffffff" /><g
     inkscape:export-ydpi="253.16507"
     inkscape:export-xdpi="253.16507"
     inkscape:export-filename="/Users/Jonas/Transidious/Assets/Resources/Sprites/occupation_scientist2.png"
     id="g16199"><path
       id="path16195"
       d="M56.976,49.774c-0.671-4.029-3.496-7.335-7.372-8.627L41,38.279V37h-2v1.446l-7,4.374l-7-4.374V37h-2v1.279l-8.604,2.868   c-3.875,1.292-6.7,4.598-7.372,8.627L4.819,63H32h27.181L56.976,49.774z M8.997,50.103c0.549-3.296,2.861-6.001,6.032-7.059   l4.56-1.52l-1.696,6.782l3.787,3.787l-2.904,3.872L22.132,61h-6.026l0.89-8.9l-1.99-0.199l-0.91,9.1H7.181L8.997,50.103z    M29.811,61l-3.833-18.206l-1.957,0.412L27.768,61h-3.232l-3.311-4.966l3.096-4.128l-4.213-4.213l1.73-6.919l2.033-0.677L32,45.18   l8.13-5.082l2.033,0.677l1.73,6.919l-4.213,4.213l3.096,4.128L39.465,61h-3.232l3.746-17.794l-1.957-0.412L34.189,61H32H29.811z    M49.905,61l-0.91-9.1l-1.99,0.199l0.89,8.9h-6.026l3.356-5.034l-2.904-3.872l3.787-3.787l-1.696-6.782l4.56,1.52   c3.171,1.058,5.482,3.763,6.032,7.059L56.819,61H49.905z" /><path
       id="path16197"
       d="M19.442,27.944c0.51,1.755,1.452,3.364,2.78,4.692l3.9,3.899c0.944,0.944,2.2,1.465,3.535,1.465h4.687   c1.335,0,2.591-0.521,3.535-1.465l3.9-3.899c1.328-1.328,2.27-2.937,2.78-4.692C47.05,27.662,49,25.566,49,23   c0-1.641-0.806-3.088-2.031-4H47v-3c0-8.271-6.729-15-15-15S17,7.729,17,16v3h0.031C15.806,19.912,15,21.359,15,23   C15,25.566,16.95,27.662,19.442,27.944z M42.641,20H43v4.857c0,0.063-0.008,0.125-0.009,0.188C42.966,25.575,42.535,26,42,26h-5.93   c-0.335,0-0.646-0.166-0.832-0.445l-0.852-1.277C33.853,23.478,32.961,23,32,23c-0.961,0-1.854,0.478-2.386,1.277l-0.852,1.277   C28.576,25.834,28.265,26,27.93,26H22c-0.535,0-0.966-0.425-0.991-0.955C21.008,24.982,21,24.921,21,24.857V20H42.641z M33.414,18   l1.332-1.332c0.936-0.935,2.645-0.813,3.438,0.244L39,18H33.414z M40.364,31.222l-3.9,3.899C35.906,35.68,35.133,36,34.343,36   h-4.687c-0.79,0-1.562-0.32-2.121-0.879l-3.9-3.899c-0.94-0.94-1.636-2.055-2.08-3.267C21.702,27.977,21.848,28,22,28h5.93   c1.005,0,1.938-0.499,2.496-1.336l0.852-1.277c0.323-0.484,1.122-0.484,1.445,0l0.852,1.277C34.132,27.501,35.065,28,36.07,28H42   c0.152,0,0.298-0.023,0.444-0.045C42,29.167,41.304,30.282,40.364,31.222z M44.953,25.83c0.02-0.231,0.028-0.464,0.034-0.698   C44.989,25.088,45,25.045,45,25h-0.007C44.994,24.952,45,24.905,45,24.857v-4.673c1.161,0.414,2,1.514,2,2.816   C47,24.319,46.138,25.43,44.953,25.83z M32,3c7.168,0,13,5.832,13,13v2h-1h-1.359c-0.714,0-1.396-0.341-1.825-0.912l-1.031-1.375   C38.98,14.641,37.7,14,36.359,14c-1.144,0-2.219,0.445-3.027,1.254l-2.078,2.078C30.823,17.763,30.25,18,29.641,18H19v-2   C19,8.832,24.832,3,32,3z M19,20.184v4.673c0,0.048,0.006,0.095,0.007,0.143H19c0,0.045,0.011,0.088,0.013,0.133   c0.006,0.234,0.014,0.467,0.034,0.698C17.862,25.43,17,24.319,17,23C17,21.698,17.839,20.598,19,20.184z" /></g></svg>
