<?xml version="1.0" encoding="UTF-8" standalone="no"?>
<svg
   xmlns:dc="http://purl.org/dc/elements/1.1/"
   xmlns:cc="http://creativecommons.org/ns#"
   xmlns:rdf="http://www.w3.org/1999/02/22-rdf-syntax-ns#"
   xmlns:svg="http://www.w3.org/2000/svg"
   xmlns="http://www.w3.org/2000/svg"
   xmlns:sodipodi="http://sodipodi.sourceforge.net/DTD/sodipodi-0.dtd"
   xmlns:inkscape="http://www.inkscape.org/namespaces/inkscape"
   inkscape:version="1.0beta2 (2b71d25, 2019-12-03)"
   sodipodi:docname="noun_Home_879185.svg"
   id="svg2009"
   version="1.1"
   y="0px"
   x="0px"
   viewBox="0 0 512 512"
   data-name="Layer 1"
   fill="#FFFFFF"
   width="100px"
   height="100px">
  <metadata
     id="metadata2015">
    <rdf:RDF>
      <cc:Work
         rdf:about="">
        <dc:format>image/svg+xml</dc:format>
        <dc:type
           rdf:resource="http://purl.org/dc/dcmitype/StillImage" />
        <dc:title>h5</dc:title>
      </cc:Work>
    </rdf:RDF>
  </metadata>
  <defs
     id="defs2013" />
  <sodipodi:namedview
     inkscape:current-layer="svg2009"
     inkscape:window-maximized="0"
     inkscape:window-y="23"
     inkscape:window-x="0"
     inkscape:cy="50"
     inkscape:cx="4.2279412"
     inkscape:zoom="2.72"
     inkscape:pagecheckerboard="true"
     showgrid="false"
     id="namedview2011"
     inkscape:window-height="862"
     inkscape:window-width="1536"
     inkscape:pageshadow="2"
     inkscape:pageopacity="0"
     guidetolerance="10"
     gridtolerance="10"
     objecttolerance="10"
     borderopacity="1"
     inkscape:document-rotation="0"
     bordercolor="#666666"
     pagecolor="#ffffff" />
  <title
     id="title2003">h5</title>
  <g
     inkscape:export-ydpi="245.31201"
     inkscape:export-xdpi="245.31201"
     inkscape:export-filename="/Users/Jonas/Transidious/Assets/Resources/Sprites/home.png"
     id="g3153">
    <path
       d="M511.7,206.8c0.26-9.7-3.69-17.31-11.21-23.28Q396.73,101.11,293,18.68C269.35,0,242.48-.2,219,18.43Q114.87,100.85,11,183.57c-5,4-9.59,8.74-10.09,15.12-0.8,10.42-1.63,21.14-.09,31.37,2,13.31,14.25,21,28,19.69,12.64-1.17,22.38-11.95,22.6-26,0.08-4.88,1.8-7.72,5.48-10.63q90.07-71.33,180-142.91c13.31-10.58,24.53-10.55,37.87.05q89.54,71.19,179.16,142.27c4,3.2,6.14,6.32,6.27,11.83,0.32,13.77,10.16,24.25,22.63,25.36C496.54,251,508,243.18,511,230c1.07-4.82.74-9.94,1-14.91l-0.31,0C511.69,212.32,511.62,209.56,511.7,206.8Z"
       id="path2005" />
    <path
       d="M65.34,487a20.49,20.49,0,0,0,20.49,20.48H425.65A20.48,20.48,0,0,0,446.13,487V361.55q0-58.28.06-116.57c0-10.63-3.92-18.72-12.2-25.47Q354.51,154.81,275.31,89.78c-14.25-11.68-24.87-11.64-39.21.1Q157,154.65,77.82,219.29c-8.61,7-12.53,15.37-12.47,26.38,0,3.82,0,7.65,0,11.47,0,0.27-.05.53-0.05,0.8V487ZM265.43,284.82h59.43A11.18,11.18,0,0,1,336,296v59.43H265.43V284.82Zm0,89.43H336v59.43a11.18,11.18,0,0,1-11.14,11.14H265.43V374.25ZM176,296a11.18,11.18,0,0,1,11.14-11.14h59.43v70.57H176V296Zm0,78.29h70.57v70.57H187.14A11.18,11.18,0,0,1,176,433.68V374.25Z"
       id="path2007"
       inkscape:export-filename="/Users/Jonas/Transidious/Assets/Resources/Sprites/home.png"
       inkscape:export-xdpi="295.51334"
       inkscape:export-ydpi="295.51334" />
  </g>
</svg>
