<?xml version="1.0" encoding="UTF-8" standalone="no"?>
<svg
   xmlns:dc="http://purl.org/dc/elements/1.1/"
   xmlns:cc="http://creativecommons.org/ns#"
   xmlns:rdf="http://www.w3.org/1999/02/22-rdf-syntax-ns#"
   xmlns:svg="http://www.w3.org/2000/svg"
   xmlns="http://www.w3.org/2000/svg"
   xmlns:sodipodi="http://sodipodi.sourceforge.net/DTD/sodipodi-0.dtd"
   xmlns:inkscape="http://www.inkscape.org/namespaces/inkscape"
   inkscape:version="1.0beta2 (2b71d25, 2019-12-03)"
   sodipodi:docname="noun_Calendar_697507.svg"
   id="svg23143"
   viewBox="0 0 100 100"
   y="0px"
   x="0px"
   version="1.1"
   fill="#FFFFFF"
   width="100px"
   height="100px">
  <metadata
     id="metadata23149">
    <rdf:RDF>
      <cc:Work
         rdf:about="">
        <dc:format>image/svg+xml</dc:format>
        <dc:type
           rdf:resource="http://purl.org/dc/dcmitype/StillImage" />
        <dc:title></dc:title>
      </cc:Work>
    </rdf:RDF>
  </metadata>
  <defs
     id="defs23147" />
  <sodipodi:namedview
     inkscape:current-layer="svg23143"
     inkscape:window-maximized="0"
     inkscape:window-y="23"
     inkscape:window-x="0"
     inkscape:cy="50"
     inkscape:cx="4.2279412"
     inkscape:zoom="2.72"
     inkscape:pagecheckerboard="true"
     showgrid="false"
     id="namedview23145"
     inkscape:window-height="862"
     inkscape:window-width="1536"
     inkscape:pageshadow="2"
     inkscape:pageopacity="0"
     guidetolerance="10"
     gridtolerance="10"
     objecttolerance="10"
     borderopacity="1"
     inkscape:document-rotation="0"
     bordercolor="#666666"
     pagecolor="#ffffff" />
  <g
     inkscape:export-ydpi="278.85715"
     inkscape:export-xdpi="278.85715"
     inkscape:export-filename="/Users/Jonas/Transidious/Assets/Resources/Sprites/ui_calendar.png"
     id="g23141"
     transform="translate(0,-952.36218)">
    <path
       id="path23139"
       overflow="visible"
       display="inline"
       visibility="visible"
       marker="none"
       stroke="none"
       fill-opacity="1"
       fill="#FFFFFF"
       d="m 30.031199,958.36218 c -1.104501,0 -2,0.8954 -2,2 l 0,11 c 0,1.1045 0.895499,2 2,2 1.104599,0 2,-0.8955 2,-2 l 0,-11 c 0,-1.1046 -0.895401,-2 -2,-2 z m 39.999999,0 c -1.1045,0 -2,0.8954 -2,2 l 0,11 c 0,1.1045 0.8955,2 2,2 1.1046,0 2,-0.8955 2,-2 l 0,-11 c 0,-1.1046 -0.8954,-2 -2,-2 z m -54,8 c -4.4455,0 -8.0311995,3.5854 -8.0311995,8.0312 l 0,17.9688 84.0000025,0 0,-17.9688 c 0,-4.4458 -3.5858,-8.0312 -8.031199,-8.0312 l -5.968801,0 -3.968802,0 0,7.0937 c 2.385703,1.39 4.000003,3.9651 4.000003,6.9063 0,4.3946 -3.605003,8 -8.000003,8 -4.3943,0 -8,-3.6054 -8,-8 0,-2.9412 1.6146,-5.5163 4,-6.9063 l 0,-7.0937 -32.0312,0 0,7.0625 c 2.4061,1.3846 4.0312,3.981 4.0312,6.9375 0,4.3946 -3.605,8 -8,8 -4.3943,0 -8,-3.6054 -8,-8 0,-2.9317 1.5958,-5.5131 3.9688,-6.9063 l 0,-7.0937 z m 14,10 c -2.2324,0 -4,1.7671 -4,4 0,2.2328 1.7676,4 4,4 2.2328,0 4,-1.7672 4,-4 0,-2.2329 -1.7672,-4 -4,-4 z m 40,0 c -2.232399,0 -4,1.7671 -4,4 0,2.2328 1.767601,4 4,4 2.2328,0 4,-1.7672 4,-4 0,-2.2329 -1.7672,-4 -4,-4 z m -62.0311995,20 0,41.96872 c 0,4.4458 3.5855995,8.0313 8.0311995,8.0313 l 67.937603,0 c 4.4454,0 8.0312,-3.5855 8.0312,-8.0313 l 0,-41.96872 z"
       style="text-indent:0;text-transform:none;direction:ltr;block-progression:tb;baseline-shift:baseline;color:#000000;enable-background:accumulate;" />
  </g>
</svg>
