<?xml version="1.0" encoding="UTF-8" standalone="no"?>
<svg
   xmlns:i="http://ns.adobe.com/AdobeIllustrator/10.0/"
   xmlns:dc="http://purl.org/dc/elements/1.1/"
   xmlns:cc="http://creativecommons.org/ns#"
   xmlns:rdf="http://www.w3.org/1999/02/22-rdf-syntax-ns#"
   xmlns:svg="http://www.w3.org/2000/svg"
   xmlns="http://www.w3.org/2000/svg"
   xmlns:sodipodi="http://sodipodi.sourceforge.net/DTD/sodipodi-0.dtd"
   xmlns:inkscape="http://www.inkscape.org/namespaces/inkscape"
   inkscape:version="1.0beta2 (2b71d25, 2019-12-03)"
   sodipodi:docname="noun_grandmother_108043.svg"
   id="svg19669"
   xml:space="preserve"
   enable-background="new 0 0 90 90"
   viewBox="0 0 90 90"
   y="0px"
   x="0px"
   version="1.1"
   fill="#FFFFFF"
   width="100px"
   height="100px"><metadata
     id="metadata19675"><rdf:RDF><cc:Work
         rdf:about=""><dc:format>image/svg+xml</dc:format><dc:type
           rdf:resource="http://purl.org/dc/dcmitype/StillImage" /><dc:title></dc:title></cc:Work></rdf:RDF></metadata><defs
     id="defs19673" /><sodipodi:namedview
     inkscape:current-layer="svg19669"
     inkscape:window-maximized="0"
     inkscape:window-y="23"
     inkscape:window-x="0"
     inkscape:cy="50"
     inkscape:cx="4.2279412"
     inkscape:zoom="2.72"
     inkscape:pagecheckerboard="true"
     showgrid="false"
     id="namedview19671"
     inkscape:window-height="862"
     inkscape:window-width="1536"
     inkscape:pageshadow="2"
     inkscape:pageopacity="0"
     guidetolerance="10"
     gridtolerance="10"
     objecttolerance="10"
     borderopacity="1"
     inkscape:document-rotation="0"
     bordercolor="#666666"
     pagecolor="#ffffff" /><g
     inkscape:export-ydpi="259.0614"
     inkscape:export-xdpi="259.0614"
     inkscape:export-filename="/Users/Jonas/Transidious/Assets/Resources/Sprites/occupation_retiree_female.png"
     id="g19667"><g
       id="g19665"
       i:extraneous="self"><g
         id="g19663"><path
           id="path19659"
           d="M35.715,19.467l6.431-1.688c0.595,2.25,2.356,4.058,4.659,4.67c-0.021,4.938,3.732,9.158,8.742,9.618     c5.294,0.484,9.979-3.414,10.466-8.709c0.485-5.294-3.414-9.979-8.709-10.465c-1.021-0.094-2.018-0.021-2.969,0.191     c-0.958-1.852-2.774-3.205-4.977-3.494l-0.612-7.392l-0.811,0.068l0.602,7.263c-3.381-0.022-6.274,2.544-6.588,5.973     c-0.046,0.503-0.028,0.999,0.036,1.479l-6.477,1.699L35.715,19.467z" /><path
           id="path19661"
           d="M64.169,53.319c-0.923-0.76-1.984-1.128-2.95-1.295c-0.384-1.006-1.387-1.993-3.736-2.344     c-3.764-0.564-9.457-6.149-9.391-15.031c-0.389-5.136-2.249-8.681-7.36-8.681c-7.877,0-13.74,7.647-16.599,14.803     c-4.59,11.491-5.029,20.106-1.304,25.607c2.796,4.126,7.431,5.739,11.706,6.267c-0.354,2.793-0.926,5.535-1.292,8.326     c-0.346,2.641,1.105,5.504,2.986,6.171c2.113,0.749,4.16-0.65,4.864-3.484c0.903-3.633,1.428-7.342,1.757-11.085     c2.655-0.325,5.39-0.911,8.002-1.729l0.403-0.127l-0.142-0.398c-1.699-4.751-2.494-9.687-2.501-15.529     c0-0.533-10.014-2.715-8.408-20.185c0.062-0.684,0.336-1.288,0.732-1.766c-0.039,0.351-0.053,0.685-0.031,0.996     c0.044,0.637,0.08,1.277,0.117,1.917c0.122,2.151,0.25,4.375,0.68,6.517c1.52,7.55,6.536,12.704,13.765,14.138l0.328,0.063     c0.201,0.04,0.402,0.079,0.607,0.114c0.362,0.061,0.721,0.092,1.067,0.092c1.245,0,2.278-0.396,2.979-1.067     c0.464,0.064,0.952,0.204,1.326,0.512c0.666,0.55,0.945,1.649,0.828,3.268c-0.001,0.021-0.002,0.039-0.002,0.06v27.087     c0,0.449,0.365,0.813,0.814,0.813h2.093c0.215,0,0.423-0.086,0.575-0.238c0.152-0.153,0.238-0.36,0.238-0.575L66.321,59.55     C66.52,56.758,65.797,54.663,64.169,53.319z" /></g></g></g></svg>
