<?xml version="1.0" encoding="UTF-8" standalone="no"?>
<svg
   xmlns:dc="http://purl.org/dc/elements/1.1/"
   xmlns:cc="http://creativecommons.org/ns#"
   xmlns:rdf="http://www.w3.org/1999/02/22-rdf-syntax-ns#"
   xmlns:svg="http://www.w3.org/2000/svg"
   xmlns="http://www.w3.org/2000/svg"
   xmlns:sodipodi="http://sodipodi.sourceforge.net/DTD/sodipodi-0.dtd"
   xmlns:inkscape="http://www.inkscape.org/namespaces/inkscape"
   inkscape:version="1.0beta2 (2b71d25, 2019-12-03)"
   sodipodi:docname="noun_engineer_1469968.svg"
   id="svg11585"
   xml:space="preserve"
   style="enable-background:new 0 0 64 64;"
   viewBox="0 0 64 64"
   y="0px"
   x="0px"
   version="1.1"
   fill="#FFFFFF"
   width="100px"
   height="100px"><metadata
     id="metadata11591"><rdf:RDF><cc:Work
         rdf:about=""><dc:format>image/svg+xml</dc:format><dc:type
           rdf:resource="http://purl.org/dc/dcmitype/StillImage" /><dc:title></dc:title></cc:Work></rdf:RDF></metadata><defs
     id="defs11589" /><sodipodi:namedview
     inkscape:current-layer="svg11585"
     inkscape:window-maximized="0"
     inkscape:window-y="23"
     inkscape:window-x="0"
     inkscape:cy="50"
     inkscape:cx="4.2279412"
     inkscape:zoom="2.72"
     inkscape:pagecheckerboard="true"
     showgrid="false"
     id="namedview11587"
     inkscape:window-height="862"
     inkscape:window-width="1536"
     inkscape:pageshadow="2"
     inkscape:pageopacity="0"
     guidetolerance="10"
     gridtolerance="10"
     objecttolerance="10"
     borderopacity="1"
     inkscape:document-rotation="0"
     bordercolor="#666666"
     pagecolor="#ffffff" /><g
     inkscape:export-ydpi="253.16507"
     inkscape:export-xdpi="253.16507"
     inkscape:export-filename="/Users/Jonas/Transidious/Assets/Resources/Sprites/occupation_engineer.png"
     id="g11583"><path
       id="path11575"
       d="M56.976,49.774c-0.671-4.029-3.496-7.335-7.372-8.627L41,38.279V37h-2v1.876l-1.493,5.971L33.468,40h-2.937l-4.039,4.847   L25,38.876V37h-2v1.279l-8.604,2.868c-3.875,1.292-6.7,4.598-7.372,8.627L4.819,63H32h27.181L56.976,49.774z M38.493,49.153   l2.216-8.863l8.263,2.755c3.171,1.057,5.482,3.762,6.032,7.059l1.165,6.993l-6.572,0.822L48.995,51.9l-1.99,0.199l0.89,8.9H36.867   l-1.823-12.763l1.193-1.79L38.493,49.153z M15.028,43.045l8.263-2.755l2.216,8.863l2.255-2.706l1.193,1.79L27.133,61H16.105   l0.89-8.9l-1.99-0.199l-0.602,6.017l-6.572-0.822l1.165-6.993C9.546,46.807,11.857,44.102,15.028,43.045z M7.502,59.07l6.702,0.838   L14.095,61H7.181L7.502,59.07z M29.153,61l1.891-13.237l-1.946-2.919L31.468,42h1.063l2.37,2.844l-1.946,2.919L34.847,61H32H29.153   z M49.905,61l-0.109-1.092l6.702-0.838L56.819,61H49.905z" /><path
       id="path11577"
       d="M16.141,19.86C15.439,20.721,15,21.805,15,23c0,2.566,1.95,4.662,4.442,4.944c0.51,1.755,1.452,3.364,2.78,4.692l3.9,3.9   C27.066,37.48,28.321,38,29.657,38h4.687c1.335,0,2.591-0.52,3.535-1.464l3.9-3.9c1.328-1.328,2.27-2.938,2.78-4.692   C47.05,27.662,49,25.566,49,23c0-1.195-0.439-2.279-1.141-3.14C49.093,19.488,50,18.354,50,17c0-1.654-1.346-3-3-3h-0.142   C46.061,8.097,41.753,3.158,36,1.563V1h-8v0.563C22.247,3.158,17.938,8.098,17.142,14H17c-1.654,0-3,1.346-3,3   C14,18.354,14.907,19.488,16.141,19.86z M17,23c0-1.302,0.839-2.402,2-2.816v4.674c0,0.327,0.019,0.651,0.047,0.973   C17.862,25.43,17,24.319,17,23z M40.364,31.222l-3.9,3.9C35.906,35.68,35.133,36,34.343,36h-4.687c-0.79,0-1.562-0.32-2.121-0.878   l-3.9-3.9c-1.7-1.7-2.636-3.96-2.636-6.364V20h22v4.858C43,27.262,42.064,29.522,40.364,31.222z M44.953,25.83   C44.981,25.509,45,25.185,45,24.858v-4.674c1.161,0.414,2,1.514,2,2.816C47,24.319,46.138,25.43,44.953,25.83z M28,3.646V12h2V3h4   v9h2V3.646C40.635,5.149,44.094,9.185,44.846,14H19.154C19.906,9.185,23.365,5.149,28,3.646z M17,16h30c0.551,0,1,0.449,1,1   s-0.449,1-1,1H17c-0.551,0-1-0.449-1-1S16.449,16,17,16z" /><rect
       id="rect11579"
       height="2"
       width="2"
       y="10"
       x="38" /><rect
       id="rect11581"
       height="2"
       width="2"
       y="10"
       x="24" /></g></svg>
