<?xml version="1.0" encoding="UTF-8" standalone="no"?>
<svg
   xmlns:dc="http://purl.org/dc/elements/1.1/"
   xmlns:cc="http://creativecommons.org/ns#"
   xmlns:rdf="http://www.w3.org/1999/02/22-rdf-syntax-ns#"
   xmlns:svg="http://www.w3.org/2000/svg"
   xmlns="http://www.w3.org/2000/svg"
   xmlns:sodipodi="http://sodipodi.sourceforge.net/DTD/sodipodi-0.dtd"
   xmlns:inkscape="http://www.inkscape.org/namespaces/inkscape"
   inkscape:version="1.0beta2 (2b71d25, 2019-12-03)"
   sodipodi:docname="noun_Hammer_3147241.svg"
   id="svg7542"
   xml:space="preserve"
   enable-background="new 0 0 51 51"
   viewBox="0 0 51 51"
   y="0px"
   x="0px"
   version="1.1"
   fill="#FFFFFF"
   width="100px"
   height="100px"><metadata
     id="metadata7548"><rdf:RDF><cc:Work
         rdf:about=""><dc:format>image/svg+xml</dc:format><dc:type
           rdf:resource="http://purl.org/dc/dcmitype/StillImage" /><dc:title></dc:title></cc:Work></rdf:RDF></metadata><defs
     id="defs7546" /><sodipodi:namedview
     inkscape:current-layer="svg7542"
     inkscape:window-maximized="0"
     inkscape:window-y="23"
     inkscape:window-x="0"
     inkscape:cy="50"
     inkscape:cx="4.2279412"
     inkscape:zoom="2.72"
     inkscape:pagecheckerboard="true"
     showgrid="false"
     id="namedview7544"
     inkscape:window-height="862"
     inkscape:window-width="1536"
     inkscape:pageshadow="2"
     inkscape:pageopacity="0"
     guidetolerance="10"
     gridtolerance="10"
     objecttolerance="10"
     borderopacity="1"
     inkscape:document-rotation="0"
     bordercolor="#666666"
     pagecolor="#ffffff" /><g
     inkscape:export-ydpi="298.5705"
     inkscape:export-xdpi="298.5705"
     inkscape:export-filename="/Users/Jonas/Transidious/Assets/Resources/Sprites/ui_hammer.png"
     id="g7540"><g
       id="g7528"><path
         id="path7526"
         d="M45.89159,41.25452l-3.22998,3.21002c-1.02002,1.01001-2.84003,0.78003-4.01001-0.48999L20.81158,24.48457    l4.98999-4.96002c5.46002,4.94,14.97003,13.56,19.60004,17.75C46.68157,38.42457,46.9016,40.25452,45.89159,41.25452z" /></g><g
       id="g7532"><path
         id="path7530"
         d="M13.7116,26.62458c0.77002,0.76996,0.77002,2.01996,0,2.78998l-1.52002,1.51001    c-0.77002,0.76001-2.01001,0.76001-2.77997,0l-4.36005-4.34003c-0.76996-0.77002-0.76996-2.02002,0-2.78998l1.51001-1.51001    c0.77002-0.76001,2.02002-0.76001,2.78003,0l0.37,0.37l1.21997-1.21002l3.65002,3.62l-1.22003,1.21002L13.7116,26.62458z" /></g><g
       id="g7538"><g
         id="g7536"><path
           id="path7534"
           d="M33.34161,8.30457c-4.21002-3.45001-10.29999-3.15002-14.16003,0.69995c-0.17999,0.18005-7.88,7.88-7.88,7.88     c-1,1-0.94,2.57001,0,3.51001l4.36005,4.33002c0.94,0.94,2.47998,0.97998,3.48999-0.01001l6.51001-6.46997     c0.96997-0.97003,0.96997-2.54004,0-3.51001l-0.52002-0.53003c0.67999-3.67999,4.71997-5.96997,7.72998-5.02997     c0.23004,0.07001,0.48004-0.03003,0.59003-0.23999C33.57159,8.72456,33.5216,8.46455,33.34161,8.30457z M23.34161,9.64454     c-0.76001,0.35999-1.45001,0.85999-2.06,1.46002c-0.21317,0.21304-0.52355,0.18647-0.71002,0     c-0.19-0.20001-0.19-0.51001,0-0.71002c0.69-0.67999,1.47003-1.23999,2.33002-1.64996c0.25-0.12,0.54999-0.02002,0.66998,0.22998     S23.5816,9.52454,23.34161,9.64454z" /></g></g></g></svg>
