<?xml version="1.0" encoding="UTF-8" standalone="no"?>
<svg
   xmlns:i="http://ns.adobe.com/AdobeIllustrator/10.0/"
   xmlns:dc="http://purl.org/dc/elements/1.1/"
   xmlns:cc="http://creativecommons.org/ns#"
   xmlns:rdf="http://www.w3.org/1999/02/22-rdf-syntax-ns#"
   xmlns:svg="http://www.w3.org/2000/svg"
   xmlns="http://www.w3.org/2000/svg"
   xmlns:sodipodi="http://sodipodi.sourceforge.net/DTD/sodipodi-0.dtd"
   xmlns:inkscape="http://www.inkscape.org/namespaces/inkscape"
   inkscape:version="1.0beta2 (2b71d25, 2019-12-03)"
   sodipodi:docname="noun_Worker_1995046.svg"
   id="svg22570"
   xml:space="preserve"
   style="enable-background:new 0 0 100 100;"
   viewBox="0 0 100 100"
   y="0px"
   x="0px"
   version="1.1"
   fill="#FFFFFF"
   width="100px"
   height="100px"><metadata
     id="metadata22576"><rdf:RDF><cc:Work
         rdf:about=""><dc:format>image/svg+xml</dc:format><dc:type
           rdf:resource="http://purl.org/dc/dcmitype/StillImage" /><dc:title></dc:title></cc:Work></rdf:RDF></metadata><defs
     id="defs22574" /><sodipodi:namedview
     inkscape:current-layer="svg22570"
     inkscape:window-maximized="0"
     inkscape:window-y="23"
     inkscape:window-x="0"
     inkscape:cy="50"
     inkscape:cx="4.2279412"
     inkscape:zoom="2.72"
     inkscape:pagecheckerboard="true"
     showgrid="false"
     id="namedview22572"
     inkscape:window-height="862"
     inkscape:window-width="1536"
     inkscape:pageshadow="2"
     inkscape:pageopacity="0"
     guidetolerance="10"
     gridtolerance="10"
     objecttolerance="10"
     borderopacity="1"
     inkscape:document-rotation="0"
     bordercolor="#666666"
     pagecolor="#ffffff" /><g
     inkscape:export-ydpi="259.20001"
     inkscape:export-xdpi="259.20001"
     inkscape:export-filename="/Users/Jonas/Transidious/Assets/Resources/Sprites/occupation_generic2.png"
     id="g22568"><g
       id="g22566"
       i:extraneous="self"><g
         id="g22564"><ellipse
           id="ellipse22560"
           ry="23.4"
           rx="20.1"
           cy="25.9"
           cx="50" /><path
           id="path22562"
           d="M75.5,54.1l-10-4.5c-4.4,3.6-9.7,5.8-15.6,5.8c-5.8,0-11.2-2.2-15.6-5.8l-10,4.5C15.6,58.1,10,66.9,10,76.6v11.9     c0,5,4,9,9,9H81c5,0,9-4,9-9V76.6C90,66.9,84.4,58.1,75.5,54.1z M55,85.9l-3.4,4c-0.9,1-2.4,1-3.2,0l-3.4-4     c-0.5-0.5-0.6-1.3-0.4-1.9l3.9-14.6h-0.7c-0.9,0-1.7-0.8-1.7-1.7v-3.5c0-0.9,0.8-1.7,1.7-1.7h4.7c0.9,0,1.7,0.8,1.7,1.7v3.5     c0,0.9-0.8,1.7-1.7,1.7h-0.7l3.9,14.6C55.7,84.6,55.5,85.3,55,85.9z" /></g></g></g></svg>
