<?xml version="1.0" encoding="UTF-8" standalone="no"?>
<svg
   xmlns:dc="http://purl.org/dc/elements/1.1/"
   xmlns:cc="http://creativecommons.org/ns#"
   xmlns:rdf="http://www.w3.org/1999/02/22-rdf-syntax-ns#"
   xmlns:svg="http://www.w3.org/2000/svg"
   xmlns="http://www.w3.org/2000/svg"
   xmlns:sodipodi="http://sodipodi.sourceforge.net/DTD/sodipodi-0.dtd"
   xmlns:inkscape="http://www.inkscape.org/namespaces/inkscape"
   inkscape:version="1.0beta2 (2b71d25, 2019-12-03)"
   sodipodi:docname="noun_retirement_879345.svg"
   id="svg19092"
   version="1.1"
   clip-rule="evenodd"
   fill-rule="evenodd"
   y="0px"
   x="0px"
   viewBox="0 0 6827 6827"
   style="shape-rendering:geometricPrecision;text-rendering:geometricPrecision;image-rendering:optimizeQuality;"
   xml:space="preserve"
   fill="#FFFFFF"
   width="100px"
   height="100px"><metadata
     id="metadata19096"><rdf:RDF><cc:Work
         rdf:about=""><dc:format>image/svg+xml</dc:format><dc:type
           rdf:resource="http://purl.org/dc/dcmitype/StillImage" /><dc:title></dc:title></cc:Work></rdf:RDF></metadata><sodipodi:namedview
     inkscape:current-layer="svg19092"
     inkscape:window-maximized="0"
     inkscape:window-y="23"
     inkscape:window-x="0"
     inkscape:cy="50"
     inkscape:cx="4.2279412"
     inkscape:zoom="2.72"
     inkscape:pagecheckerboard="true"
     showgrid="false"
     id="namedview19094"
     inkscape:window-height="862"
     inkscape:window-width="1536"
     inkscape:pageshadow="2"
     inkscape:pageopacity="0"
     guidetolerance="10"
     gridtolerance="10"
     objecttolerance="10"
     borderopacity="1"
     inkscape:document-rotation="0"
     bordercolor="#666666"
     pagecolor="#ffffff" /><defs
     id="defs19078"><style
       id="style19076"
       type="text/css">
   
    .fil0 {fill:#FFFFFF}
    .fil1 {fill:#FFFFFF;fill-rule:nonzero}
   
  </style></defs><g
     inkscape:export-ydpi="327.43286"
     inkscape:export-xdpi="327.43286"
     inkscape:export-filename="/Users/Jonas/Transidious/Assets/Resources/Sprites/occupation_retiree_male.png"
     id="g19090"><g
       id="g19088"><path
         id="path19080"
         d="M2848 3257l-425 2474c-4,23 -14,43 -35,56 -29,18 -65,10 -96,5 -65,-11 -109,-73 -98,-138l418 -2437c11,-65 73,-109 138,-98 65,11 109,73 98,138z"
         class="fil0" /><path
         id="path19082"
         d="M3388 1844c126,-24 262,0 377,77 1,1 3,2 4,2l0 0 1 1 0 0c790,522 783,1342 776,2293 -4,458 -7,947 81,1445 16,65 5,132 -27,186 -32,56 -86,99 -153,117 -67,18 -135,7 -191,-25 -54,-31 -97,-83 -116,-148 -1,-4 -3,-9 -3,-14l79 -12 -79 12 -190 -1252 -200 912c0,2 -1,5 -2,7l0 0 -92 342c-18,67 -61,121 -117,153 -56,32 -124,43 -191,25 -67,-18 -121,-61 -153,-117 -32,-56 -43,-124 -25,-191l91 -338c1,-2 1,-5 2,-7l76 24 -76 -24c82,-264 188,-782 217,-1293 14,-250 10,-498 -24,-711 288,-165 449,-439 499,-774 23,-91 8,-187 -40,-268 -49,-82 -127,-141 -220,-164 -92,-24 -189,-9 -271,39 -82,49 -141,127 -164,220l-5 21c-30,107 -82,210 -168,280 -52,-65 -86,-142 -101,-222 -24,-128 1,-266 80,-382 79,-116 198,-189 327,-214z"
         class="fil1" /><path
         id="path19084"
         d="M2687 2923c46,-45 109,-72 178,-71l0 0 0 0 2 0c4,0 371,10 493,-466l0 0c17,-67 60,-121 116,-154 55,-33 123,-45 190,-27l0 0c67,17 121,60 154,116 33,55 45,123 27,190l0 0c-64,448 -531,851 -987,844l0 0 0 0 -1 0 -1 0 0 0c-69,-1 -132,-30 -176,-76 -45,-46 -72,-110 -71,-179 1,-69 30,-132 76,-177z"
         class="fil1" /><path
         id="path19086"
         d="M2874 853c148,0 282,60 380,157 97,97 157,231 157,380 0,148 -60,282 -157,380 -97,97 -231,157 -380,157 -148,0 -282,-60 -380,-157 -97,-97 -157,-231 -157,-380 0,-148 60,-282 157,-380 97,-97 231,-157 380,-157z"
         class="fil1" /></g></g></svg>
