<?xml version="1.0" encoding="UTF-8" standalone="no"?>
<svg
   xmlns:i="http://ns.adobe.com/AdobeIllustrator/10.0/"
   xmlns:dc="http://purl.org/dc/elements/1.1/"
   xmlns:cc="http://creativecommons.org/ns#"
   xmlns:rdf="http://www.w3.org/1999/02/22-rdf-syntax-ns#"
   xmlns:svg="http://www.w3.org/2000/svg"
   xmlns="http://www.w3.org/2000/svg"
   xmlns:sodipodi="http://sodipodi.sourceforge.net/DTD/sodipodi-0.dtd"
   xmlns:inkscape="http://www.inkscape.org/namespaces/inkscape"
   inkscape:version="1.0beta2 (2b71d25, 2019-12-03)"
   sodipodi:docname="noun_Percent_3012438.svg"
   id="svg855"
   xml:space="preserve"
   style="enable-background:new 0 0 100 100;"
   viewBox="0 0 100 100"
   y="0px"
   x="0px"
   version="1.1"
   fill="#FFFFFF"
   width="100px"
   height="100px"><metadata
     id="metadata861"><rdf:RDF><cc:Work
         rdf:about=""><dc:format>image/svg+xml</dc:format><dc:type
           rdf:resource="http://purl.org/dc/dcmitype/StillImage" /><dc:title></dc:title></cc:Work></rdf:RDF></metadata><defs
     id="defs859" /><sodipodi:namedview
     inkscape:current-layer="svg855"
     inkscape:window-maximized="0"
     inkscape:window-y="23"
     inkscape:window-x="0"
     inkscape:cy="50"
     inkscape:cx="50"
     inkscape:zoom="6.55"
     inkscape:pagecheckerboard="true"
     showgrid="false"
     id="namedview857"
     inkscape:window-height="862"
     inkscape:window-width="1536"
     inkscape:pageshadow="2"
     inkscape:pageopacity="0"
     guidetolerance="10"
     gridtolerance="10"
     objecttolerance="10"
     borderopacity="1"
     inkscape:document-rotation="0"
     bordercolor="#666666"
     pagecolor="#ffffff" /><g
     id="g853"><g
       id="g851"
       i:extraneous="self"><g
         id="g841"><path
           id="path833"
           d="M5273.1,2400.1v-2c0-2.8-5-4-9.7-4s-9.7,1.3-9.7,4v2c0,1.8,0.7,3.6,2,4.9l5,4.9c0.3,0.3,0.4,0.6,0.4,1v6.4     c0,0.4,0.2,0.7,0.6,0.8l2.9,0.9c0.5,0.1,1-0.2,1-0.8v-7.2c0-0.4,0.2-0.7,0.4-1l5.1-5C5272.4,2403.7,5273.1,2401.9,5273.1,2400.1z      M5263.4,2400c-4.8,0-7.4-1.3-7.5-1.8v0c0.1-0.5,2.7-1.8,7.5-1.8c4.8,0,7.3,1.3,7.5,1.8C5270.7,2398.7,5268.2,2400,5263.4,2400z" /><path
           id="path835"
           d="M5268.4,2410.3c-0.6,0-1,0.4-1,1c0,0.6,0.4,1,1,1h4.3c0.6,0,1-0.4,1-1c0-0.6-0.4-1-1-1H5268.4z" /><path
           id="path837"
           d="M5272.7,2413.7h-4.3c-0.6,0-1,0.4-1,1c0,0.6,0.4,1,1,1h4.3c0.6,0,1-0.4,1-1C5273.7,2414.1,5273.3,2413.7,5272.7,2413.7z" /><path
           id="path839"
           d="M5272.7,2417h-4.3c-0.6,0-1,0.4-1,1c0,0.6,0.4,1,1,1h4.3c0.6,0,1-0.4,1-1C5273.7,2417.5,5273.3,2417,5272.7,2417z" /></g><g
         id="g849"><path
           inkscape:export-ydpi="258.76285"
           inkscape:export-xdpi="258.76285"
           inkscape:export-filename="/Users/Jonas/Transidious/Assets/Resources/Sprites/percent.png"
           id="path843"
           d="M95.6,4.4c-2.5-2.5-6.6-2.5-9.1,0L4.4,86.5c-2.5,2.5-2.5,6.6,0,9.1c1.3,1.3,2.9,1.9,4.5,1.9s3.3-0.6,4.5-1.9l82.1-82.1     C98.1,11,98.1,6.9,95.6,4.4z" /><path
           id="path845"
           d="M23.4,44.3c11.5,0,20.9-9.4,20.9-20.9S34.9,2.5,23.4,2.5S2.5,11.9,2.5,23.4S11.9,44.3,23.4,44.3z M23.4,15.4     c4.4,0,8,3.6,8,8s-3.6,8-8,8s-8-3.6-8-8S19,15.4,23.4,15.4z" /><path
           id="path847"
           d="M76.6,55.7c-11.5,0-20.9,9.4-20.9,20.9s9.4,20.9,20.9,20.9s20.9-9.4,20.9-20.9S88.1,55.7,76.6,55.7z M76.6,84.6     c-4.4,0-8-3.6-8-8c0-4.4,3.6-8,8-8c4.4,0,8,3.6,8,8C84.6,81,81,84.6,76.6,84.6z" /></g></g></g></svg>
