<?xml version="1.0" encoding="UTF-8" standalone="no"?>
<svg
   xmlns:dc="http://purl.org/dc/elements/1.1/"
   xmlns:cc="http://creativecommons.org/ns#"
   xmlns:rdf="http://www.w3.org/1999/02/22-rdf-syntax-ns#"
   xmlns:svg="http://www.w3.org/2000/svg"
   xmlns="http://www.w3.org/2000/svg"
   xmlns:sodipodi="http://sodipodi.sourceforge.net/DTD/sodipodi-0.dtd"
   xmlns:inkscape="http://www.inkscape.org/namespaces/inkscape"
   inkscape:version="1.0beta2 (2b71d25, 2019-12-03)"
   sodipodi:docname="noun_Train_3370187.svg"
   id="svg4467"
   version="1.1"
   y="0px"
   x="0px"
   viewBox="0 0 512 512"
   fill="#FFFFFF"
   width="100px"
   height="100px">
  <metadata
     id="metadata4473">
    <rdf:RDF>
      <cc:Work
         rdf:about="">
        <dc:format>image/svg+xml</dc:format>
        <dc:type
           rdf:resource="http://purl.org/dc/dcmitype/StillImage" />
        <dc:title></dc:title>
      </cc:Work>
    </rdf:RDF>
  </metadata>
  <defs
     id="defs4471" />
  <sodipodi:namedview
     inkscape:current-layer="svg4467"
     inkscape:window-maximized="0"
     inkscape:window-y="23"
     inkscape:window-x="0"
     inkscape:cy="50"
     inkscape:cx="4.2279412"
     inkscape:zoom="2.72"
     inkscape:pagecheckerboard="true"
     showgrid="false"
     id="namedview4469"
     inkscape:window-height="862"
     inkscape:window-width="1536"
     inkscape:pageshadow="2"
     inkscape:pageopacity="0"
     guidetolerance="10"
     gridtolerance="10"
     objecttolerance="10"
     borderopacity="1"
     inkscape:document-rotation="0"
     bordercolor="#666666"
     pagecolor="#ffffff" />
  <path
     inkscape:export-ydpi="281.08801"
     inkscape:export-xdpi="281.08801"
     inkscape:export-filename="/Users/Jonas/Transidious/Assets/Resources/Sprites/ui_train_front.png"
     id="path4465"
     d="M352 32H160c-35.2 0-64 28.8-64 64v232c0 35.2 28.8 64 64 64h192c35.2 0 64-28.8 64-64V96c0-35.2-28.8-64-64-64zM200 56h112c4.4 0 8 3.6 8 8s-3.6 8-8 8H200c-4.4 0-8-3.6-8-8s3.6-8 8-8zm-32 304c-15.5 0-28-12.5-28-28s12.5-28 28-28 28 12.5 28 28-12.5 28-28 28zm176 0c-15.5 0-28-12.5-28-28s12.5-28 28-28 28 12.5 28 28-12.5 28-28 28zm40-152c0 8.8-7.2 16-16 16H144.2c-8.8 0-16.2-7.2-16.2-16v-95.8c0-8.8 7.4-16.2 16.2-16.2H368c8.8 0 16 7.4 16 16.2V208zM393.7 455.9l-50-48c-5.6-5.4-14.4-5.2-19.8.4-5.4 5.6-5.2 14.4.4 19.8l6.1 5.9H181.5l6.1-5.9c5.6-5.4 5.8-14.2.4-19.8-5.4-5.6-14.2-5.8-19.8-.4l-50 48c-5.6 5.4-5.8 14.2-.4 19.8 2.7 2.9 6.4 4.3 10.1 4.3 3.5 0 7-1.3 9.7-3.9l14.7-14.1h207.2l14.7 14.1c2.7 2.6 6.2 3.9 9.7 3.9 3.7 0 7.4-1.4 10.1-4.3 5.5-5.6 5.3-14.4-.3-19.8z" />
</svg>
