<?xml version="1.0" encoding="UTF-8" standalone="no"?>
<svg
   xmlns:dc="http://purl.org/dc/elements/1.1/"
   xmlns:cc="http://creativecommons.org/ns#"
   xmlns:rdf="http://www.w3.org/1999/02/22-rdf-syntax-ns#"
   xmlns:svg="http://www.w3.org/2000/svg"
   xmlns="http://www.w3.org/2000/svg"
   xmlns:sodipodi="http://sodipodi.sourceforge.net/DTD/sodipodi-0.dtd"
   xmlns:inkscape="http://www.inkscape.org/namespaces/inkscape"
   inkscape:version="1.0beta2 (2b71d25, 2019-12-03)"
   sodipodi:docname="noun_Plus_2178969.svg"
   id="svg3740"
   y="0px"
   x="0px"
   viewBox="0 0 32 32"
   version="1.1"
   fill="#FFFFFF"
   width="100px"
   height="100px">
  <metadata
     id="metadata3746">
    <rdf:RDF>
      <cc:Work
         rdf:about="">
        <dc:format>image/svg+xml</dc:format>
        <dc:type
           rdf:resource="http://purl.org/dc/dcmitype/StillImage" />
        <dc:title>plus-circle</dc:title>
      </cc:Work>
    </rdf:RDF>
  </metadata>
  <defs
     id="defs3744" />
  <sodipodi:namedview
     inkscape:current-layer="svg3740"
     inkscape:window-maximized="0"
     inkscape:window-y="23"
     inkscape:window-x="0"
     inkscape:cy="50"
     inkscape:cx="4.2279412"
     inkscape:zoom="2.72"
     inkscape:pagecheckerboard="true"
     showgrid="false"
     id="namedview3742"
     inkscape:window-height="862"
     inkscape:window-width="1536"
     inkscape:pageshadow="2"
     inkscape:pageopacity="0"
     guidetolerance="10"
     gridtolerance="10"
     objecttolerance="10"
     borderopacity="1"
     inkscape:document-rotation="0"
     bordercolor="#666666"
     pagecolor="#ffffff" />
  <title
     id="title3732">plus-circle</title>
  <path
     id="path3734"
     d="M8 14.857c-0.005 0-0.010 0-0.016 0-0.631 0-1.143 0.511-1.143 1.143s0.511 1.143 1.143 1.143c0.006 0 0.011 0 0.017 0h15.998c0.005 0 0.010 0 0.016 0 0.631 0 1.143-0.511 1.143-1.143s-0.511-1.143-1.143-1.143c-0.006 0-0.011 0-0.017 0z" />
  <path
     id="path3736"
     d="M17.143 8c0-0.005 0-0.010 0-0.016 0-0.631-0.511-1.143-1.143-1.143s-1.143 0.511-1.143 1.143c0 0.006 0 0.011 0 0.017v-0.001 15.999c0 0.005 0 0.010 0 0.016 0 0.631 0.511 1.143 1.143 1.143s1.143-0.511 1.143-1.143c0-0.006 0-0.011 0-0.017v0.001z" />
  <path
     inkscape:export-ydpi="245.77536"
     inkscape:export-xdpi="245.77536"
     inkscape:export-filename="/Users/Jonas/Transidious/Assets/Resources/Sprites/ui_plus_circle.png"
     id="path3738"
     d="M16 0c-8.823 0-15.999 7.177-15.999 15.999s7.177 15.999 15.999 15.999c8.823 0 15.999-7.177 15.999-15.999s-7.177-15.999-15.999-15.999zM16 2.286c7.588 0 13.714 6.127 13.714 13.714s-6.126 13.714-13.714 13.714c-7.588 0-13.714-6.126-13.714-13.714s6.126-13.714 13.714-13.714z" />
</svg>
