<?xml version="1.0" encoding="UTF-8" standalone="no"?>
<svg
   xmlns:dc="http://purl.org/dc/elements/1.1/"
   xmlns:cc="http://creativecommons.org/ns#"
   xmlns:rdf="http://www.w3.org/1999/02/22-rdf-syntax-ns#"
   xmlns:svg="http://www.w3.org/2000/svg"
   xmlns="http://www.w3.org/2000/svg"
   xmlns:sodipodi="http://sodipodi.sourceforge.net/DTD/sodipodi-0.dtd"
   xmlns:inkscape="http://www.inkscape.org/namespaces/inkscape"
   inkscape:version="1.0beta2 (2b71d25, 2019-12-03)"
   sodipodi:docname="noun_Tram_14231.svg"
   id="svg5731"
   xml:space="preserve"
   enable-background="new 0 0 100 100"
   viewBox="0 0 100 100"
   y="0px"
   x="0px"
   version="1.1"
   fill="#FFFFFF"
   width="100px"
   height="100px"><metadata
     id="metadata5737"><rdf:RDF><cc:Work
         rdf:about=""><dc:format>image/svg+xml</dc:format><dc:type
           rdf:resource="http://purl.org/dc/dcmitype/StillImage" /><dc:title></dc:title></cc:Work></rdf:RDF></metadata><defs
     id="defs5735" /><sodipodi:namedview
     inkscape:current-layer="svg5731"
     inkscape:window-maximized="0"
     inkscape:window-y="23"
     inkscape:window-x="0"
     inkscape:cy="50"
     inkscape:cx="4.2279412"
     inkscape:zoom="2.72"
     inkscape:pagecheckerboard="true"
     showgrid="false"
     id="namedview5733"
     inkscape:window-height="862"
     inkscape:window-width="1536"
     inkscape:pageshadow="2"
     inkscape:pageopacity="0"
     guidetolerance="10"
     gridtolerance="10"
     objecttolerance="10"
     borderopacity="1"
     inkscape:document-rotation="0"
     bordercolor="#666666"
     pagecolor="#ffffff" /><rect
     x="-192"
     width="185"
     height="99"
     id="rect5613"
     y="0" /><rect
     y="-36"
     width="100"
     height="30"
     id="rect5615"
     x="0" /><text
     y="-19.5"
     x="66"
     fill="#FFFFFF"
     font-family="'Helvetica'"
     font-size="2.4"
     id="text5617">http://thenounproject.com</text><text
     y="-24.5"
     x="7.1659999"
     id="text5623"><tspan
       x="7.1659999"
       y="-24.5"
       fill="#FFFFFF"
       font-family="'Helvetica-Bold'"
       font-size="6.1578"
       id="tspan5619">The Noun Project</tspan><tspan
       x="8.2860003"
       y="-19.700001"
       fill="#FFFFFF"
       font-family="'Helvetica-Bold'"
       font-size="4"
       id="tspan5621">Icon Template</tspan></text><text
     y="10.5"
     x="-178.5"
     fill="#FFFFFF"
     font-family="'Helvetica-Bold'"
     font-size="6.1578"
     id="text5625">Reminders</text><line
     fill="#FFFFFF"
     stroke="#FFFFFF"
     stroke-miterlimit="10"
     x1="8"
     y1="-14.5"
     x2="18"
     y2="-14.5"
     id="line5627" /><line
     fill="#FFFFFF"
     stroke="#FFFFFF"
     stroke-miterlimit="10"
     x1="-179"
     y1="16.5"
     x2="-162"
     y2="16.5"
     id="line5629" /><g
     id="g5641"><g
       id="g5639"><g
         id="g5637"><rect
           x="-170.802"
           y="31.318001"
           fill="#FFFFFF"
           width="8.7209997"
           height="8.6420002"
           id="rect5631" /><path
           fill="#FFFFFF"
           d="m -164.455,42.312 h 4.747 v -4.703 h -4.747 z m 5.189,0.437 h -5.63 V 37.17 h 5.63 z m -6.955,1.313 h 8.279 v -8.203 h -8.279 z m 8.721,0.438 h -9.163 v -9.079 h 9.163 z"
           id="path5633"
           inkscape:connector-curvature="0" /><polygon
           fill="#FFFFFF"
           points="-158.013,35.787 -157.871,35.929 -166.149,44.133 -166.292,43.991 "
           id="polygon5635" /></g></g></g><rect
     x="-179"
     y="58"
     fill="none"
     width="35"
     height="32.5"
     id="rect5643" /><text
     y="60.1572"
     x="-179"
     id="text5659"><tspan
       x="-179"
       y="60.1572"
       fill="#FFFFFF"
       font-family="'Helvetica-Bold'"
       font-size="3"
       id="tspan5645">Strokes</tspan><tspan
       x="-179"
       y="65.157204"
       fill="#FFFFFF"
       font-family="'Helvetica'"
       font-size="2.4"
       id="tspan5647">Try to keep strokes at 4px</tspan><tspan
       x="-179"
       y="70.157204"
       fill="#FFFFFF"
       font-family="'Helvetica'"
       font-size="2.4"
       id="tspan5649">Minimum stroke weight is 2px</tspan><tspan
       x="-179"
       y="74.657204"
       fill="#FFFFFF"
       font-family="'Helvetica'"
       font-size="2.4"
       id="tspan5651">For thicker strokes use even </tspan><tspan
       x="-179"
       y="77.657204"
       fill="#FFFFFF"
       font-family="'Helvetica'"
       font-size="2.4"
       id="tspan5653">numbers: 6px, 8px etc.</tspan><tspan
       x="-179"
       y="82.157204"
       fill="#FFFFFF"
       font-family="'Helvetica-Bold'"
       font-size="2.4"
       id="tspan5655">Remember to expand strokes </tspan><tspan
       x="-179"
       y="85.157204"
       fill="#FFFFFF"
       font-family="'Helvetica-Bold'"
       font-size="2.4"
       id="tspan5657">before saving as an SVG </tspan></text><rect
     x="-136.5"
     y="58"
     fill="none"
     width="35"
     height="32.5"
     id="rect5661" /><text
     y="60.1572"
     x="-136.5"
     id="text5673"><tspan
       x="-136.5"
       y="60.1572"
       fill="#FFFFFF"
       font-family="'Helvetica-Bold'"
       font-size="3"
       id="tspan5663">Size</tspan><tspan
       x="-136.5"
       y="65.157204"
       fill="#FFFFFF"
       font-family="'Helvetica'"
       font-size="2.4"
       id="tspan5665">Cannot be wider or taller than </tspan><tspan
       x="-136.5"
       y="68.657204"
       fill="#FFFFFF"
       font-family="'Helvetica'"
       font-size="2.4"
       id="tspan5667">100px (artboard size)</tspan><tspan
       x="-136.5"
       y="73.657204"
       fill="#FFFFFF"
       font-family="'Helvetica'"
       font-size="2.4"
       id="tspan5669">Scale your icon to fill as much of </tspan><tspan
       x="-136.5"
       y="76.657204"
       fill="#FFFFFF"
       font-family="'Helvetica'"
       font-size="2.4"
       id="tspan5671">the artboard as possible</tspan></text><rect
     x="-94"
     y="58"
     fill="none"
     width="35"
     height="32.5"
     id="rect5675" /><text
     y="60.1572"
     x="-94"
     id="text5683"><tspan
       x="-94"
       y="60.1572"
       fill="#FFFFFF"
       font-family="'Helvetica-Bold'"
       font-size="3"
       id="tspan5677">Ungroup</tspan><tspan
       x="-94"
       y="65.157204"
       fill="#FFFFFF"
       font-family="'Helvetica'"
       font-size="2.4"
       id="tspan5679">If your design has more than one </tspan><tspan
       x="-94"
       y="68.157204"
       fill="#FFFFFF"
       font-family="'Helvetica'"
       font-size="2.4"
       id="tspan5681">shape, make sure to ungroup</tspan></text><rect
     x="-50"
     y="58"
     fill="none"
     width="35"
     height="32.5"
     id="rect5685" /><text
     y="60.1572"
     x="-50"
     id="text5693"><tspan
       x="-50"
       y="60.1572"
       fill="#FFFFFF"
       font-family="'Helvetica-Bold'"
       font-size="3"
       id="tspan5687">Save as</tspan><tspan
       x="-50"
       y="65.157204"
       fill="#FFFFFF"
       font-family="'Helvetica'"
       font-size="2.4"
       id="tspan5689">Save as .SVG and make sure </tspan><tspan
       x="-50"
       y="68.157204"
       fill="#FFFFFF"
       font-family="'Helvetica'"
       font-size="2.4"
       id="tspan5691">“Use Artboards” is checked</tspan></text><text
     style="stroke-width:1.00369"
     y="30.706287"
     x="-125.08006"
     transform="scale(1.0036932,0.99632041)"
     fill="#FFFFFF"
     font-family="'Helvetica'"
     font-size="2.5731"
     id="text5695">100px</text><text
     style="stroke-width:1.00369"
     y="39.144035"
     x="-40.849136"
     transform="scale(1.0036932,0.99632041)"
     fill="#FFFFFF"
     font-family="'Helvetica-Bold'"
     font-size="5.1462"
     id="text5697">.SVG</text><rect
     x="-126.514"
     y="34.814999"
     fill="#FFFFFF"
     width="10.261"
     height="10.185"
     id="rect5699" /><rect
     x="-126.477"
     y="31.766001"
     fill="#FFFFFF"
     width="0.52200001"
     height="2.3369999"
     id="rect5701" /><rect
     x="-116.812"
     y="31.766001"
     fill="#FFFFFF"
     width="0.523"
     height="2.3369999"
     id="rect5703" /><rect
     x="-127"
     y="32.337002"
     fill="#FFFFFF"
     width="11.233"
     height="0.57200003"
     id="rect5705" /><g
     id="g5711"><rect
       x="-83.805"
       y="33.844002"
       fill="#FFFFFF"
       width="10.305"
       height="10.156"
       id="rect5707" /><rect
       x="-76.808998"
       y="28.707001"
       fill="#FFFFFF"
       width="3.3080001"
       height="3.2609999"
       id="rect5709" /></g><rect
     x="-178.5"
     y="22.5"
     fill="#FFFFFF"
     stroke="#FFFFFF"
     stroke-miterlimit="10"
     width="30"
     height="30"
     id="rect5713" /><rect
     x="-136.5"
     y="22.5"
     fill="#FFFFFF"
     stroke="#FFFFFF"
     stroke-miterlimit="10"
     width="30"
     height="30"
     id="rect5715" /><rect
     x="-93.5"
     y="22.5"
     fill="#FFFFFF"
     stroke="#FFFFFF"
     stroke-miterlimit="10"
     width="30"
     height="30"
     id="rect5717" /><rect
     x="-49.5"
     y="22.5"
     fill="#FFFFFF"
     stroke="#FFFFFF"
     stroke-miterlimit="10"
     width="30"
     height="30"
     id="rect5719" /><g
     inkscape:export-ydpi="256.16431"
     inkscape:export-xdpi="256.16431"
     inkscape:export-filename="/Users/Jonas/Transidious/Assets/Resources/Sprites/ui_tram.png"
     id="g5729"><g
       id="g5727"><g
         id="g5725"><path
           id="path5723"
           d="M36.159,5.084c1.265-1.773,3.559-1.539,3.559-1.539     l10.115,10.901l0.416-0.014l0.419,0.014L60.834,3.545c0,0,2.241-0.234,3.509,1.539c1.266,1.772,0.505-3.091-2.28-3.091H38.436     C35.651,1.993,34.89,6.856,36.159,5.084z M50.249,3.564l8.337,0.003l-8.18,8.541v-0.049l-0.157,0.179l-0.154-0.179v0.049     l-7.981-8.541L50.249,3.564z M25.53,98h5.115l4.052-8.163h-2.842L25.53,98z M66.251,89.837L70.021,98h5.113l-6.041-8.163H66.251z      M40.639,86.644h19.577v-5.689H40.639V86.644z M79.9,25.144c0-5.012-20.697-5.384-20.697-5.384l-3.48-3.716L44.975,15.99     l-4.485,3.742c0,0-17.198,0.306-19.702,5.412c0,0,0.069,50.34,0.069,52.939s5.089,8.572,8.566,8.572     c5.035,0,8.425,0.027,8.425,0.027l-0.074-8.475h25.463l-0.005,8.527c0,0,4.46-0.086,8.712-0.086c4.251,0,8.056-7.502,8.056-8.552     C80,74.295,79.9,25.144,79.9,25.144z M41.551,25.593c0,0.066,0.012,0.131,0.02,0.196c0.096-0.791,0.76-1.407,1.58-1.407h14.4     c0.818,0,1.486,0.617,1.582,1.407c0.008-0.065,0.02-0.13,0.02-0.196v0.389c0-0.066-0.012-0.128-0.02-0.192     c-0.096,0.812-0.764,1.571-1.582,1.571h-14.4c-0.82,0-1.484-0.759-1.58-1.571c-0.008,0.064-0.02,0.126-0.02,0.192V25.593z      M30.788,76.148c-1.255,0-2.27-1.029-2.27-2.295c0-1.268,1.015-2.293,2.27-2.293c1.251,0,2.269,1.025,2.269,2.293     C33.057,75.119,32.039,76.148,30.788,76.148z M49.124,55.239c0,1.768-1.43,3.197-3.198,3.197h-18.97     c-1.77,0-3.201-1.43-3.201-3.197v-21.86c0-1.768,1.431-3.201,3.201-3.201h18.97c1.769,0,3.198,1.434,3.198,3.201V55.239z      M70.364,76.324c-1.252,0-2.27-1.028-2.27-2.293c0-1.27,1.018-2.295,2.27-2.295c1.254,0,2.271,1.025,2.271,2.295     C72.636,75.296,71.618,76.324,70.364,76.324z M77.356,55.239c0,1.768-1.432,3.197-3.199,3.197H55.1     c-1.771,0-3.201-1.43-3.201-3.197v-21.86c0-1.768,1.431-3.201,3.201-3.201h19.058c1.768,0,3.199,1.434,3.199,3.201V55.239z"
           fill="#FFFFFF"
           clip-rule="evenodd"
           fill-rule="evenodd" /></g></g></g></svg>
