<?xml version="1.0" encoding="UTF-8" standalone="no"?>
<svg
   xmlns:dc="http://purl.org/dc/elements/1.1/"
   xmlns:cc="http://creativecommons.org/ns#"
   xmlns:rdf="http://www.w3.org/1999/02/22-rdf-syntax-ns#"
   xmlns:svg="http://www.w3.org/2000/svg"
   xmlns="http://www.w3.org/2000/svg"
   xmlns:sodipodi="http://sodipodi.sourceforge.net/DTD/sodipodi-0.dtd"
   xmlns:inkscape="http://www.inkscape.org/namespaces/inkscape"
   inkscape:version="1.0beta2 (2b71d25, 2019-12-03)"
   sodipodi:docname="noun_Businessman_1469965.svg"
   id="svg11006"
   xml:space="preserve"
   style="enable-background:new 0 0 64 64;"
   viewBox="0 0 64 64"
   y="0px"
   x="0px"
   version="1.1"
   fill="#FFFFFF"
   width="100px"
   height="100px"><metadata
     id="metadata11012"><rdf:RDF><cc:Work
         rdf:about=""><dc:format>image/svg+xml</dc:format><dc:type
           rdf:resource="http://purl.org/dc/dcmitype/StillImage" /><dc:title></dc:title></cc:Work></rdf:RDF></metadata><defs
     id="defs11010" /><sodipodi:namedview
     inkscape:current-layer="svg11006"
     inkscape:window-maximized="0"
     inkscape:window-y="23"
     inkscape:window-x="0"
     inkscape:cy="50"
     inkscape:cx="4.2279412"
     inkscape:zoom="2.72"
     inkscape:pagecheckerboard="true"
     showgrid="false"
     id="namedview11008"
     inkscape:window-height="862"
     inkscape:window-width="1536"
     inkscape:pageshadow="2"
     inkscape:pageopacity="0"
     guidetolerance="10"
     gridtolerance="10"
     objecttolerance="10"
     borderopacity="1"
     inkscape:document-rotation="0"
     bordercolor="#666666"
     pagecolor="#ffffff" /><g
     inkscape:export-ydpi="253.16972"
     inkscape:export-xdpi="253.16972"
     inkscape:export-filename="/Users/Jonas/Transidious/Assets/Resources/Sprites/occupation_businessman.png"
     id="g11004"><path
       id="path11000"
       d="M56.976,49.774c-0.671-4.029-3.496-7.335-7.372-8.627L41,38.279V37h-2v1.876l-1.493,5.971L33.468,40h-2.937l-4.039,4.847   L25,38.876V37h-2v1.279l-8.604,2.868c-3.875,1.292-6.7,4.598-7.372,8.627L4.819,63h54.361L56.976,49.774z M31.468,42h1.063   l2.37,2.844l-1.946,2.919L34.847,61h-5.694l1.891-13.237l-1.946-2.919L31.468,42z M8.997,50.104   c0.549-3.297,2.861-6.001,6.032-7.059l8.263-2.755l2.216,8.863l2.255-2.706l1.193,1.79L27.133,61H16.105l0.89-8.9l-1.99-0.199   l-0.91,9.1H7.181L8.997,50.104z M49.905,61l-0.91-9.1l-1.99,0.199l0.89,8.9H36.867l-1.823-12.763l1.193-1.79l2.255,2.706   l2.216-8.863l8.263,2.755c3.171,1.057,5.482,3.762,6.032,7.059L56.819,61H49.905z" /><path
       id="path11002"
       d="M19.442,27.944c0.51,1.755,1.452,3.364,2.78,4.692l3.9,3.9C27.066,37.48,28.321,38,29.657,38h4.687   c1.335,0,2.591-0.52,3.535-1.464l3.9-3.9c1.328-1.328,2.27-2.938,2.78-4.692C47.05,27.662,49,25.566,49,23   c0-1.641-0.806-3.088-2.031-4H47v-6c0-2.503-1.85-4.583-4.254-4.944C41.241,3.868,37.214,1,32.72,1H32c-8.271,0-15,6.729-15,15v3   h0.031C15.806,19.912,15,21.359,15,23C15,25.566,16.95,27.662,19.442,27.944z M40.364,31.222l-3.9,3.9   C35.906,35.68,35.133,36,34.343,36h-4.687c-0.79,0-1.562-0.32-2.121-0.878l-3.9-3.9c-1.7-1.7-2.636-3.96-2.636-6.364V20h3.929   c4.401,0,8.562-1.563,11.85-4.426l0.306,0.51c1.276,2.127,3.484,3.541,5.916,3.849v4.924C43,27.262,42.064,29.522,40.364,31.222z    M44.953,25.83C44.981,25.509,45,25.185,45,24.858v-4.674c1.161,0.414,2,1.514,2,2.816C47,24.319,46.138,25.43,44.953,25.83z    M19,16c0-7.168,5.832-13,13-13h0.72c3.842,0,7.263,2.58,8.319,6.275L41.246,10H42c1.654,0,3,1.346,3,3v5.101   C44.677,18.035,44.342,18,44,18c-2.118,0-4.111-1.128-5.201-2.945l-1.601-2.668l-0.906,0.906C33.257,16.328,29.222,18,24.929,18H20   c-0.342,0-0.677,0.035-1,0.101V16z M19,20.184v4.674c0,0.327,0.019,0.651,0.047,0.973C17.862,25.43,17,24.319,17,23   C17,21.698,17.839,20.598,19,20.184z" /></g></svg>
