<?xml version="1.0" encoding="UTF-8" standalone="no"?>
<svg
   xmlns:dc="http://purl.org/dc/elements/1.1/"
   xmlns:cc="http://creativecommons.org/ns#"
   xmlns:rdf="http://www.w3.org/1999/02/22-rdf-syntax-ns#"
   xmlns:svg="http://www.w3.org/2000/svg"
   xmlns="http://www.w3.org/2000/svg"
   xmlns:sodipodi="http://sodipodi.sourceforge.net/DTD/sodipodi-0.dtd"
   xmlns:inkscape="http://www.inkscape.org/namespaces/inkscape"
   inkscape:version="1.0beta2 (2b71d25, 2019-12-03)"
   sodipodi:docname="noun_Detective_1469992.svg"
   id="svg16778"
   xml:space="preserve"
   style="enable-background:new 0 0 64 64;"
   viewBox="0 0 64 64"
   y="0px"
   x="0px"
   version="1.1"
   fill="#FFFFFF"
   width="100px"
   height="100px"><metadata
     id="metadata16784"><rdf:RDF><cc:Work
         rdf:about=""><dc:format>image/svg+xml</dc:format><dc:type
           rdf:resource="http://purl.org/dc/dcmitype/StillImage" /><dc:title></dc:title></cc:Work></rdf:RDF></metadata><defs
     id="defs16782" /><sodipodi:namedview
     inkscape:current-layer="svg16778"
     inkscape:window-maximized="0"
     inkscape:window-y="23"
     inkscape:window-x="0"
     inkscape:cy="50"
     inkscape:cx="4.2279412"
     inkscape:zoom="2.72"
     inkscape:pagecheckerboard="true"
     showgrid="false"
     id="namedview16780"
     inkscape:window-height="862"
     inkscape:window-width="1536"
     inkscape:pageshadow="2"
     inkscape:pageopacity="0"
     guidetolerance="10"
     gridtolerance="10"
     objecttolerance="10"
     borderopacity="1"
     inkscape:document-rotation="0"
     bordercolor="#666666"
     pagecolor="#ffffff" /><g
     inkscape:export-ydpi="253.68774"
     inkscape:export-xdpi="253.68774"
     inkscape:export-filename="/Users/Jonas/Transidious/Assets/Resources/Sprites/occupation_detective.png"
     id="g16776"><path
       id="path16770"
       d="M56.976,49.774c-0.671-4.029-3.496-7.335-7.372-8.627l-1.418-0.473l2.097-2.696l-5.516-6.619l-1.536,1.281l4.484,5.381   l-6.868,8.83l2.984,6.964L37.547,61h-7.179l6.586-20.697l-1.906-0.605L32,49.273l-3.047-9.576l-1.906,0.605l3.904,12.268L28.269,61   h-1.815l-6.286-7.185l2.984-6.964l-6.868-8.83l4.484-5.381l-1.536-1.281l-5.516,6.619l2.097,2.696l-1.418,0.473   c-3.875,1.292-6.7,4.598-7.372,8.627L4.819,63h54.361L56.976,49.774z M8.997,50.103c0.549-3.296,2.861-6.001,6.032-7.059   l2.087-0.695l3.733,4.8l-3.016,7.036L23.797,61h-7.68l0.877-7.89l-1.987-0.221L14.105,61H7.181L8.997,50.103z M49.895,61   l-0.901-8.11l-1.987,0.221L47.883,61h-7.68l5.964-6.815l-3.016-7.036l3.733-4.8l2.087,0.695c3.171,1.058,5.482,3.763,6.032,7.059   L56.819,61H49.895z" /><path
       id="path16772"
       d="M12.798,23.391l0.403-1.959C7.414,20.24,7.001,19.01,7,19.002C7.17,17.644,16.149,15,32,15s24.83,2.644,25,3.998   c-0.001,0.012-0.414,1.242-6.202,2.434l0.403,1.959C56.522,22.295,59,20.9,59,19c0-2.655-5.526-4.216-12.03-5.077   C46.814,10.624,45.859,1,40,1c-2.123,0-3.201,0.27-4.243,0.53C34.791,1.771,33.877,2,32,2s-2.791-0.229-3.757-0.47   C27.201,1.27,26.123,1,24,1c-5.859,0-6.814,9.624-6.97,12.923C10.526,14.784,5,16.345,5,19C5,20.9,7.478,22.295,12.798,23.391z    M24,3c1.877,0,2.791,0.229,3.757,0.47C28.799,3.73,29.877,4,32,4s3.201-0.27,4.243-0.53C37.209,3.229,38.123,3,40,3   c2.419,0,3.719,3.025,4.383,6.188C40.583,8.796,36.336,8.589,32,8.589s-8.583,0.207-12.383,0.599C20.281,6.025,21.581,3,24,3z    M19.27,11.238c3.87-0.423,8.247-0.649,12.73-0.649s8.86,0.226,12.73,0.649c0.116,0.877,0.19,1.712,0.229,2.444   C40.393,13.186,35.584,13,32,13s-8.393,0.186-12.959,0.682C19.08,12.95,19.154,12.115,19.27,11.238z" /><path
       id="path16774"
       d="M44.105,17.595C40.371,17.2,36.298,17,32,17s-8.371,0.2-12.105,0.595L19,17.688v0.413c-2.279,0.465-4,2.484-4,4.899   c0,2.566,1.95,4.662,4.442,4.944c0.51,1.755,1.452,3.364,2.78,4.692l3.9,3.899c0.944,0.944,2.2,1.465,3.535,1.465h4.687   c1.335,0,2.591-0.521,3.535-1.465l3.9-3.899c1.328-1.328,2.27-2.937,2.78-4.692C47.05,27.662,49,25.566,49,23   c0-2.414-1.721-4.434-4-4.899v-0.413L44.105,17.595z M17,23c0-1.302,0.839-2.402,2-2.816v4.673c0,0.327,0.019,0.651,0.047,0.973   C17.862,25.43,17,24.319,17,23z M43,24.857c0,2.404-0.936,4.664-2.636,6.364l-3.9,3.899C35.906,35.68,35.133,36,34.343,36h-4.687   c-0.79,0-1.562-0.32-2.121-0.879l-3.9-3.899c-1.7-1.7-2.636-3.96-2.636-6.364v-5.364C24.418,19.166,28.114,19,32,19   s7.582,0.166,11,0.493V24.857z M47,23c0,1.319-0.862,2.43-2.047,2.83C44.981,25.508,45,25.185,45,24.857v-4.673   C46.161,20.598,47,21.698,47,23z" /></g></svg>
