<?xml version="1.0" encoding="UTF-8" standalone="no"?>
<svg
   xmlns:dc="http://purl.org/dc/elements/1.1/"
   xmlns:cc="http://creativecommons.org/ns#"
   xmlns:rdf="http://www.w3.org/1999/02/22-rdf-syntax-ns#"
   xmlns:svg="http://www.w3.org/2000/svg"
   xmlns="http://www.w3.org/2000/svg"
   xmlns:sodipodi="http://sodipodi.sourceforge.net/DTD/sodipodi-0.dtd"
   xmlns:inkscape="http://www.inkscape.org/namespaces/inkscape"
   inkscape:version="1.0beta2 (2b71d25, 2019-12-03)"
   sodipodi:docname="noun_Car_1604927.svg"
   id="svg873"
   xml:space="preserve"
   enable-background="new 0 0 100 100"
   viewBox="0 0 100 125"
   y="0px"
   x="0px"
   version="1.1"><metadata
     id="metadata879"><rdf:RDF><cc:Work
         rdf:about=""><dc:format>image/svg+xml</dc:format><dc:type
           rdf:resource="http://purl.org/dc/dcmitype/StillImage" /><dc:title></dc:title></cc:Work></rdf:RDF></metadata><defs
     id="defs877" /><sodipodi:namedview
     inkscape:current-layer="svg873"
     inkscape:window-maximized="0"
     inkscape:window-y="23"
     inkscape:window-x="0"
     inkscape:cy="61.810872"
     inkscape:cx="29.345826"
     inkscape:zoom="4.1033198"
     inkscape:pagecheckerboard="true"
     showgrid="false"
     id="namedview875"
     inkscape:window-height="862"
     inkscape:window-width="1536"
     inkscape:pageshadow="2"
     inkscape:pageopacity="0"
     guidetolerance="10"
     gridtolerance="10"
     objecttolerance="10"
     borderopacity="1"
     inkscape:document-rotation="0"
     bordercolor="#666666"
     pagecolor="#ffffff" /><g
     inkscape:export-ydpi="613.75891"
     inkscape:export-xdpi="613.75891"
     inkscape:export-filename="/Users/Jonas/Transidious/Assets/Resources/Sprites/car2.png"
     transform="rotate(-90,50.000036,50)"
     style="fill:#ffffff;fill-opacity:1"
     id="g867"><path
       inkscape:connector-curvature="0"
       style="fill:#ffffff;fill-opacity:1"
       id="path865"
       d="m 64.894,34.458 c -0.404,0.017 -0.817,0.032 -1.226,0.046 0.062,-1.934 -2.726,-3.43 -2.726,-3.43 l 0.953,3.491 c -10.979,0.34 -23.172,0.057 -34.727,0.64 -12.617,0.637 -14.02,3.495 -15.676,5.15 -1.657,1.657 -1.487,9.58 -1.487,9.58 0,0 -0.169,7.987 1.487,9.644 1.656,1.657 3.059,4.547 15.676,5.184 11.563,0.584 23.764,0.26 34.748,0.593 l -0.974,3.57 c 0,0 2.859,-1.538 2.717,-3.51 0.411,0.016 0.826,0.029 1.234,0.047 C 76.619,65.974 89.873,64.211 90,49.936 89.873,35.663 76.619,33.948 64.894,34.458 Z m 19.848,5.027 c 1.496,0.637 2.107,2.182 2.107,2.182 0,0 2.336,3.529 -0.8,1.105 -3.136,-2.424 -1.307,-3.287 -1.307,-3.287 z m -23.8,-3.314 c 0,0 -2.677,2.167 -13.637,2.167 -10.96,0 -14.147,-1.529 -14.147,-1.529 5.226,0.128 27.784,-0.638 27.784,-0.638 z M 30.1,59.877 20.287,60.515 c -2.294,-1.912 -2.803,-10.579 -2.803,-10.579 0,0 0.509,-8.634 2.803,-10.546 l 9.813,0.67 c 0,0 -1.274,3.76 -1.274,9.876 -0.001,6.373 1.274,9.941 1.274,9.941 z m 3.059,3.313 c 0,0 3.187,-1.529 14.147,-1.529 10.96,0 13.637,2.166 13.637,2.166 0,0 -22.559,-0.764 -27.784,-0.637 z M 69.99,60.387 c -2.038,2.039 -2.994,2.167 -5.065,1.785 -2.07,-0.384 -6.897,-1.143 -6.897,-1.143 0,0 1.64,-4.466 1.64,-11.094 0,-6.627 -1.64,-11.029 -1.64,-11.029 0,0 4.827,-0.759 6.897,-1.141 2.071,-0.382 3.027,-0.255 5.065,1.784 2.04,2.039 2.04,10.386 2.04,10.386 0,0 0,8.413 -2.04,10.452 z m 16.86,-2.056 c 0,0 -0.611,1.546 -2.107,2.184 0,0 -1.828,-0.862 1.308,-3.287 3.135,-2.426 0.799,1.103 0.799,1.103 z" /></g></svg>
