<?xml version="1.0" encoding="UTF-8" standalone="no"?>
<svg
   xmlns:dc="http://purl.org/dc/elements/1.1/"
   xmlns:cc="http://creativecommons.org/ns#"
   xmlns:rdf="http://www.w3.org/1999/02/22-rdf-syntax-ns#"
   xmlns:svg="http://www.w3.org/2000/svg"
   xmlns="http://www.w3.org/2000/svg"
   xmlns:sodipodi="http://sodipodi.sourceforge.net/DTD/sodipodi-0.dtd"
   xmlns:inkscape="http://www.inkscape.org/namespaces/inkscape"
   inkscape:version="1.0beta2 (2b71d25, 2019-12-03)"
   sodipodi:docname="noun_Subway_2389045.svg"
   id="svg6320"
   xml:space="preserve"
   style="enable-background:new 0 0 100 100;"
   viewBox="0 0 100 100"
   y="0px"
   x="0px"
   version="1.1"
   fill="#FFFFFF"
   width="100px"
   height="100px"><metadata
     id="metadata6326"><rdf:RDF><cc:Work
         rdf:about=""><dc:format>image/svg+xml</dc:format><dc:type
           rdf:resource="http://purl.org/dc/dcmitype/StillImage" /><dc:title></dc:title></cc:Work></rdf:RDF></metadata><defs
     id="defs6324" /><sodipodi:namedview
     inkscape:current-layer="g6318"
     inkscape:window-maximized="0"
     inkscape:window-y="23"
     inkscape:window-x="0"
     inkscape:cy="67.279412"
     inkscape:cx="-42.095588"
     inkscape:zoom="2.72"
     inkscape:pagecheckerboard="true"
     showgrid="false"
     id="namedview6322"
     inkscape:window-height="862"
     inkscape:window-width="1536"
     inkscape:pageshadow="2"
     inkscape:pageopacity="0"
     guidetolerance="10"
     gridtolerance="10"
     objecttolerance="10"
     borderopacity="1"
     inkscape:document-rotation="0"
     bordercolor="#666666"
     pagecolor="#ffffff" /><g
     id="g6318"><g
       id="g6308"><path
         d="m 5273.1,2400.1 v -2 c 0,-2.8 -5,-4 -9.7,-4 -4.7,0 -9.7,1.3 -9.7,4 v 2 c 0,1.8 0.7,3.6 2,4.9 l 5,4.9 c 0.3,0.3 0.4,0.6 0.4,1 v 6.4 c 0,0.4 0.2,0.7 0.6,0.8 l 2.9,0.9 c 0.5,0.1 1,-0.2 1,-0.8 v -7.2 c 0,-0.4 0.2,-0.7 0.4,-1 l 5.1,-5 c 1.3,-1.3 2,-3.1 2,-4.9 z m -9.7,-0.1 c -4.8,0 -7.4,-1.3 -7.5,-1.8 v 0 c 0.1,-0.5 2.7,-1.8 7.5,-1.8 4.8,0 7.3,1.3 7.5,1.8 -0.2,0.5 -2.7,1.8 -7.5,1.8 z"
         id="path6300"
         inkscape:connector-curvature="0" /><path
         d="m 5268.4,2410.3 c -0.6,0 -1,0.4 -1,1 0,0.6 0.4,1 1,1 h 4.3 c 0.6,0 1,-0.4 1,-1 0,-0.6 -0.4,-1 -1,-1 z"
         id="path6302"
         inkscape:connector-curvature="0" /><path
         d="m 5272.7,2413.7 h -4.3 c -0.6,0 -1,0.4 -1,1 0,0.6 0.4,1 1,1 h 4.3 c 0.6,0 1,-0.4 1,-1 0,-0.6 -0.4,-1 -1,-1 z"
         id="path6304"
         inkscape:connector-curvature="0" /><path
         d="m 5272.7,2417 h -4.3 c -0.6,0 -1,0.4 -1,1 0,0.6 0.4,1 1,1 h 4.3 c 0.6,0 1,-0.4 1,-1 0,-0.5 -0.4,-1 -1,-1 z"
         id="path6306"
         inkscape:connector-curvature="0" /></g><g
       inkscape:export-ydpi="258.21426"
       inkscape:export-xdpi="258.21426"
       inkscape:export-filename="/Users/Jonas/Transidious/Assets/Resources/Sprites/ui_subway.png"
       id="g6314"><path
         d="M 50,2.5 C 25.3,2.5 5.2,22.6 5.2,47.4 c 0,10.2 3.3,19.8 9.6,27.7 1.1,1.4 3.2,1.7 4.7,0.5 1.4,-1.1 1.7,-3.2 0.5,-4.7 C 14.6,64.1 11.8,56 11.8,47.3 11.8,26.3 28.9,9.1 50,9.1 c 21.1,0 38.2,17.2 38.2,38.2 0,8.7 -2.8,16.9 -8.2,23.6 -1.1,1.4 -0.9,3.5 0.5,4.7 0.6,0.5 1.3,0.7 2.1,0.7 1,0 1.9,-0.4 2.6,-1.3 6.3,-8 9.6,-17.6 9.6,-27.7 C 94.8,22.6 74.7,2.5 50,2.5 Z"
         id="path6310"
         inkscape:connector-curvature="0" /><path
         d="m 66.3,76.6 c 4.4,-0.5 7.9,-4.3 7.9,-8.9 V 32 c 0,-4.9 -4,-9 -9,-9 H 34.8 c -4.9,0 -9,4 -9,9 v 35.8 c 0,4.6 3.4,8.3 7.9,8.9 l -8,16.1 c -0.8,1.6 -0.2,3.6 1.5,4.4 0.5,0.2 1,0.3 1.5,0.3 1.2,0 2.4,-0.7 3,-1.8 l 2.7,-5.3 h 31.4 l 2.7,5.3 c 0.6,1.2 1.8,1.8 3,1.8 0.5,0 1,-0.1 1.5,-0.3 1.6,-0.8 2.3,-2.8 1.5,-4.4 z M 61.2,63.9 c -2.3,0 -4.1,-1.8 -4.1,-4.1 0,-2.3 1.8,-4.1 4.1,-4.1 2.3,0 4.1,1.8 4.1,4.1 0,2.3 -1.8,4.1 -4.1,4.1 z M 33.5,32 c 0,-0.7 0.6,-1.3 1.3,-1.3 h 30.4 c 0.7,0 1.3,0.6 1.3,1.3 v 15.7 h -33 V 32 Z m 5.3,31.9 c -2.3,0 -4.1,-1.8 -4.1,-4.1 0,-2.3 1.8,-4.1 4.1,-4.1 2.3,0 4.1,1.8 4.1,4.1 0,2.3 -1.9,4.1 -4.1,4.1 z m -1.2,19.8 3.5,-7 H 59 l 3.5,7 z"
         id="path6312"
         inkscape:connector-curvature="0" /></g></g></svg>
