<?xml version="1.0" encoding="UTF-8" standalone="no"?>
<svg
   xmlns:dc="http://purl.org/dc/elements/1.1/"
   xmlns:cc="http://creativecommons.org/ns#"
   xmlns:rdf="http://www.w3.org/1999/02/22-rdf-syntax-ns#"
   xmlns:svg="http://www.w3.org/2000/svg"
   xmlns="http://www.w3.org/2000/svg"
   xmlns:sodipodi="http://sodipodi.sourceforge.net/DTD/sodipodi-0.dtd"
   xmlns:inkscape="http://www.inkscape.org/namespaces/inkscape"
   inkscape:version="1.0beta2 (2b71d25, 2019-12-03)"
   sodipodi:docname="noun_Call Center_1469969.svg"
   id="svg12164"
   xml:space="preserve"
   style="enable-background:new 0 0 64 64;"
   viewBox="0 0 64 64"
   y="0px"
   x="0px"
   version="1.1"
   fill="#FFFFFF"
   width="100px"
   height="100px"><metadata
     id="metadata12170"><rdf:RDF><cc:Work
         rdf:about=""><dc:format>image/svg+xml</dc:format><dc:type
           rdf:resource="http://purl.org/dc/dcmitype/StillImage" /><dc:title></dc:title></cc:Work></rdf:RDF></metadata><defs
     id="defs12168" /><sodipodi:namedview
     inkscape:current-layer="svg12164"
     inkscape:window-maximized="0"
     inkscape:window-y="23"
     inkscape:window-x="0"
     inkscape:cy="50"
     inkscape:cx="4.2279412"
     inkscape:zoom="2.72"
     inkscape:pagecheckerboard="true"
     showgrid="false"
     id="namedview12166"
     inkscape:window-height="862"
     inkscape:window-width="1536"
     inkscape:pageshadow="2"
     inkscape:pageopacity="0"
     guidetolerance="10"
     gridtolerance="10"
     objecttolerance="10"
     borderopacity="1"
     inkscape:document-rotation="0"
     bordercolor="#666666"
     pagecolor="#ffffff" /><g
     inkscape:export-ydpi="253.16972"
     inkscape:export-xdpi="253.16972"
     inkscape:export-filename="/Users/Jonas/Transidious/Assets/Resources/Sprites/occupation_callcenter.png"
     id="g12162"><path
       id="path12154"
       d="M56.976,49.774c-0.671-4.029-3.496-7.335-7.372-8.627L41,38.279V37h-2v1.876l-1.493,5.971L33.468,40h-2.937l-4.039,4.847   L25,38.876V37h-2v1.279l-8.604,2.868c-3.875,1.292-6.7,4.598-7.372,8.627L4.819,63h54.361L56.976,49.774z M49.905,61l-0.91-9.1   l-1.99,0.199l0.89,8.9H33V44h-2v17H16.105l0.89-8.9l-1.99-0.199l-0.91,9.1H7.181l1.816-10.896c0.549-3.297,2.861-6.001,6.032-7.059   l8.263-2.755l2.216,8.863L31.468,42h1.063l5.961,7.153l2.216-8.863l8.263,2.755c3.171,1.057,5.482,3.762,6.032,7.059L56.819,61   H49.905z" /><rect
       id="rect12156"
       height="2"
       width="2"
       y="50"
       x="35" /><rect
       id="rect12158"
       height="2"
       width="2"
       y="57"
       x="35" /><path
       id="path12160"
       d="M16,28h3.456c0.514,1.733,1.452,3.322,2.766,4.636l3.9,3.9C27.066,37.48,28.321,38,29.657,38h4.687   c1.335,0,2.591-0.52,3.535-1.464L40.414,34H42c2.757,0,5-2.243,5-5v-1h1c2.757,0,5-2.243,5-5v-4c0-2.757-2.243-5-5-5h-1.164   C45.847,6.641,39.513,1,32,1S18.153,6.641,17.164,14H16c-2.757,0-5,2.243-5,5v4C11,25.757,13.243,28,16,28z M19,26h-2V16h2v3v5.858   V26z M36.464,35.122C35.906,35.68,35.133,36,34.343,36h-4.687c-0.79,0-1.562-0.32-2.121-0.878l-3.9-3.9   c-1.7-1.7-2.636-3.96-2.636-6.364V20h3.929c4.401,0,8.562-1.563,11.85-4.426l0.306,0.51c1.276,2.127,3.484,3.541,5.916,3.849v4.924   c0,2.404-0.936,4.664-2.636,6.364L39.586,32H29v2h8.586L36.464,35.122z M45,16h2v10h-2v-1.142V19V16z M45,29   c0,1.52-1.141,2.767-2.609,2.961c0.994-1.17,1.724-2.513,2.153-3.961H45V29z M51,19v4c0,1.302-0.839,2.402-2,2.816v-9.631   C50.161,16.598,51,17.698,51,19z M32,3c6.42,0,11.853,4.753,12.824,11H43v3.905c-1.729-0.294-3.285-1.324-4.201-2.85l-1.601-2.668   l-0.906,0.906C33.257,16.328,29.222,18,24.929,18H21v-4h-1.824C20.147,7.753,25.58,3,32,3z M13,19c0-1.302,0.839-2.402,2-2.816   v9.631c-1.161-0.414-2-1.514-2-2.816V19z" /></g></svg>
