<?xml version="1.0" encoding="UTF-8" standalone="no"?>
<svg
   xmlns:dc="http://purl.org/dc/elements/1.1/"
   xmlns:cc="http://creativecommons.org/ns#"
   xmlns:rdf="http://www.w3.org/1999/02/22-rdf-syntax-ns#"
   xmlns:svg="http://www.w3.org/2000/svg"
   xmlns="http://www.w3.org/2000/svg"
   xmlns:sodipodi="http://sodipodi.sourceforge.net/DTD/sodipodi-0.dtd"
   xmlns:inkscape="http://www.inkscape.org/namespaces/inkscape"
   inkscape:version="1.0beta2 (2b71d25, 2019-12-03)"
   sodipodi:docname="noun_Police_1469970.svg"
   id="svg12739"
   xml:space="preserve"
   style="enable-background:new 0 0 64 64;"
   viewBox="0 0 64 64"
   y="0px"
   x="0px"
   version="1.1"
   fill="#FFFFFF"
   width="100px"
   height="100px"><metadata
     id="metadata12745"><rdf:RDF><cc:Work
         rdf:about=""><dc:format>image/svg+xml</dc:format><dc:type
           rdf:resource="http://purl.org/dc/dcmitype/StillImage" /><dc:title></dc:title></cc:Work></rdf:RDF></metadata><defs
     id="defs12743" /><sodipodi:namedview
     inkscape:current-layer="svg12739"
     inkscape:window-maximized="0"
     inkscape:window-y="23"
     inkscape:window-x="0"
     inkscape:cy="50"
     inkscape:cx="4.2279412"
     inkscape:zoom="2.72"
     inkscape:pagecheckerboard="true"
     showgrid="false"
     id="namedview12741"
     inkscape:window-height="862"
     inkscape:window-width="1536"
     inkscape:pageshadow="2"
     inkscape:pageopacity="0"
     guidetolerance="10"
     gridtolerance="10"
     objecttolerance="10"
     borderopacity="1"
     inkscape:document-rotation="0"
     bordercolor="#666666"
     pagecolor="#ffffff" /><g
     inkscape:export-ydpi="253.16972"
     inkscape:export-xdpi="253.16972"
     inkscape:export-filename="/Users/Jonas/Transidious/Assets/Resources/Sprites/occupation_police.png"
     id="g12737"><path
       id="path12733"
       d="M56.976,49.774c-0.671-4.029-3.496-7.335-7.372-8.627L41,38.279V37h-2v1.876l-1.493,5.971L33.468,40h-2.937l-4.039,4.847   L25,38.876V37h-2v1.279l-8.604,2.868c-3.875,1.292-6.7,4.598-7.372,8.627L4.819,63h54.361L56.976,49.774z M56.258,57.632   l-1.031-0.206c-0.81-0.162-1.445-0.818-1.581-1.633l-0.508-3.047l2.213-0.553L56.258,57.632z M31.468,42h1.063l2.37,2.844   l-1.946,2.919L34.847,61h-5.694l1.891-13.237l-1.946-2.919L31.468,42z M8.648,52.193l2.213,0.553l-0.508,3.047   c-0.136,0.814-0.771,1.47-1.581,1.632l-1.031,0.206L8.648,52.193z M7.39,59.742l1.776-0.355c1.62-0.324,2.89-1.636,3.161-3.265   l0.812-4.868l-4.16-1.04l0.018-0.11c0.549-3.297,2.861-6.001,6.032-7.059l8.263-2.755l2.216,8.863l2.255-2.706l1.193,1.79   L27.133,61H16.105l0.6-6H26v-2h-9.095l0.09-0.9l-1.99-0.199l-0.91,9.1H7.181L7.39,59.742z M49.905,61l-0.91-9.1l-1.99,0.199   l0.09,0.9H38v2h9.295l0.6,6H36.867l-1.823-12.763l1.193-1.79l2.255,2.706l2.216-8.863l8.263,2.755   c3.171,1.057,5.482,3.762,6.032,7.059l0.018,0.11l-4.16,1.04l0.812,4.868c0.271,1.629,1.541,2.941,3.161,3.265l1.776,0.355   L56.819,61H49.905z" /><path
       id="path12735"
       d="M17,19.026c-1.207,0.914-2,2.348-2,3.974c0,2.566,1.95,4.662,4.442,4.944c0.51,1.755,1.452,3.364,2.78,4.692l3.9,3.9   C27.066,37.48,28.321,38,29.657,38h4.687c1.335,0,2.591-0.52,3.535-1.464l3.9-3.9c1.328-1.328,2.27-2.938,2.78-4.692   C47.05,27.662,49,25.566,49,23c0-1.627-0.793-3.061-2-3.974v-3.459l6.077-3.646l-1.629-0.815c-0.038-0.019-3.772-1.924-6.59-6.62   L44.566,4H44c-0.067,0-6.777-0.033-11.485-2.857L32,0.834l-0.515,0.309C26.79,3.96,20.067,4,20,4l-0.566,0l-0.291,0.485   c-2.799,4.665-6.554,6.602-6.59,6.62l-1.629,0.815L17,15.566V19.026z M17,23c0-1.302,0.839-2.402,2-2.816v4.674   c0,0.327,0.019,0.651,0.047,0.973C17.862,25.43,17,24.319,17,23z M40.364,31.222l-3.9,3.9C35.906,35.68,35.133,36,34.343,36h-4.687   c-0.79,0-1.562-0.32-2.121-0.878l-3.9-3.9c-1.7-1.7-2.636-3.96-2.636-6.364v-5.618C23.454,18.682,27.39,18,32,18   c4.602,0,8.543,0.683,11,1.241v5.617C43,27.262,42.064,29.522,40.364,31.222z M30.658,13.211C29.635,12.7,29,11.672,29,10.528   V8.781l3-0.75l3,0.75v1.747c0,1.144-0.635,2.172-1.658,2.683L32,13.882L30.658,13.211z M44.953,25.83   C44.981,25.509,45,25.185,45,24.858v-4.674c1.161,0.414,2,1.514,2,2.816C47,24.319,46.138,25.43,44.953,25.83z M20.566,5.987   C22.31,5.922,27.681,5.527,32,3.153c4.319,2.375,9.69,2.769,11.434,2.834c1.942,3.062,4.205,4.979,5.65,5.996l-3.216,1.929   c-0.952-0.283-3.371-0.941-6.73-1.409l-0.276,1.98c2.892,0.403,5.087,0.962,6.138,1.26v1.922   c-2.193-0.588-6.923-1.636-12.769-1.664L34.236,15C35.941,14.148,37,12.434,37,10.528V7.219l-5-1.25l-5,1.25v3.309   c0,1.906,1.059,3.62,2.764,4.472l2.005,1.003C25.923,16.03,21.193,17.079,19,17.667v-1.922c1.051-0.297,3.247-0.856,6.138-1.26   l-0.276-1.98c-3.359,0.468-5.779,1.126-6.73,1.409l-3.216-1.929C16.361,10.966,18.624,9.049,20.566,5.987z" /></g></svg>
