<?xml version="1.0" encoding="UTF-8" standalone="no"?>
<svg
   xmlns:dc="http://purl.org/dc/elements/1.1/"
   xmlns:cc="http://creativecommons.org/ns#"
   xmlns:rdf="http://www.w3.org/1999/02/22-rdf-syntax-ns#"
   xmlns:svg="http://www.w3.org/2000/svg"
   xmlns="http://www.w3.org/2000/svg"
   xmlns:sodipodi="http://sodipodi.sourceforge.net/DTD/sodipodi-0.dtd"
   xmlns:inkscape="http://www.inkscape.org/namespaces/inkscape"
   inkscape:version="1.0beta2 (2b71d25, 2019-12-03)"
   sodipodi:docname="noun_Scientist_1469971.svg"
   id="svg13318"
   xml:space="preserve"
   style="enable-background:new 0 0 64 64;"
   viewBox="0 0 64 64"
   y="0px"
   x="0px"
   version="1.1"
   fill="#FFFFFF"
   width="100px"
   height="100px"><metadata
     id="metadata13324"><rdf:RDF><cc:Work
         rdf:about=""><dc:format>image/svg+xml</dc:format><dc:type
           rdf:resource="http://purl.org/dc/dcmitype/StillImage" /><dc:title></dc:title></cc:Work></rdf:RDF></metadata><defs
     id="defs13322" /><sodipodi:namedview
     inkscape:current-layer="svg13318"
     inkscape:window-maximized="0"
     inkscape:window-y="23"
     inkscape:window-x="0"
     inkscape:cy="50"
     inkscape:cx="4.2279412"
     inkscape:zoom="2.72"
     inkscape:pagecheckerboard="true"
     showgrid="false"
     id="namedview13320"
     inkscape:window-height="862"
     inkscape:window-width="1536"
     inkscape:pageshadow="2"
     inkscape:pageopacity="0"
     guidetolerance="10"
     gridtolerance="10"
     objecttolerance="10"
     borderopacity="1"
     inkscape:document-rotation="0"
     bordercolor="#666666"
     pagecolor="#ffffff" /><g
     inkscape:export-ydpi="253.44"
     inkscape:export-xdpi="253.44"
     inkscape:export-filename="/Users/Jonas/Transidious/Assets/Resources/Sprites/occupation_scientist.png"
     id="g13316"><path
       id="path13308"
       d="M49.604,41.147L41,38.279V37h-2v1.876l-1.493,5.971L33.468,40h-2.937l-4.039,4.847L25,38.876V37h-2v1.279l-8.604,2.868   c-3.875,1.292-6.7,4.598-7.372,8.627L4.819,63h54.361l-2.205-13.226C56.305,45.745,53.48,42.439,49.604,41.147z M23.292,40.29   l2.216,8.863L31.468,42h1.063l5.961,7.153l2.216-8.863l1.523,0.508l2.489,6.637l-5.101,2.04l2.209,4.419L36.5,61h-2.243   l2.717-11.775l-1.949-0.45L32.204,61h-0.408l-2.821-12.225l-1.949,0.45L29.743,61H27.5l-5.329-7.105l2.209-4.419l-5.101-2.04   l2.489-6.637L23.292,40.29z M8.997,50.104c0.549-3.297,2.861-6.001,6.032-7.059l4.299-1.433l-2.607,6.953l4.899,1.96l-1.791,3.581   L25,61h-8.895l0.89-8.9l-1.99-0.199l-0.91,9.1H7.181L8.997,50.104z M49.905,61l-0.91-9.1l-1.99,0.199l0.89,8.9H39l5.171-6.895   l-1.791-3.581l4.899-1.96l-2.607-6.953l4.299,1.433c3.171,1.057,5.482,3.762,6.032,7.059L56.819,61H49.905z" /><path
       id="path13310"
       d="M60,18c0-2.238-1.233-4.189-3.054-5.221C56.98,12.521,57,12.261,57,12c0-3.309-2.691-6-6-6   c-1.116,0-2.202,0.326-3.144,0.907C47.045,6.339,46.063,6,45,6c-0.821,0-1.615,0.217-2.329,0.595C40.32,3.218,36.417,1,32,1   s-8.32,2.218-10.671,5.595C20.615,6.217,19.821,6,19,6c-1.063,0-2.045,0.339-2.856,0.907C15.202,6.326,14.116,6,13,6   c-3.309,0-6,2.691-6,6c0,0.261,0.02,0.521,0.054,0.779C5.233,13.811,4,15.762,4,18c0,0.921,0.22,1.818,0.622,2.636   C4.238,21.343,4,22.14,4,23c0,1.641,0.806,3.088,2.031,4H6c0,3.86,3.14,7,7,7c1.637,0,3.189-0.558,4.437-1.585   C18.222,32.787,19.091,33,20,33c0.747,0,1.487-0.143,2.179-0.412c0.015,0.015,0.028,0.032,0.043,0.047l3.9,3.9   C27.066,37.48,28.321,38,29.657,38h4.687c1.335,0,2.591-0.52,3.535-1.464l3.9-3.9c0.015-0.015,0.028-0.032,0.043-0.048   C42.513,32.857,43.253,33,44,33c0.909,0,1.778-0.213,2.563-0.585C47.811,33.442,49.363,34,51,34c3.86,0,7-3.14,7-7h-0.031   C59.194,26.088,60,24.641,60,23c0-0.86-0.238-1.657-0.622-2.364C59.78,19.818,60,18.921,60,18z M45,24.858v-4.674   c1.161,0.414,2,1.514,2,2.816c0,1.319-0.862,2.43-2.047,2.83C44.981,25.509,45,25.185,45,24.858z M32,3c6.065,0,11,4.935,11,11v4   h-0.424c-0.774-1.763-2.531-3-4.576-3s-3.802,1.237-4.576,3h-2.848c-0.774-1.763-2.531-3-4.576-3s-3.802,1.237-4.576,3H21v-4   C21,7.935,25.935,3,32,3z M41,20c0,1.654-1.346,3-3,3s-3-1.346-3-3s1.346-3,3-3S41,18.346,41,20z M29,20c0,1.654-1.346,3-3,3   s-3-1.346-3-3s1.346-3,3-3S29,18.346,29,20z M19.047,25.83C17.862,25.43,17,24.319,17,23c0-1.302,0.839-2.402,2-2.816v4.674   C19,25.185,19.019,25.509,19.047,25.83z M20,31c-1.715,0-3.238-1.09-3.789-2.713l-1.894,0.644c0.296,0.871,0.784,1.634,1.4,2.262   C14.915,31.715,13.98,32,13,32c-2.446,0-4.479-1.768-4.908-4.092C8.387,27.963,8.689,28,9,28c1.503,0,2.913-0.667,3.867-1.831   l-1.546-1.269C10.748,25.6,9.902,26,9,26c-1.654,0-3-1.346-3-3s1.346-3,3-3v-2c-1.075,0-2.066,0.349-2.883,0.929   C6.045,18.626,6,18.316,6,18c0-2.206,1.794-4,4-4c1.613,0,3.061,0.961,3.688,2.448l1.843-0.777C14.591,13.441,12.42,12,10,12   c-0.339,0-0.67,0.035-0.994,0.089C9.005,12.059,9,12.03,9,12c0-2.206,1.794-4,4-4c0.609,0,1.201,0.152,1.742,0.415   C14.281,9.172,14,10.051,14,11h2c0-1.654,1.346-3,3-3c0.465,0,0.914,0.118,1.324,0.321C19.485,10.04,19,11.962,19,14v4.101   c-2.279,0.465-4,2.484-4,4.899c0,2.566,1.95,4.662,4.442,4.944c0.305,1.05,0.765,2.049,1.371,2.965C20.546,30.964,20.275,31,20,31z    M36.464,35.122C35.906,35.68,35.133,36,34.343,36h-4.687c-0.79,0-1.562-0.32-2.121-0.878l-3.9-3.9   c-1.7-1.7-2.636-3.96-2.636-6.364V20c0,2.757,2.243,5,5,5s5-2.243,5-5h2c0,2.757,2.243,5,5,5s5-2.243,5-5v4.858   c0,2.404-0.936,4.664-2.636,6.364L36.464,35.122z M55,26c-0.902,0-1.748-0.4-2.321-1.099l-1.546,1.269   C52.087,27.333,53.497,28,55,28c0.311,0,0.613-0.037,0.908-0.092C55.479,30.232,53.446,32,51,32c-0.98,0-1.915-0.285-2.717-0.807   c0.616-0.628,1.104-1.391,1.4-2.262l-1.894-0.644C47.238,29.91,45.715,31,44,31c-0.275,0-0.546-0.036-0.813-0.091   c0.607-0.917,1.066-1.915,1.371-2.965C47.05,27.662,49,25.566,49,23c0-2.414-1.721-4.434-4-4.899V14   c0-2.038-0.485-3.96-1.324-5.679C44.086,8.118,44.535,8,45,8c1.654,0,3,1.346,3,3h2c0-0.949-0.281-1.828-0.742-2.585   C49.799,8.152,50.391,8,51,8c2.206,0,4,1.794,4,4c0,0.03-0.005,0.059-0.006,0.089C54.67,12.035,54.339,12,54,12   c-2.42,0-4.591,1.441-5.531,3.67l1.843,0.777C50.939,14.961,52.387,14,54,14c2.206,0,4,1.794,4,4c0,0.316-0.045,0.626-0.117,0.929   C57.066,18.349,56.075,18,55,18v2c1.654,0,3,1.346,3,3S56.654,26,55,26z" /><path
       id="path13312"
       d="M32,7V5c-2.925,0-5.678,1.43-7.364,3.824l1.636,1.151C27.583,8.112,29.725,7,32,7z" /><path
       id="path13314"
       d="M25.509,11.375l-1.854-0.751c-0.292,0.721-0.489,1.479-0.585,2.253l1.984,0.247C25.129,12.523,25.282,11.935,25.509,11.375   z" /></g></svg>
