<?xml version="1.0" encoding="UTF-8" standalone="no"?>
<svg
   xmlns:dc="http://purl.org/dc/elements/1.1/"
   xmlns:cc="http://creativecommons.org/ns#"
   xmlns:rdf="http://www.w3.org/1999/02/22-rdf-syntax-ns#"
   xmlns:svg="http://www.w3.org/2000/svg"
   xmlns="http://www.w3.org/2000/svg"
   xmlns:sodipodi="http://sodipodi.sourceforge.net/DTD/sodipodi-0.dtd"
   xmlns:inkscape="http://www.inkscape.org/namespaces/inkscape"
   inkscape:version="1.0beta2 (2b71d25, 2019-12-03)"
   sodipodi:docname="noun_Sad_1538701.svg"
   id="svg9850"
   version="1.1"
   y="0px"
   x="0px"
   viewBox="0 0 32 32"
   fill="#FFFFFF"
   width="100px"
   height="100px">
  <metadata
     id="metadata9856">
    <rdf:RDF>
      <cc:Work
         rdf:about="">
        <dc:format>image/svg+xml</dc:format>
        <dc:type
           rdf:resource="http://purl.org/dc/dcmitype/StillImage" />
        <dc:title>Artboard 3</dc:title>
      </cc:Work>
    </rdf:RDF>
  </metadata>
  <defs
     id="defs9854" />
  <sodipodi:namedview
     inkscape:current-layer="svg9850"
     inkscape:window-maximized="0"
     inkscape:window-y="23"
     inkscape:window-x="0"
     inkscape:cy="50"
     inkscape:cx="4.2279412"
     inkscape:zoom="2.72"
     inkscape:pagecheckerboard="true"
     showgrid="false"
     id="namedview9852"
     inkscape:window-height="862"
     inkscape:window-width="1536"
     inkscape:pageshadow="2"
     inkscape:pageopacity="0"
     guidetolerance="10"
     gridtolerance="10"
     objecttolerance="10"
     borderopacity="1"
     inkscape:document-rotation="0"
     bordercolor="#666666"
     pagecolor="#ffffff" />
  <title
     id="title9838">Artboard 3</title>
  <g
     inkscape:export-ydpi="262.14401"
     inkscape:export-xdpi="262.14401"
     inkscape:export-filename="/Users/Jonas/Transidious/Assets/Resources/Sprites/ui_unhappy.png"
     id="g9848"
     data-name="Layer 2">
    <path
       id="path9840"
       d="M16,1A15,15,0,1,0,31,16,15,15,0,0,0,16,1Zm0,28A13,13,0,1,1,29,16,13,13,0,0,1,16,29Z" />
    <path
       id="path9842"
       d="M16,18a10,10,0,0,0-8.31,4.44,1,1,0,1,0,1.66,1.11,8,8,0,0,1,13.3,0,1,1,0,1,0,1.66-1.11A10,10,0,0,0,16,18Z" />
    <circle
       id="circle9844"
       r="1.5"
       cy="12.5"
       cx="11.5" />
    <circle
       id="circle9846"
       r="1.5"
       cy="12.5"
       cx="20.5" />
  </g>
</svg>
