<?xml version="1.0" encoding="UTF-8" standalone="no"?>
<svg
   xmlns:dc="http://purl.org/dc/elements/1.1/"
   xmlns:cc="http://creativecommons.org/ns#"
   xmlns:rdf="http://www.w3.org/1999/02/22-rdf-syntax-ns#"
   xmlns:svg="http://www.w3.org/2000/svg"
   xmlns="http://www.w3.org/2000/svg"
   xmlns:sodipodi="http://sodipodi.sourceforge.net/DTD/sodipodi-0.dtd"
   xmlns:inkscape="http://www.inkscape.org/namespaces/inkscape"
   inkscape:version="1.0beta2 (2b71d25, 2019-12-03)"
   sodipodi:docname="noun_student_652525.svg"
   id="svg21408"
   xml:space="preserve"
   enable-background="new 0 0 100 100"
   viewBox="0 0 100 100"
   y="0px"
   x="0px"
   version="1.1"
   fill="#FFFFFF"
   width="100px"
   height="100px"><metadata
     id="metadata21414"><rdf:RDF><cc:Work
         rdf:about=""><dc:format>image/svg+xml</dc:format><dc:type
           rdf:resource="http://purl.org/dc/dcmitype/StillImage" /><dc:title></dc:title></cc:Work></rdf:RDF></metadata><defs
     id="defs21412" /><sodipodi:namedview
     inkscape:current-layer="svg21408"
     inkscape:window-maximized="0"
     inkscape:window-y="23"
     inkscape:window-x="0"
     inkscape:cy="50"
     inkscape:cx="4.2279412"
     inkscape:zoom="2.72"
     inkscape:pagecheckerboard="true"
     showgrid="false"
     id="namedview21410"
     inkscape:window-height="862"
     inkscape:window-width="1536"
     inkscape:pageshadow="2"
     inkscape:pageopacity="0"
     guidetolerance="10"
     gridtolerance="10"
     objecttolerance="10"
     borderopacity="1"
     inkscape:document-rotation="0"
     bordercolor="#666666"
     pagecolor="#ffffff" /><g
     inkscape:export-ydpi="273.40784"
     inkscape:export-xdpi="273.40784"
     inkscape:export-filename="/Users/Jonas/Transidious/Assets/Resources/Sprites/occupation_student.png"
     id="g21406"><path
       id="path21400"
       d="M61.842,32.813L61.842,32.813c-0.234-0.124-0.476-0.239-0.742-0.315h-0.002h-0.593l-1.569,0.68l-6.224,2.694   c-1.576,0.683-4.157,0.683-5.735,0l-7.62-3.3c-1.322,0.449-2.313,1.253-3.039,2.176c-1.575,2.003-1.949,4.529-1.997,5   c-0.002,0.017-0.003,0.038-0.003,0.057c-0.002,0-0.002,0-0.002,0c-0.251-0.2-0.507-0.294-0.752-0.253   c-0.104,0.018-0.206,0.065-0.301,0.131c-0.222,0.157-0.394,0.452-0.521,0.832c-0.067,0.985-0.115,1.983-0.121,3.004   c0.011,0.097,0.024,0.189,0.042,0.286c0.163,0.919,0.439,1.741,0.772,2.377c0.2,0.382,0.419,0.697,0.648,0.925   c0.3,0.296,0.613,0.446,0.908,0.393c0.139-0.023,0.272-0.095,0.389-0.203c1.444,4.497,4.216,8.973,7.708,11.647   c2.011,1.539,4.266,2.481,6.643,2.481c1.828,0,3.583-0.563,5.21-1.521c0.534-0.314,1.055-0.674,1.563-1.067   c3.431-2.687,6.148-7.104,7.575-11.541c0.116,0.109,0.248,0.182,0.385,0.203c0.124,0.022,0.25,0.004,0.378-0.038   c0.134-0.044,0.278-0.125,0.411-0.241c0.592-0.505,1.147-1.644,1.451-3.033c0.033-0.132,0.069-0.248,0.091-0.385   c0.094-0.514,0.14-1.009,0.148-1.468c0,0,0-0.001,0-0.001c0.002-0.095-0.002-0.184-0.003-0.274c-0.002-0.077,0-0.155-0.004-0.229   c-0.003-0.072-0.011-0.139-0.017-0.208c-0.068-0.875-0.296-1.563-0.651-1.886c-0.063-0.058-0.131-0.104-0.202-0.138   c-0.054-0.022-0.115-0.045-0.176-0.054h-0.003c-0.05-0.009-0.112,0.01-0.168,0.014c-0.01,0.001-0.021,0.001-0.03,0.001   c-0.041,0.002-0.082,0.005-0.124,0.013c-0.014,0.002-0.026,0.001-0.04,0.007c-0.121,0.04-0.245,0.111-0.365,0.205l-0.016,0.015   c0,0,0,0,0-0.003c-0.002,0.001-0.002,0-0.002,0.001c-0.005,0.001-0.007,0.002-0.012,0.002c0,0,0,0,0-0.001c0-0.01,0-0.025,0-0.04   c-0.462-1.757-0.984-3.172-1.542-4.31c-0.494-1.007-1.015-1.785-1.547-2.397C61.978,32.971,61.91,32.885,61.842,32.813z"
       fill="none" /><path
       id="path21402"
       d="M76.01,15.598L52.712,5.513c-1.576-0.684-4.157-0.684-5.735,0L23.678,15.598   c-1.577,0.684-1.577,1.799,0,2.482l1.766,0.764l-0.149,1.186c-0.676,0.116-1.191,0.704-1.191,1.413   c0,0.639,0.415,1.181,0.992,1.363l-1.072,15.013c-0.044,0.625,0.081,1.626,0.28,2.221l0.869,2.611c0.199,0.596,0.522,0.596,0.722,0   l0.87-2.611c0.198-0.594,0.324-1.595,0.279-2.221l-1.07-15.013c0.573-0.185,0.993-0.725,0.993-1.363   c0-0.709-0.515-1.296-1.194-1.413l-0.137-1.102l4.076,1.765l1.997,0.864v7.706l0.005,0.003c-0.208,1.155-0.358,2.332-0.45,3.406   c-0.347,1.414-0.549,2.884-0.549,4.405h0.037c0,0.014-0.003,0.025-0.005,0.035c-0.024,0.002-0.042,0.004-0.066,0.008   c-1.312,0.229-1.914,3.035-1.336,6.269c0.529,2.97,1.864,5.265,3.105,5.439c1.571,4.229,4.061,8.341,7.14,11.342   c1.737,1.705,3.669,3.052,5.726,3.87c1.415,0.558,2.892,0.872,4.413,0.872c1.515,0,2.992-0.311,4.407-0.872   c2.129-0.849,4.125-2.26,5.911-4.046c3.004-2.996,5.437-7.046,6.972-11.201c1.189-0.349,2.431-2.569,2.938-5.407   c0.547-3.079,0.03-5.764-1.158-6.208c0.044-0.754,0.07-1.515,0.067-2.291c-0.006-2.362-0.32-4.543-0.884-6.539v-6.792l1.997-0.864   l6.03-2.612C77.588,17.397,77.588,16.281,76.01,15.598z M66.946,42.333c-0.009,0.459-0.055,0.955-0.148,1.468   c-0.021,0.137-0.058,0.253-0.091,0.385c-0.304,1.39-0.859,2.528-1.451,3.033c-0.133,0.116-0.277,0.197-0.411,0.241   c-0.128,0.042-0.254,0.061-0.378,0.038c-0.137-0.021-0.269-0.094-0.385-0.203c-1.427,4.436-4.145,8.854-7.575,11.541   c-0.509,0.394-1.029,0.753-1.563,1.067c-1.628,0.957-3.383,1.521-5.21,1.521c-2.377,0-4.632-0.942-6.643-2.481   c-3.492-2.674-6.265-7.15-7.708-11.647c-0.117,0.108-0.25,0.18-0.389,0.203c-0.295,0.053-0.608-0.097-0.908-0.393   c-0.229-0.228-0.448-0.543-0.648-0.925c-0.333-0.637-0.609-1.458-0.772-2.377c-0.017-0.097-0.03-0.189-0.042-0.286   c0.005-1.021,0.054-2.02,0.121-3.004c0.127-0.38,0.298-0.674,0.521-0.832c0.095-0.065,0.196-0.113,0.301-0.131   c0.245-0.041,0.5,0.054,0.752,0.253c0,0,0,0,0.002,0c0-0.019,0.001-0.04,0.003-0.057c0.048-0.471,0.422-2.997,1.997-5   c0.725-0.923,1.716-1.727,3.039-2.176l7.62,3.3c1.578,0.683,4.159,0.683,5.735,0l6.224-2.694l1.569-0.68h0.593H61.1   c0.267,0.076,0.508,0.191,0.741,0.315h0.001c0.068,0.073,0.136,0.159,0.203,0.237c0.532,0.612,1.053,1.39,1.547,2.397   c0.558,1.137,1.08,2.553,1.542,4.31c0,0.015,0,0.029,0,0.04c0,0.001,0,0.001,0,0.001c0.005,0,0.007-0.001,0.012-0.002   c0-0.001,0,0,0.002-0.001c0,0.003,0,0.003,0,0.003l0.016-0.015c0.12-0.094,0.244-0.166,0.365-0.205   c0.014-0.005,0.026-0.004,0.04-0.007c0.042-0.008,0.083-0.011,0.124-0.013c0.01,0,0.021,0,0.03-0.001   c0.056-0.003,0.118-0.023,0.168-0.014h0.003c0.061,0.009,0.122,0.032,0.176,0.054c0.071,0.033,0.139,0.08,0.202,0.138   c0.355,0.323,0.583,1.011,0.651,1.886c0.006,0.069,0.014,0.135,0.017,0.208c0.004,0.074,0.002,0.153,0.004,0.229   c0.001,0.09,0.005,0.179,0.003,0.274C66.946,42.331,66.946,42.332,66.946,42.333z"
       fill="#FFFFFF" /><path
       id="path21404"
       d="M86.594,81.376c-1.302-4.501-2.941-7.595-4.631-9.773c-3.284-4.241-6.738-4.925-8.209-5.207   c-0.182-0.032-0.332-0.062-0.453-0.09c-1.642-0.384-3.525-0.495-5.187-0.591c-1.337-0.08-2.613-0.148-3.651-0.357   c-1.207,3.196-7.145,5.521-14.455,5.521c-7.315,0-13.245-2.324-14.452-5.521c-1.045,0.209-2.321,0.282-3.657,0.359   c-1.661,0.094-3.544,0.205-5.184,0.589c-0.124,0.027-0.277,0.057-0.455,0.09c-1.388,0.27-4.544,0.875-7.66,4.509   c-1.876,2.191-3.738,5.479-5.187,10.464c-0.361,1.243-0.363,2.553-0.07,3.773c0.135,0.556,0.313,1.105,0.581,1.611   C17.134,92.832,34.646,95,49.961,95h0.086c15.317,0,32.823-2.168,36.04-8.247c0.313-0.584,0.499-1.224,0.632-1.881   C86.942,83.73,86.926,82.528,86.594,81.376z"
       fill="#FFFFFF" /></g></svg>
