<?xml version="1.0" encoding="UTF-8" standalone="no"?>
<svg
   xmlns:dc="http://purl.org/dc/elements/1.1/"
   xmlns:cc="http://creativecommons.org/ns#"
   xmlns:rdf="http://www.w3.org/1999/02/22-rdf-syntax-ns#"
   xmlns:svg="http://www.w3.org/2000/svg"
   xmlns="http://www.w3.org/2000/svg"
   xmlns:sodipodi="http://sodipodi.sourceforge.net/DTD/sodipodi-0.dtd"
   xmlns:inkscape="http://www.inkscape.org/namespaces/inkscape"
   inkscape:version="1.0beta2 (2b71d25, 2019-12-03)"
   sodipodi:docname="noun_embarrassed_1538704.svg"
   id="svg10431"
   version="1.1"
   y="0px"
   x="0px"
   viewBox="0 0 32 32"
   fill="#FFFFFF"
   width="100px"
   height="100px">
  <metadata
     id="metadata10437">
    <rdf:RDF>
      <cc:Work
         rdf:about="">
        <dc:format>image/svg+xml</dc:format>
        <dc:type
           rdf:resource="http://purl.org/dc/dcmitype/StillImage" />
        <dc:title>Artboard 6</dc:title>
      </cc:Work>
    </rdf:RDF>
  </metadata>
  <defs
     id="defs10435" />
  <sodipodi:namedview
     inkscape:current-layer="svg10431"
     inkscape:window-maximized="0"
     inkscape:window-y="23"
     inkscape:window-x="0"
     inkscape:cy="50"
     inkscape:cx="4.2279412"
     inkscape:zoom="2.72"
     inkscape:pagecheckerboard="true"
     showgrid="false"
     id="namedview10433"
     inkscape:window-height="862"
     inkscape:window-width="1536"
     inkscape:pageshadow="2"
     inkscape:pageopacity="0"
     guidetolerance="10"
     gridtolerance="10"
     objecttolerance="10"
     borderopacity="1"
     inkscape:document-rotation="0"
     bordercolor="#666666"
     pagecolor="#ffffff" />
  <title
     id="title10419">Artboard 6</title>
  <g
     inkscape:export-ydpi="262.14401"
     inkscape:export-xdpi="262.14401"
     inkscape:export-filename="/Users/Jonas/Transidious/Assets/Resources/Sprites/ui_medium_happy.png"
     id="g10429"
     data-name="Layer 2">
    <path
       id="path10421"
       d="M16,1A15,15,0,1,0,31,16,15,15,0,0,0,16,1Zm0,28A13,13,0,1,1,29,16,13,13,0,0,1,16,29Z" />
    <circle
       id="circle10423"
       r="1.5"
       cy="12.5"
       cx="11.5" />
    <circle
       id="circle10425"
       r="1.5"
       cy="12.5"
       cx="20.5" />
    <path
       id="path10427"
       d="M20,21H12a1,1,0,0,0,0,2h8a1,1,0,0,0,0-2Z" />
  </g>
</svg>
