<?xml version="1.0" encoding="UTF-8" standalone="no"?>
<svg
   xmlns:dc="http://purl.org/dc/elements/1.1/"
   xmlns:cc="http://creativecommons.org/ns#"
   xmlns:rdf="http://www.w3.org/1999/02/22-rdf-syntax-ns#"
   xmlns:svg="http://www.w3.org/2000/svg"
   xmlns="http://www.w3.org/2000/svg"
   xmlns:sodipodi="http://sodipodi.sourceforge.net/DTD/sodipodi-0.dtd"
   xmlns:inkscape="http://www.inkscape.org/namespaces/inkscape"
   inkscape:version="1.0beta2 (2b71d25, 2019-12-03)"
   sodipodi:docname="noun_Judge_1469975.svg"
   id="svg18507"
   xml:space="preserve"
   style="enable-background:new 0 0 64 64;"
   viewBox="0 0 64 64"
   y="0px"
   x="0px"
   version="1.1"
   fill="#FFFFFF"
   width="100px"
   height="100px"><metadata
     id="metadata18513"><rdf:RDF><cc:Work
         rdf:about=""><dc:format>image/svg+xml</dc:format><dc:type
           rdf:resource="http://purl.org/dc/dcmitype/StillImage" /><dc:title></dc:title></cc:Work></rdf:RDF></metadata><defs
     id="defs18511" /><sodipodi:namedview
     inkscape:current-layer="svg18507"
     inkscape:window-maximized="0"
     inkscape:window-y="23"
     inkscape:window-x="0"
     inkscape:cy="50"
     inkscape:cx="4.2279412"
     inkscape:zoom="2.72"
     inkscape:pagecheckerboard="true"
     showgrid="false"
     id="namedview18509"
     inkscape:window-height="862"
     inkscape:window-width="1536"
     inkscape:pageshadow="2"
     inkscape:pageopacity="0"
     guidetolerance="10"
     gridtolerance="10"
     objecttolerance="10"
     borderopacity="1"
     inkscape:document-rotation="0"
     bordercolor="#666666"
     pagecolor="#ffffff" /><g
     inkscape:export-ydpi="253.16972"
     inkscape:export-xdpi="253.16972"
     inkscape:export-filename="/Users/Jonas/Transidious/Assets/Resources/Sprites/occupation_judge.png"
     id="g18505"><path
       id="path18501"
       d="M56.976,49.774c-0.631-3.787-3.177-6.912-6.697-8.35C51.887,40.592,53,38.932,53,37c0-0.889-0.241-1.754-0.687-2.517   C52.738,33.749,53,32.908,53,32c0-0.886-0.245-1.754-0.688-2.514C52.738,28.75,53,27.909,53,27c0-0.886-0.245-1.754-0.688-2.514   C52.738,23.75,53,22.909,53,22c0-2.757-2.243-5-5-5c-0.342,0-0.677,0.035-1,0.101V16c0-8.271-6.729-15-15-15S17,7.729,17,16v1.101   C16.677,17.035,16.342,17,16,17c-2.757,0-5,2.243-5,5c0,0.909,0.262,1.75,0.688,2.485C11.245,25.245,11,26.113,11,27   c0,0.909,0.262,1.75,0.688,2.485C11.245,30.245,11,31.113,11,32c0,0.909,0.262,1.75,0.688,2.485C11.245,35.245,11,36.113,11,37   c0,1.932,1.113,3.592,2.721,4.425c-3.52,1.438-6.066,4.563-6.697,8.35L4.819,63h54.361L56.976,49.774z M43,61h-7v-2h5v-2h-5v-7.764   l4.507-9.013l7.083,2.361L43,51.764V61z M13,32c0-0.314,0.053-0.617,0.145-0.906C13.956,31.661,14.937,32,16,32   c1.063,0,2.044-0.339,2.855-0.906C18.947,31.384,19,31.687,19,32c0,1.654-1.346,3-3,3S13,33.654,13,32z M13.145,26.094   C13.956,26.661,14.937,27,16,27c1.063,0,2.044-0.339,2.855-0.906C18.947,26.384,19,26.687,19,27c0,1.654-1.346,3-3,3s-3-1.346-3-3   C13,26.686,13.053,26.383,13.145,26.094z M43,20v4.858c0,2.404-0.936,4.664-2.636,6.364l-3.9,3.899   C35.906,35.68,35.133,36,34.343,36h-4.687c-0.79,0-1.562-0.32-2.121-0.879l-3.9-3.899c-1.7-1.7-2.636-3.96-2.636-6.364V20h2v-1   c0-1.103,0.897-2,2-2h14c1.103,0,2,0.897,2,2v1H43z M50.855,26.094C50.947,26.384,51,26.687,51,27c0,1.654-1.346,3-3,3   s-3-1.346-3-3c0-0.314,0.053-0.617,0.145-0.906C45.956,26.661,46.937,27,48,27C49.063,27,50.044,26.661,50.855,26.094z M51,32   c0,1.654-1.346,3-3,3s-3-1.346-3-3c0-0.314,0.053-0.617,0.145-0.906C45.956,31.661,46.937,32,48,32   c1.063,0,2.044-0.339,2.855-0.906C50.947,31.384,51,31.687,51,32z M23.493,40.223L28,49.236V57h-5v2h5v2h-7v-9.236l-4.59-9.18   L23.493,40.223z M25,38.764V37h-2v1.279l-2.482,0.827C20.819,38.464,21,37.755,21,37c0-0.889-0.241-1.754-0.687-2.517   C20.738,33.749,21,32.908,21,32c0-0.328-0.042-0.653-0.106-0.972c0.388,0.57,0.829,1.11,1.327,1.608l3.9,3.899   c0.944,0.944,2.2,1.465,3.535,1.465h4.687c1.335,0,2.591-0.521,3.535-1.465l3.9-3.899c0.498-0.498,0.939-1.038,1.327-1.608   C43.042,31.348,43,31.672,43,32c0,0.909,0.262,1.75,0.688,2.485C43.245,35.245,43,36.113,43,37c0,0.755,0.181,1.464,0.482,2.107   L41,38.279V37h-2v1.764l-5,10V61h-4V48.764L25,38.764z M48,40c-1.654,0-3-1.346-3-3c0-0.314,0.053-0.617,0.145-0.906   C45.956,36.661,46.937,37,48,37c1.063,0,2.044-0.339,2.855-0.906C50.948,36.385,51,36.69,51,37C51,38.654,49.654,40,48,40z M51,22   c0,1.654-1.346,3-3,3s-3-1.346-3-3s1.346-3,3-3S51,20.346,51,22z M19,16c0-7.168,5.832-13,13-13s13,5.832,13,13v2h-2.126   c-0.445-1.723-2.013-3-3.874-3H25c-1.86,0-3.428,1.277-3.874,3H19V16z M16,19c1.654,0,3,1.346,3,3s-1.346,3-3,3s-3-1.346-3-3   S14.346,19,16,19z M13.145,36.094C13.956,36.661,14.937,37,16,37c1.063,0,2.044-0.339,2.855-0.906C18.948,36.385,19,36.69,19,37   c0,1.654-1.346,3-3,3s-3-1.346-3-3C13,36.686,13.053,36.383,13.145,36.094z M8.997,50.103c0.518-3.11,2.616-5.675,5.514-6.846   L19,52.236V61h-2.895l0.89-8.9l-1.99-0.199l-0.91,9.1H7.181L8.997,50.103z M49.905,61l-0.91-9.1l-1.99,0.199l0.89,8.9H45v-8.764   l4.49-8.979c2.898,1.17,4.995,3.736,5.514,6.846L56.819,61H49.905z" /><rect
       id="rect18503"
       height="2"
       width="6"
       y="41"
       x="29" /></g></svg>
