<?xml version="1.0" encoding="UTF-8" standalone="no"?>
<!-- Created with Inkscape (http://www.inkscape.org/) -->

<svg
   xmlns:dc="http://purl.org/dc/elements/1.1/"
   xmlns:cc="http://creativecommons.org/ns#"
   xmlns:rdf="http://www.w3.org/1999/02/22-rdf-syntax-ns#"
   xmlns:svg="http://www.w3.org/2000/svg"
   xmlns="http://www.w3.org/2000/svg"
   xmlns:sodipodi="http://sodipodi.sourceforge.net/DTD/sodipodi-0.dtd"
   xmlns:inkscape="http://www.inkscape.org/namespaces/inkscape"
   width="210mm"
   height="297mm"
   viewBox="0 0 210 297"
   version="1.1"
   id="svg8"
   inkscape:version="0.92.3 (2405546, 2018-03-11)"
   sodipodi:docname="stop_ring.svg">
  <defs
     id="defs2" />
  <sodipodi:namedview
     id="base"
     pagecolor="#485eff"
     bordercolor="#666666"
     borderopacity="1.0"
     inkscape:pageopacity="0"
     inkscape:pageshadow="2"
     inkscape:zoom="0.98994949"
     inkscape:cx="287.26435"
     inkscape:cy="790.45325"
     inkscape:document-units="mm"
     inkscape:current-layer="layer1"
     showgrid="false"
     inkscape:window-width="1853"
     inkscape:window-height="1025"
     inkscape:window-x="67"
     inkscape:window-y="27"
     inkscape:window-maximized="1" />
  <metadata
     id="metadata5">
    <rdf:RDF>
      <cc:Work
         rdf:about="">
        <dc:format>image/svg+xml</dc:format>
        <dc:type
           rdf:resource="http://purl.org/dc/dcmitype/StillImage" />
        <dc:title></dc:title>
      </cc:Work>
    </rdf:RDF>
  </metadata>
  <g
     inkscape:label="Ebene 1"
     inkscape:groupmode="layer"
     id="layer1">
    <g
       id="g1508"
       inkscape:export-xdpi="258.82001"
       inkscape:export-ydpi="258.82001">
      <path
         id="path945"
         d="M 136.04019,72.760864 A 50.24667,50.24667 0 0 1 85.793518,123.00753 50.24667,50.24667 0 0 1 35.546848,72.760864 50.24667,50.24667 0 0 1 85.793518,22.514194 50.24667,50.24667 0 0 1 136.04019,72.760864 Z"
         style="fill:#000000;fill-opacity:1;stroke:none;stroke-width:0.26458332;stroke-opacity:1" />
      <path
         id="circle1501"
         d="M 117.59859,72.760864 A 31.805073,31.805073 0 0 1 85.793518,104.56594 31.805073,31.805073 0 0 1 53.988445,72.760864 31.805073,31.805073 0 0 1 85.793518,40.955791 31.805073,31.805073 0 0 1 117.59859,72.760864 Z"
         style="fill:#ffffff;fill-opacity:1;stroke:none;stroke-width:0.16747561;stroke-opacity:1" />
    </g>
  </g>
</svg>
