<?xml version="1.0" encoding="UTF-8" standalone="no"?>
<svg
   xmlns:dc="http://purl.org/dc/elements/1.1/"
   xmlns:cc="http://creativecommons.org/ns#"
   xmlns:rdf="http://www.w3.org/1999/02/22-rdf-syntax-ns#"
   xmlns:svg="http://www.w3.org/2000/svg"
   xmlns="http://www.w3.org/2000/svg"
   xmlns:sodipodi="http://sodipodi.sourceforge.net/DTD/sodipodi-0.dtd"
   xmlns:inkscape="http://www.inkscape.org/namespaces/inkscape"
   inkscape:version="1.0beta2 (2b71d25, 2019-12-03)"
   sodipodi:docname="trash.svg"
   id="svg1458"
   xml:space="preserve"
   enable-background="new 0 0 100 100"
   viewBox="0 0 100 100"
   y="0px"
   x="0px"
   version="1.1"
   fill="#000000"
   width="100px"
   height="100px"><metadata
     id="metadata1464"><rdf:RDF><cc:Work
         rdf:about=""><dc:format>image/svg+xml</dc:format><dc:type
           rdf:resource="http://purl.org/dc/dcmitype/StillImage" /><dc:title></dc:title></cc:Work></rdf:RDF></metadata><defs
     id="defs1462" /><sodipodi:namedview
     inkscape:current-layer="svg1458"
     inkscape:window-maximized="0"
     inkscape:window-y="23"
     inkscape:window-x="0"
     inkscape:cy="50"
     inkscape:cx="4.2279412"
     inkscape:zoom="2.72"
     inkscape:pagecheckerboard="true"
     showgrid="false"
     id="namedview1460"
     inkscape:window-height="862"
     inkscape:window-width="1536"
     inkscape:pageshadow="2"
     inkscape:pageopacity="0"
     guidetolerance="10"
     gridtolerance="10"
     objecttolerance="10"
     borderopacity="1"
     inkscape:document-rotation="0"
     bordercolor="#666666"
     pagecolor="#ffffff" /><g
     inkscape:export-ydpi="250.66667"
     inkscape:export-xdpi="250.66667"
     inkscape:export-filename="/Users/Jonas/Transidious/Assets/Resources/Sprites/trash.png"
     style="fill:#ffffff;fill-opacity:1"
     id="g2029"><path
       style="fill:#ffffff;fill-opacity:1"
       d="M65,15.437V8c0-3.86-3.141-7-7-7H42c-3.86,0-7,3.14-7,7v7.437C14.017,16.816,14,21,14,21v10h72V21  C86,21,85.982,16.816,65,15.437z M43,9h14v6.086C54.828,15.032,52.51,15,50,15c-2.51,0-4.828,0.032-7,0.086V9z"
       id="path1454" /><path
       style="fill:#ffffff;fill-opacity:1"
       d="M19,37l6,62h50l6-62H19z M35.167,88.995C35.11,88.998,35.053,89,34.998,89c-1.581,0-2.904-1.236-2.993-2.834l-2-36  c-0.092-1.654,1.175-3.07,2.829-3.162c1.663-0.089,3.07,1.175,3.162,2.829l2,36C38.087,87.488,36.821,88.903,35.167,88.995z M53,86  c0,1.657-1.343,3-3,3c-1.657,0-3-1.343-3-3V50c0-1.657,1.343-3,3-3c1.657,0,3,1.343,3,3V86z M67.995,86.166  C67.906,87.764,66.583,89,65.003,89c-0.057,0-0.112-0.002-0.169-0.005c-1.654-0.092-2.921-1.507-2.829-3.161l2-36  c0.093-1.655,1.533-2.906,3.161-2.829c1.654,0.092,2.921,1.508,2.829,3.162L67.995,86.166z"
       id="path1456" /></g></svg>
