<?xml version="1.0" encoding="UTF-8" standalone="no"?>
<svg
   xmlns:dc="http://purl.org/dc/elements/1.1/"
   xmlns:cc="http://creativecommons.org/ns#"
   xmlns:rdf="http://www.w3.org/1999/02/22-rdf-syntax-ns#"
   xmlns:svg="http://www.w3.org/2000/svg"
   xmlns="http://www.w3.org/2000/svg"
   xmlns:sodipodi="http://sodipodi.sourceforge.net/DTD/sodipodi-0.dtd"
   xmlns:inkscape="http://www.inkscape.org/namespaces/inkscape"
   inkscape:export-ydpi="278.9866"
   inkscape:export-xdpi="278.9866"
   inkscape:export-filename="/Users/Jonas/Transidious/Assets/Resources/Sprites/ui_bus_stop.png"
   inkscape:version="1.0beta2 (2b71d25, 2019-12-03)"
   sodipodi:docname="ui_bus_stop.svg"
   id="svg2073"
   xml:space="preserve"
   enable-background="new 0 0 100 100"
   viewBox="0 0 100 100"
   y="0px"
   x="0px"
   version="1.1"
   fill="#FFFFFF"
   width="100px"
   height="100px"><metadata
     id="metadata2079"><rdf:RDF><cc:Work
         rdf:about=""><dc:format>image/svg+xml</dc:format><dc:type
           rdf:resource="http://purl.org/dc/dcmitype/StillImage" /><dc:title></dc:title></cc:Work></rdf:RDF></metadata><defs
     id="defs2077" /><sodipodi:namedview
     inkscape:current-layer="svg2073"
     inkscape:window-maximized="0"
     inkscape:window-y="23"
     inkscape:window-x="0"
     inkscape:cy="50"
     inkscape:cx="4.2279412"
     inkscape:zoom="2.72"
     inkscape:pagecheckerboard="true"
     showgrid="false"
     id="namedview2075"
     inkscape:window-height="862"
     inkscape:window-width="1536"
     inkscape:pageshadow="2"
     inkscape:pageopacity="0"
     guidetolerance="10"
     gridtolerance="10"
     objecttolerance="10"
     borderopacity="1"
     inkscape:document-rotation="0"
     bordercolor="#666666"
     pagecolor="#ffffff" /><g
     id="g2071"><path
       id="path2055"
       d="M34.637,40.555h30.727c0.43,0,2.334-0.348,2.334-0.777l-1.555-11.279c0-0.43-0.35-0.778-0.779-0.778H34.637   c-0.432,0-0.779,0.349-0.779,0.778l-1.555,11.279C32.303,40.208,34.205,40.555,34.637,40.555z"
       fill="none" /><path
       id="path2057"
       d="M43.51,25.045h12.98c0.43,0,0.779-0.348,0.779-0.777v-1.896c0-0.43-0.35-0.777-0.779-0.777H43.51   c-0.43,0-0.779,0.348-0.779,0.777v1.896C42.73,24.698,43.08,25.045,43.51,25.045z"
       fill="none" /><ellipse
       id="ellipse2059"
       ry="2.118"
       rx="1.993"
       cy="46.175"
       cx="63.03"
       fill="none" /><ellipse
       id="ellipse2061"
       ry="2.118"
       rx="1.993"
       cy="46.175"
       cx="36.97"
       fill="none" /><path
       id="path2063"
       d="M67.879,54.525h-35.76c-0.275,0-0.5,0.225-0.5,0.501s0.225,0.501,0.5,0.501h35.76   c0.277,0,0.502-0.225,0.502-0.501S68.156,54.525,67.879,54.525z"
       fill="none" /><path
       id="path2065"
       d="M49.967,11.051c-17.186,0-31.309,13.988-31.309,31.305c0,17.187,14.123,31.173,31.309,31.173   c17.318,0,31.307-13.986,31.307-31.173C81.273,25.04,67.285,11.051,49.967,11.051z M71.027,56.762c0,0.689-0.348,1.248-0.777,1.248   h-3.33v4.008c0,0.43-0.348,0.777-0.777,0.777h-4.279c-0.43,0-0.777-0.348-0.777-0.777V58.01H38.914v4.008   c0,0.43-0.348,0.777-0.777,0.777h-4.279c-0.43,0-0.777-0.348-0.777-0.777V58.01h-3.33c-0.43,0-0.779-0.559-0.779-1.248v-1.248   c0-0.689,0.35-1.248,0.779-1.248h0.055V39.485c0-0.014,0.01-0.023,0.01-0.037c0-0.013-0.01-0.023-0.01-0.036l3.514-15.688   c0-0.09,0.025-0.174,0.063-0.252c0-0.008-0.004-0.017-0.004-0.025c0-2.342,7.441-4.24,16.623-4.24c9.18,0,16.623,1.898,16.623,4.24   c0,0.009-0.006,0.018-0.006,0.025c0.037,0.078,0.064,0.162,0.064,0.252l3.512,15.688c0,0.013-0.008,0.023-0.008,0.036   c0,0.014,0.008,0.023,0.008,0.037v14.781h0.057c0.43,0,0.777,0.559,0.777,1.248V56.762z"
       fill="none" /><path
       id="path2067"
       d="M70.25,54.266h-0.057V39.485c0-0.014-0.008-0.023-0.008-0.037c0-0.013,0.008-0.023,0.008-0.036l-3.512-15.688   c0-0.09-0.027-0.174-0.064-0.252c0-0.008,0.006-0.017,0.006-0.025c0-2.342-7.443-4.24-16.623-4.24   c-9.182,0-16.623,1.898-16.623,4.24c0,0.009,0.004,0.018,0.004,0.025c-0.037,0.078-0.063,0.162-0.063,0.252l-3.514,15.688   c0,0.013,0.01,0.023,0.01,0.036c0,0.014-0.01,0.023-0.01,0.037v14.781H29.75c-0.43,0-0.779,0.559-0.779,1.248v1.248   c0,0.689,0.35,1.248,0.779,1.248h3.33v4.008c0,0.43,0.348,0.777,0.777,0.777h4.279c0.43,0,0.777-0.348,0.777-0.777V58.01h22.172   v4.008c0,0.43,0.348,0.777,0.777,0.777h4.279c0.43,0,0.777-0.348,0.777-0.777V58.01h3.33c0.43,0,0.777-0.559,0.777-1.248v-1.248   C71.027,54.824,70.68,54.266,70.25,54.266z M42.73,22.372c0-0.43,0.35-0.777,0.779-0.777h12.98c0.43,0,0.779,0.348,0.779,0.777   v1.896c0,0.43-0.35,0.777-0.779,0.777H43.51c-0.43,0-0.779-0.348-0.779-0.777V22.372z M33.857,28.499   c0-0.43,0.348-0.778,0.779-0.778h30.727c0.43,0,0.779,0.349,0.779,0.778l1.555,11.279c0,0.43-1.904,0.777-2.334,0.777H34.637   c-0.432,0-2.334-0.348-2.334-0.777L33.857,28.499z M65.023,46.175c0,1.17-0.893,2.118-1.994,2.118c-1.1,0-1.992-0.948-1.992-2.118   c0-1.171,0.893-2.119,1.992-2.119C64.131,44.056,65.023,45.004,65.023,46.175z M38.963,46.175c0,1.17-0.893,2.118-1.994,2.118   c-1.1,0-1.992-0.948-1.992-2.118c0-1.171,0.893-2.119,1.992-2.119C38.07,44.056,38.963,45.004,38.963,46.175z M67.879,55.527   h-35.76c-0.275,0-0.5-0.225-0.5-0.501s0.225-0.501,0.5-0.501h35.76c0.277,0,0.502,0.225,0.502,0.501S68.156,55.527,67.879,55.527z" /><path
       id="path2069"
       d="M75.813,16.646c-14.256-14.255-37.305-14.255-51.557,0C9.869,31.034,9.869,54.08,24.123,68.334l25.844,25.711   l25.846-25.844C90.064,53.946,90.197,30.901,75.813,16.646z M49.967,73.529c-17.186,0-31.309-13.986-31.309-31.173   c0-17.316,14.123-31.305,31.309-31.305c17.318,0,31.307,13.988,31.307,31.305C81.273,59.543,67.285,73.529,49.967,73.529z" /></g></svg>
