<?xml version="1.0" encoding="UTF-8" standalone="no"?>
<svg
   xmlns:dc="http://purl.org/dc/elements/1.1/"
   xmlns:cc="http://creativecommons.org/ns#"
   xmlns:rdf="http://www.w3.org/1999/02/22-rdf-syntax-ns#"
   xmlns:svg="http://www.w3.org/2000/svg"
   xmlns="http://www.w3.org/2000/svg"
   xmlns:sodipodi="http://sodipodi.sourceforge.net/DTD/sodipodi-0.dtd"
   xmlns:inkscape="http://www.inkscape.org/namespaces/inkscape"
   inkscape:version="1.0beta2 (2b71d25, 2019-12-03)"
   sodipodi:docname="ui_color palette.svg"
   id="svg869"
   version="1.1"
   y="0px"
   x="0px"
   viewBox="0 0 48 48"
   data-name="Layer 1"
   fill="#FFFFFF"
   width="100px"
   height="100px">
  <metadata
     id="metadata875">
    <rdf:RDF>
      <cc:Work
         rdf:about="">
        <dc:format>image/svg+xml</dc:format>
        <dc:type
           rdf:resource="http://purl.org/dc/dcmitype/StillImage" />
        <dc:title>stationery solid icons</dc:title>
      </cc:Work>
    </rdf:RDF>
  </metadata>
  <defs
     id="defs873" />
  <sodipodi:namedview
     inkscape:current-layer="svg869"
     inkscape:window-maximized="0"
     inkscape:window-y="23"
     inkscape:window-x="0"
     inkscape:cy="50"
     inkscape:cx="4.2279412"
     inkscape:zoom="2.72"
     inkscape:pagecheckerboard="true"
     showgrid="false"
     id="namedview871"
     inkscape:window-height="862"
     inkscape:window-width="1536"
     inkscape:pageshadow="2"
     inkscape:pageopacity="0"
     guidetolerance="10"
     gridtolerance="10"
     objecttolerance="10"
     borderopacity="1"
     inkscape:document-rotation="0"
     bordercolor="#666666"
     pagecolor="#ffffff" />
  <title
     id="title859">stationery solid icons</title>
  <g
     inkscape:export-ydpi="245.49879"
     inkscape:export-xdpi="245.49879"
     inkscape:export-filename="/Users/Jonas/Transidious/Assets/Resources/Sprites/ui_color_palette.png"
     id="g867"
     data-name="Group">
    <path
       id="path861"
       d="M47.44,47.8c-.81.47-1.68-.34-2-.65A17.39,17.39,0,0,1,43.56,45a73.78,73.78,0,0,1-4.88-7.51A64.94,64.94,0,0,1,34.05,28a.85.85,0,0,1,.09-.73.8.8,0,0,1,.63-.36,1.53,1.53,0,0,0,.47-.11,1.91,1.91,0,0,0,.27-.16,1.44,1.44,0,0,0,.28-.27.81.81,0,0,1,1.27,0,65.39,65.39,0,0,1,5.81,8.67,73,73,0,0,1,4.06,8,17.71,17.71,0,0,1,.94,2.7C48,46.18,48.25,47.33,47.44,47.8ZM35.91,28.33a71.57,71.57,0,0,0,4.18,8.32,77.4,77.4,0,0,0,4.37,6.79,26.05,26.05,0,0,0,1.65,2.06,25.36,25.36,0,0,0-1-2.46,75.56,75.56,0,0,0-3.7-7.17,67.93,67.93,0,0,0-5.11-7.78A3.62,3.62,0,0,1,35.91,28.33Z"
       data-name="Compound Path" />
    <path
       id="path863"
       d="M36.61,22.91a3.14,3.14,0,0,1-1.2,3.17l-.23.15-.28.14a3.3,3.3,0,0,1-2.73-.05,5.27,5.27,0,0,1-2.08-1.67c-1.65-2.25-.25-5.39-.57-7.94a11,11,0,0,1-.24-1.65c.2-.12,1.2.41,1.51.59a12.71,12.71,0,0,1,4.63,4.11A7.76,7.76,0,0,1,36.61,22.91Z"
       data-name="Path" />
    <path
       id="path865"
       d="M45.17,9.08c-2.06-7.42-15.37-9-21.54-9C10.58.06,0,10.07,0,22.41S10.57,44.75,23.61,44.76c2.75,0,7.23-.07,8.18-3.32,1.19-4.12-4.32-8.42-5.4-12,0-.09-.05-.19-.08-.28a9,9,0,0,1,1.91-8.39c0-.43.07-.86.12-1.28a12.1,12.1,0,0,0,.1-2.65,1.49,1.49,0,0,1,0-.22c0-.23-.11-.58-.16-.88s0-.32,0-.43a1.16,1.16,0,0,1,.54-1.21,1.34,1.34,0,0,1,.63-.16,2.76,2.76,0,0,1,1.18.35,8.15,8.15,0,0,1,.79.4,17.23,17.23,0,0,1,3,2.09c.36-.12.72-.23,1.09-.32C39.14,15.52,46.75,14.8,45.17,9.08ZM16.09,6.68a3.8,3.8,0,1,1-3.8,3.8A3.8,3.8,0,0,1,16.09,6.68ZM9.58,14.79a3.8,3.8,0,1,1-3.8,3.8A3.8,3.8,0,0,1,9.58,14.79Zm0,18a3.8,3.8,0,1,1,3.8-3.8A3.8,3.8,0,0,1,9.58,32.79Zm7.6,6.73A3.8,3.8,0,1,1,21,35.72,3.8,3.8,0,0,1,17.18,39.52Zm13.63-27a4.66,4.66,0,1,1,4.65-4.65A4.65,4.65,0,0,1,30.81,12.53Z"
       data-name="Compound Path" />
  </g>
</svg>
