<?xml version="1.0" encoding="UTF-8" standalone="no"?>
<svg
   xmlns:dc="http://purl.org/dc/elements/1.1/"
   xmlns:cc="http://creativecommons.org/ns#"
   xmlns:rdf="http://www.w3.org/1999/02/22-rdf-syntax-ns#"
   xmlns:svg="http://www.w3.org/2000/svg"
   xmlns="http://www.w3.org/2000/svg"
   xmlns:sodipodi="http://sodipodi.sourceforge.net/DTD/sodipodi-0.dtd"
   xmlns:inkscape="http://www.inkscape.org/namespaces/inkscape"
   inkscape:version="1.0beta2 (2b71d25, 2019-12-03)"
   sodipodi:docname="ui_info.svg"
   id="svg1466"
   y="0px"
   x="0px"
   version="1.1"
   viewBox="0 0 72 80"
   fill="#FFFFFF"
   width="100px"
   height="100px">
  <metadata
     id="metadata1472">
    <rdf:RDF>
      <cc:Work
         rdf:about="">
        <dc:format>image/svg+xml</dc:format>
        <dc:type
           rdf:resource="http://purl.org/dc/dcmitype/StillImage" />
        <dc:title>Combined Shape</dc:title>
      </cc:Work>
    </rdf:RDF>
  </metadata>
  <defs
     id="defs1470" />
  <sodipodi:namedview
     inkscape:current-layer="svg1466"
     inkscape:window-maximized="0"
     inkscape:window-y="23"
     inkscape:window-x="0"
     inkscape:cy="50"
     inkscape:cx="4.2279412"
     inkscape:zoom="2.72"
     inkscape:pagecheckerboard="true"
     showgrid="false"
     id="namedview1468"
     inkscape:window-height="862"
     inkscape:window-width="1536"
     inkscape:pageshadow="2"
     inkscape:pageopacity="0"
     guidetolerance="10"
     gridtolerance="10"
     objecttolerance="10"
     borderopacity="1"
     inkscape:document-rotation="0"
     bordercolor="#666666"
     pagecolor="#ffffff" />
  <title
     id="title1456">Combined Shape</title>
  <desc
     id="desc1458">Created with Sketch.</desc>
  <g
     inkscape:export-ydpi="245.33333"
     inkscape:export-xdpi="245.33333"
     inkscape:export-filename="/Users/Jonas/Transidious/Assets/Resources/Sprites/ui_info.png"
     id="g1464"
     fill-rule="evenodd"
     fill="none"
     stroke-width="1"
     stroke="none">
    <g
       id="g1462"
       fill="#FFFFFF">
      <path
         id="path1460"
         d="M26.175136,70.6429866 C11.068341,66.3670651 0,52.476107 0,35.9999995 C0,16.1177488 16.1177488,0 35.9999995,0 C55.8822501,0 71.9999989,16.1177488 71.9999989,35.9999995 C71.9999989,52.4761065 60.9316587,66.3670641 45.8248645,70.6429862 L36,80 L26.175136,70.6429866 Z M35.9999995,61.1999991 C49.9175749,61.1999991 61.1999991,49.9175749 61.1999991,35.9999995 C61.1999991,22.082424 49.9175749,10.7999998 35.9999995,10.7999998 C22.082424,10.7999998 10.7999998,22.082424 10.7999998,35.9999995 C10.7999998,49.9175749 22.082424,61.1999991 35.9999995,61.1999991 Z M32,21.9866221 C32,19.3288607 33.33332,18 36,18 C38.66668,18 40,19.3288607 40,21.9866221 C40,23.2530721 39.66667,24.2385695 39,24.9431438 C38.33333,25.6477181 37.33334,26 36,26 C33.33332,26 32,24.6622207 32,21.9866221 Z M40,54 L32,54 L32,28 L40,28 L40,54 Z" />
    </g>
  </g>
</svg>
