<?xml version="1.0" encoding="UTF-8" standalone="no"?>
<svg
   xmlns:dc="http://purl.org/dc/elements/1.1/"
   xmlns:cc="http://creativecommons.org/ns#"
   xmlns:rdf="http://www.w3.org/1999/02/22-rdf-syntax-ns#"
   xmlns:svg="http://www.w3.org/2000/svg"
   xmlns="http://www.w3.org/2000/svg"
   xmlns:sodipodi="http://sodipodi.sourceforge.net/DTD/sodipodi-0.dtd"
   xmlns:inkscape="http://www.inkscape.org/namespaces/inkscape"
   inkscape:version="1.0beta2 (2b71d25, 2019-12-03)"
   sodipodi:docname="ui_money_in.svg"
   id="svg839"
   xml:space="preserve"
   enable-background="new 0 0 100 100"
   viewBox="0 0 100 100"
   y="0px"
   x="0px"
   version="1.1"
   fill="#FFFFFF"
   width="100px"
   height="100px"><metadata
     id="metadata845"><rdf:RDF><cc:Work
         rdf:about=""><dc:format>image/svg+xml</dc:format><dc:type
           rdf:resource="http://purl.org/dc/dcmitype/StillImage" /><dc:title></dc:title></cc:Work></rdf:RDF></metadata><defs
     id="defs843" /><sodipodi:namedview
     inkscape:current-layer="svg839"
     inkscape:window-maximized="0"
     inkscape:window-y="23"
     inkscape:window-x="0"
     inkscape:cy="48.469811"
     inkscape:cx="74.08762"
     inkscape:zoom="5.4302867"
     inkscape:pagecheckerboard="true"
     showgrid="false"
     id="namedview841"
     inkscape:window-height="862"
     inkscape:window-width="1536"
     inkscape:pageshadow="2"
     inkscape:pageopacity="0"
     guidetolerance="10"
     gridtolerance="10"
     objecttolerance="10"
     borderopacity="1"
     inkscape:document-rotation="0"
     bordercolor="#666666"
     pagecolor="#ffffff" /><g
     style="fill:#000000;fill-opacity:1"
     transform="matrix(-0.3237906,0,0,-0.3237906,92.67145,44.944788)"
     data-name="Arrow, up"
     id="g851" /><g
     inkscape:export-ydpi="269.47021"
     inkscape:export-xdpi="269.47021"
     inkscape:export-filename="/Users/Jonas/Transidious/Assets/Resources/Sprites/ui_money_in.png"
     id="g1492"><g
       id="g837"><path
         id="path833"
         d="M 13.595703 28.130859 C 8.7097031 28.130859 6.2675781 30.572031 6.2675781 35.457031 L 6.2675781 62.902344 C 6.2675781 67.794344 8.7097031 70.238281 13.595703 70.238281 L 90.132812 70.238281 C 95.022813 70.238281 97.46875 67.794344 97.46875 62.902344 L 97.46875 35.458984 C 97.46875 30.572984 95.022813 28.130859 90.132812 28.130859 L 81.986328 28.130859 L 82.076172 28.431641 L 87.257812 28.431641 A 2.0916873 2.0916873 0 0 1 89.283203 31.0625 L 90.140625 31.0625 C 93.065625 31.0625 94.528297 32.524219 94.529297 35.449219 L 94.529297 62.892578 C 94.529297 65.818578 93.066625 67.28125 90.140625 67.28125 L 13.603516 67.28125 C 10.677516 67.28125 9.2167969 65.818578 9.2167969 62.892578 L 9.2167969 35.449219 C 9.2167969 32.524219 10.677516 31.0625 13.603516 31.0625 L 63.693359 31.0625 A 2.0916873 2.0916873 0 0 1 65.712891 28.431641 L 70.892578 28.431641 L 70.982422 28.130859 L 13.595703 28.130859 z M 17.169922 33.460938 C 17.341922 33.638937 17.492047 33.822578 17.623047 34.017578 C 18.068047 34.668578 18.292969 35.415859 18.292969 36.255859 C 18.292969 37.369859 17.898375 38.321375 17.109375 39.109375 C 16.321375 39.898375 15.369859 40.292969 14.255859 40.292969 C 13.472859 40.292969 12.771297 40.10075 12.154297 39.71875 C 11.966297 39.59875 11.786234 39.463453 11.615234 39.314453 L 11.615234 58.785156 C 11.786234 58.631156 11.966297 58.499766 12.154297 58.384766 C 12.771297 57.995766 13.472859 57.800781 14.255859 57.800781 C 15.369859 57.800781 16.321375 58.197375 17.109375 58.984375 C 17.898375 59.773375 18.292969 60.723891 18.292969 61.837891 C 18.292969 62.797891 18.000969 63.634609 17.417969 64.349609 C 17.319969 64.469609 17.217375 64.584359 17.109375 64.693359 C 17.047375 64.756359 16.981109 64.817859 16.912109 64.880859 L 44.330078 64.880859 C 43.947078 64.721859 43.570219 64.544562 43.199219 64.351562 C 41.684219 63.562563 40.274656 62.515891 38.972656 61.212891 C 37.269656 59.510891 36.006594 57.627453 35.183594 55.564453 C 34.406594 53.622453 34.019531 51.519813 34.019531 49.257812 C 34.019531 44.588813 35.669656 40.605734 38.972656 37.302734 C 40.355656 35.918734 41.854656 34.824531 43.472656 34.019531 C 43.882656 33.813531 44.304422 33.627938 44.732422 33.460938 L 17.169922 33.460938 z M 57.142578 33.462891 C 57.570578 33.628891 57.992344 33.813531 58.402344 34.019531 C 60.012344 34.824531 61.511531 35.919734 62.894531 37.302734 C 63.334531 37.742734 63.744906 38.196062 64.128906 38.664062 C 66.614906 41.680063 67.855469 45.212812 67.855469 49.257812 C 67.855469 53.926813 66.203531 57.912844 62.894531 61.214844 C 61.591531 62.517844 60.186734 63.562562 58.677734 64.351562 C 58.305734 64.544563 57.928922 64.723812 57.544922 64.882812 L 86.966797 64.882812 C 86.892797 64.819812 86.824719 64.756359 86.761719 64.693359 C 86.652719 64.583359 86.550125 64.471563 86.453125 64.351562 C 85.870125 63.636563 85.578125 62.799844 85.578125 61.839844 C 85.578125 60.725844 85.973719 59.773375 86.761719 58.984375 C 87.550719 58.197375 88.502234 57.802734 89.615234 57.802734 C 90.342234 57.802734 90.997078 57.967828 91.580078 58.298828 C 91.768078 58.407828 91.951906 58.533734 92.128906 58.677734 L 92.128906 39.255859 C 91.951906 39.398859 91.768078 39.523812 91.580078 39.632812 C 90.997078 39.963812 90.342188 40.129859 89.617188 40.130859 C 88.503187 40.130859 87.551672 39.736266 86.763672 38.947266 C 85.975672 38.158266 85.580078 37.20675 85.580078 36.09375 C 85.580078 35.64966 85.650174 35.235039 85.775391 34.84375 L 77.929688 42.353516 A 2.0884494 2.0884494 0 0 1 75.035156 42.353516 L 65.748047 33.462891 L 57.142578 33.462891 z " /><path
         fill-rule="evenodd"
         clip-rule="evenodd"
         d="M52.969,52.034c-0.28-0.28-0.754-0.536-1.422-0.771v3.864   c0.64-0.193,1.104-0.457,1.396-0.787c0.291-0.327,0.438-0.727,0.438-1.201C53.386,52.694,53.249,52.325,52.969,52.034z    M49.224,45.795c0.114,0.08,0.24,0.148,0.377,0.206c0.131,0.057,0.348,0.145,0.65,0.265v-3.068   c-0.485,0.125-0.862,0.323-1.131,0.591c-0.28,0.292-0.42,0.618-0.42,0.978c0,0.205,0.043,0.394,0.128,0.565   C48.926,45.515,49.058,45.669,49.224,45.795z M44.552,42.649c0.377-0.816,0.926-1.516,1.646-2.099   c0.36-0.292,0.713-0.532,1.063-0.72c0.354-0.195,0.766-0.355,1.234-0.48c0.463-0.126,1.04-0.244,1.732-0.352v-1.757   c0.005-0.178,0.071-0.329,0.197-0.455c0.125-0.115,0.276-0.177,0.454-0.189c0.171,0.012,0.325,0.08,0.462,0.206   c0.127,0.126,0.195,0.286,0.207,0.48v1.654c1.668,0.12,2.947,0.434,3.839,0.942c0.897,0.509,1.352,1.183,1.362,2.023   c-0.017,0.588-0.211,1.083-0.582,1.482c-0.365,0.388-0.846,0.591-1.44,0.608c-0.172,0-0.36-0.023-0.564-0.068   c-0.212-0.058-0.499-0.154-0.857-0.292c-0.418-0.148-0.737-0.251-0.96-0.308c-0.234-0.068-0.5-0.12-0.797-0.154v3.471   c0.805,0.263,1.454,0.474,1.944,0.634c0.486,0.166,0.883,0.324,1.192,0.472c0.319,0.143,0.631,0.311,0.934,0.506   c0.8,0.497,1.408,1.143,1.825,1.937c0.44,0.795,0.66,1.686,0.66,2.675c-0.012,0.959-0.209,1.859-0.591,2.698   c-0.012,0.018-0.021,0.032-0.025,0.043c-0.406,0.847-0.979,1.578-1.715,2.194c-0.366,0.303-0.734,0.551-1.105,0.747   c-0.378,0.199-0.812,0.368-1.303,0.505c-0.497,0.137-1.104,0.257-1.816,0.359v1.56c0,0.225-0.049,0.401-0.146,0.532   c-0.097,0.137-0.223,0.211-0.377,0.223c-0.223-0.012-0.409-0.086-0.558-0.223c-0.131-0.131-0.203-0.308-0.214-0.532v-1.516   c-0.749-0.047-1.359-0.104-1.833-0.172c-0.577-0.08-1.157-0.212-1.74-0.395c-0.595-0.199-1.118-0.432-1.569-0.693   c-0.4-0.252-0.699-0.544-0.899-0.875c-0.207-0.332-0.308-0.714-0.308-1.148c0.004-0.218,0.033-0.42,0.085-0.609   c0.085-0.331,0.24-0.622,0.463-0.873c0.36-0.395,0.811-0.604,1.354-0.626c0.155,0,0.3,0.012,0.437,0.034   c0.137,0.028,0.32,0.077,0.549,0.145c0.234,0.075,0.569,0.19,1.002,0.345c0.332,0.126,0.615,0.228,0.849,0.308   c0.252,0.074,0.497,0.138,0.737,0.188c0.246,0.046,0.537,0.087,0.874,0.12v-4.379c-0.182-0.047-0.342-0.088-0.479-0.129   c-0.138-0.041-0.235-0.074-0.292-0.104c-0.348-0.086-0.64-0.168-0.875-0.248c-0.24-0.068-0.428-0.12-0.565-0.154   c-0.354-0.12-0.704-0.257-1.046-0.411c-0.326-0.143-0.648-0.323-0.969-0.54c-0.651-0.417-1.15-0.977-1.5-1.68   c-0.359-0.697-0.542-1.477-0.548-2.339C43.984,44.307,44.175,43.449,44.552,42.649z"
         id="path835" /></g><g
       transform="matrix(-0.26615912,0,0,-0.26615912,89.791056,43.30847)"
       data-name="Arrow, up"
       id="g1442"><path
         inkscape:connector-curvature="0"
         d="m 87.75,47.374302 -33.28,-31.86 c -2.496727,-2.400129 -6.443273,-2.400129 -8.94,0 l -33.28,31.86 c -4.2317735,4.026473 -1.371246,11.155394 4.47,11.14 h 16 L 44.07,111.7429 c 0.794546,2.59681 3.214847,4.35184 5.93,4.3 v 0 c 2.715153,0.0518 5.135454,-1.70319 5.93,-4.3 L 67.26,58.514302 h 16 c 5.817002,-0.0035 8.666167,-7.09139 4.47,-11.12 z"
         id="path1440"
         sodipodi:nodetypes="cccccccccccccc" /></g></g></svg>
