<?xml version="1.0" encoding="UTF-8" standalone="no"?>
<svg
   xmlns:dc="http://purl.org/dc/elements/1.1/"
   xmlns:cc="http://creativecommons.org/ns#"
   xmlns:rdf="http://www.w3.org/1999/02/22-rdf-syntax-ns#"
   xmlns:svg="http://www.w3.org/2000/svg"
   xmlns="http://www.w3.org/2000/svg"
   xmlns:sodipodi="http://sodipodi.sourceforge.net/DTD/sodipodi-0.dtd"
   xmlns:inkscape="http://www.inkscape.org/namespaces/inkscape"
   inkscape:version="1.0beta2 (2b71d25, 2019-12-03)"
   sodipodi:docname="ui_park.svg"
   id="svg3283"
   version="1.1"
   y="0px"
   x="0px"
   viewBox="0 0 64 64"
   fill="#FFFFFF"
   width="100px"
   height="100px">
  <metadata
     id="metadata3289">
    <rdf:RDF>
      <cc:Work
         rdf:about="">
        <dc:format>image/svg+xml</dc:format>
        <dc:type
           rdf:resource="http://purl.org/dc/dcmitype/StillImage" />
        <dc:title>a</dc:title>
      </cc:Work>
    </rdf:RDF>
  </metadata>
  <defs
     id="defs3287" />
  <sodipodi:namedview
     inkscape:current-layer="svg3283"
     inkscape:window-maximized="0"
     inkscape:window-y="23"
     inkscape:window-x="0"
     inkscape:cy="50"
     inkscape:cx="4.2279412"
     inkscape:zoom="2.72"
     inkscape:pagecheckerboard="true"
     showgrid="false"
     id="namedview3285"
     inkscape:window-height="862"
     inkscape:window-width="1536"
     inkscape:pageshadow="2"
     inkscape:pageopacity="0"
     guidetolerance="10"
     gridtolerance="10"
     objecttolerance="10"
     borderopacity="1"
     inkscape:document-rotation="0"
     bordercolor="#666666"
     pagecolor="#ffffff" />
  <title
     id="title3267">a</title>
  <g
     inkscape:export-ydpi="271.07971"
     inkscape:export-xdpi="271.07971"
     inkscape:export-filename="/Users/Jonas/Transidious/Assets/Resources/Sprites/ui_park.png"
     id="g3281"
     data-name="04 Garden">
    <path
       id="path3269"
       d="M58,50a3,3,0,0,0,3-3V43a3,3,0,0,0-3-3H32l-.02-3.929a14.381,14.381,0,0,0,4.9.268A5.828,5.828,0,0,0,46.248,34.6,5.039,5.039,0,0,0,50,29.76a4.982,4.982,0,0,0-.87-2.821,5.015,5.015,0,0,0-2.106-7.393,6.547,6.547,0,0,0,.566-2.666,6.632,6.632,0,0,0-6.449-6.632,5.029,5.029,0,0,0-7.886-3.927A9.45,9.45,0,0,0,18.2,7.2,9.455,9.455,0,0,0,7.471,19.554a5.035,5.035,0,0,0-2.5,2.526,4.915,4.915,0,0,0-.129,3.75A5,5,0,0,0,6.681,34.6a5.741,5.741,0,0,0,4.234,3.3,6,6,0,0,0,1.1.1,5.727,5.727,0,0,0,4.045-1.665,9.127,9.127,0,0,0,3.9-.405L20,48c0,3.952-2.589,9.568-4.63,11.224a1,1,0,1,0,1.26,1.552C19.34,58.578,22,52.25,22,48l-.065-19.214a4.116,4.116,0,0,0,4-1.3,3.957,3.957,0,0,0,4.006,1.093L30,40H27a3,3,0,0,0-3,3v4a3,3,0,0,0,3,3h1v2H26.5a2.5,2.5,0,0,0,0,5H28v2a1,1,0,0,0,0,2h2a1,1,0,0,0,0-2V57h3.385a19.253,19.253,0,0,0,2.988,3.717,1,1,0,0,0,1.4-1.434A17.774,17.774,0,0,1,35.79,57H55v2a1,1,0,0,0,0,2h2a1,1,0,0,0,0-2V57h1.5a2.5,2.5,0,0,0,0-5H57V50ZM26.706,25.375a1.036,1.036,0,0,0-1.562,0c-1.6,2-2.718,1.677-3.68,1.023a1,1,0,0,0-1.56.771A2.992,2.992,0,0,1,13.925,27a1,1,0,0,0-2,0,5.006,5.006,0,0,0,5,5,4.939,4.939,0,0,0,3.017-1.034l.01,2.82a6.681,6.681,0,0,1-4.029.5,1,1,0,0,0-1,.334,3.825,3.825,0,0,1-6.564-1.212,1,1,0,0,0-.811-.67,3,3,0,0,1-.968-5.66,1,1,0,0,0,.4-1.406A2.964,2.964,0,0,1,6.8,22.9a3.028,3.028,0,0,1,2.2-1.744,1,1,0,0,0,.713-1.421A7.449,7.449,0,0,1,18.41,9.3a1,1,0,0,0,1.144-.477,7.448,7.448,0,0,1,12.722-.484,1,1,0,0,0,1.586.108,3.014,3.014,0,0,1,5.2,2.651A1,1,0,0,0,40.2,12.307a4.565,4.565,0,0,1,3.751,1.035A4.639,4.639,0,0,1,45.59,16.88a4.589,4.589,0,0,1-.872,2.687,1,1,0,0,0,.674,1.573,3.013,3.013,0,0,1,1.735,5.1,1,1,0,0,0,0,1.4,3.005,3.005,0,0,1-1.745,5.1,1,1,0,0,0-.81.668,3.825,3.825,0,0,1-6.563,1.214,1,1,0,0,0-1-.335,11.631,11.631,0,0,1-5.049-.294l-.016-3.113a5.347,5.347,0,0,0,3.238.977A4.689,4.689,0,0,0,39.925,27a1,1,0,0,0-2,0,2.707,2.707,0,0,1-2.795,2.857,2.986,2.986,0,0,1-3.207-2.914,1,1,0,0,0-.064-.288.855.855,0,0,0-.057-.118.992.992,0,0,0-.122-.179.9.9,0,0,0-.075-.087.966.966,0,0,0-.237-.167.25.25,0,0,0-.025-.009.869.869,0,0,0-.086-.029.974.974,0,0,0-.28-.056c-.016,0-.03-.01-.047-.01h0c-.009,0-.015,0-.024,0a.991.991,0,0,0-.346.072c-.018.007-.033.017-.051.025a1.027,1.027,0,0,0-.141.07C29.189,26.969,28.118,27.14,26.706,25.375ZM26,47V43a1,1,0,0,1,1-1H58a1,1,0,0,1,1,1v4a1,1,0,0,1-1,1H27A1,1,0,0,1,26,47Zm4,3h1.038a14.488,14.488,0,0,0,.287,2H30Zm29,4.5a.5.5,0,0,1-.5.5h-32a.5.5,0,0,1,0-1h32A.5.5,0,0,1,59,54.5ZM55,52H33.376a12.611,12.611,0,0,1-.333-2H55Z" />
    <path
       id="path3271"
       d="M30,46a1,1,0,0,0,0-2H29a1,1,0,0,0,0,2Z" />
    <path
       id="path3273"
       d="M55,46h1a1,1,0,0,0,0-2H55a1,1,0,0,0,0,2Z" />
    <path
       id="path3275"
       d="M26,37V33a1,1,0,0,0-2,0v4a1,1,0,0,0,2,0Z" />
    <path
       id="path3277"
       d="M16.771,13.98c-1.14,1.006-1.914,2.971-.666,5.467a1,1,0,1,0,1.79-.894c-.639-1.278-.566-2.4.2-3.074a2.756,2.756,0,0,1,3.35,0,1,1,0,1,0,1.11-1.664A4.765,4.765,0,0,0,16.771,13.98Z" />
    <path
       id="path3279"
       d="M33.6,14.514c1.921.94,2.73,2.744,2.4,5.362a1,1,0,0,0,.868,1.116A.884.884,0,0,0,37,21a1,1,0,0,0,.991-.876c.583-4.666-1.947-6.643-3.508-7.406-2.927-1.433-6.74-.877-8.191.575a1,1,0,0,0,1.414,1.414C28.521,13.9,31.42,13.445,33.6,14.514Z" />
  </g>
</svg>
