<?xml version="1.0" encoding="UTF-8" standalone="no"?>
<svg
   xmlns:dc="http://purl.org/dc/elements/1.1/"
   xmlns:cc="http://creativecommons.org/ns#"
   xmlns:rdf="http://www.w3.org/1999/02/22-rdf-syntax-ns#"
   xmlns:svg="http://www.w3.org/2000/svg"
   xmlns="http://www.w3.org/2000/svg"
   xmlns:sodipodi="http://sodipodi.sourceforge.net/DTD/sodipodi-0.dtd"
   xmlns:inkscape="http://www.inkscape.org/namespaces/inkscape"
   inkscape:version="1.0beta2 (2b71d25, 2019-12-03)"
   sodipodi:docname="ui_train.svg"
   id="svg2668"
   xml:space="preserve"
   style="enable-background:new 0 0 100 100;"
   viewBox="0 0 100 100"
   y="0px"
   x="0px"
   version="1.1"
   fill="#FFFFFF"
   width="100px"
   height="100px"><metadata
     id="metadata2674"><rdf:RDF><cc:Work
         rdf:about=""><dc:format>image/svg+xml</dc:format><dc:type
           rdf:resource="http://purl.org/dc/dcmitype/StillImage" /><dc:title></dc:title></cc:Work></rdf:RDF></metadata><defs
     id="defs2672" /><sodipodi:namedview
     inkscape:current-layer="svg2668"
     inkscape:window-maximized="0"
     inkscape:window-y="23"
     inkscape:window-x="0"
     inkscape:cy="50"
     inkscape:cx="4.2279412"
     inkscape:zoom="2.72"
     inkscape:pagecheckerboard="true"
     showgrid="false"
     id="namedview2670"
     inkscape:window-height="862"
     inkscape:window-width="1536"
     inkscape:pageshadow="2"
     inkscape:pageopacity="0"
     guidetolerance="10"
     gridtolerance="10"
     objecttolerance="10"
     borderopacity="1"
     inkscape:document-rotation="0"
     bordercolor="#666666"
     pagecolor="#ffffff" /><g
     inkscape:export-ydpi="338.13333"
     inkscape:export-xdpi="338.13333"
     inkscape:export-filename="/Users/Jonas/Transidious/Assets/Resources/Sprites/ui_train.png"
     id="g2666"><g
       id="g2662"><path
         id="path2660"
         d="M15.1,15.4c-0.2-0.8,0.5-1.7,1.3-1.7c9.7,0,19.4,0,29.1,0c0.8,0,1.4,0.7,1.4,1.5c0,0.7-0.7,1.3-1.4,1.2    c-2.1,0-4.1,0-6.2,0c-2.1,2.1-4.2,4.2-6.4,6.4c4.2,0,8.5,0,12.7,0c1.6-0.1,3.2,0.5,4.5,1.6C51,25.1,51.5,26,52,27    c3,5.8,6.2,11.5,10.3,16.5c1.5,1.8,3.1,3.5,4.9,5.1c1.5,1.3,3.1,2.5,4.9,3.4c1.8,0.9,3.7,1.7,5.5,2.6c4.6,2,9.3,3.8,14.1,5.3    c0.9,0.3,1.9,0.4,2.7,1c0.6,0.4,1.1,1,1.1,1.7c0,3.1,0,6.3,0,9.4c0,0.8-0.3,1.6-0.9,2.1c-0.4,0.4-1,0.5-1.6,0.5    c-24,0-47.9,0-71.9,0c-2.2,0-4.4,0-6.5,0c-2.1-0.7-4.1-1.8-5.7-3.4c-1.8-1.7-2.9-4.1-3.3-6.5c-0.1-1.1-0.1-2.1-0.1-3.2    c0-5.2,0-10.4,0-15.6c0-3.4,0.2-6.9,0.9-10.2c0.6-2.5,1.4-5,2.8-7.3c1.2-2,3-3.8,5.2-4.8c1.5-0.7,3.1-0.9,4.7-0.9c3,0,6.1,0,9.1,0    c-2.1-2.1-4.2-4.2-6.3-6.3c-1.8,0-3.7,0-5.5,0C15.8,16.4,15.2,16,15.1,15.4z M25.8,16.4c1.6,1.6,3.2,3.2,4.8,4.8    c1.6-1.6,3.2-3.2,4.8-4.8C32.2,16.4,29,16.4,25.8,16.4z M17,27.1c-1.7,0-3.3,1.2-3.7,2.8c-0.9,2.7-1.8,5.5-2.7,8.2    c-0.2,0.7-0.2,1.6,0.4,2.1c0.5,0.5,1.3,0.5,2,0.5c9.8,0,19.5,0,29.3,0c0.6,0,1.3-0.1,1.8-0.5c0.7-0.5,0.9-1.4,0.8-2.2    c-0.3-2.7-0.7-5.5-1.1-8.2c-0.2-1.6-1.7-2.9-3.3-2.7C32.7,27.1,24.9,27.2,17,27.1z M57.1,41.7c0,1.2,0,2.4,0,3.7    c0.1,4.4,0.2,8.8,0.3,13.3c1.6,1.5,3.6,2.6,5.5,3.6c0-1.2-0.1-2.5-0.1-3.7c-0.1-1.3,0-2.7-0.1-4c0-1.1,0-2.1-0.1-3.2    c0-1,0-2.1-0.1-3.1C60.7,46.2,58.8,44,57.1,41.7z M64.6,57.1c0.1,1.2,0,2.5,0.1,3.7c0,0.7,0,1.4,0,2.1c0,0.2,0.2,0.2,0.3,0.2    c1.7,0.6,3.4,1.2,5.2,1.6c-0.1-1.1,0-2.1-0.1-3.2c-0.1-1.2,0-2.4-0.1-3.7c0-1.2,0-2.5-0.1-3.7c-2-1.2-3.8-2.6-5.5-4.2    C64.6,52.4,64.6,54.8,64.6,57.1z M13.9,53.2c-1.7,0.4-3,1.8-3.2,3.5c-0.2,1.7,0.7,3.4,2.2,4.2c1.1,0.6,2.5,0.6,3.7,0.1    c1.1-0.5,1.9-1.5,2.3-2.6c0.5-1.6-0.1-3.4-1.4-4.5C16.4,53.2,15.1,52.9,13.9,53.2z M41.1,53.2c-1.4,0.3-2.6,1.4-3,2.8    c-0.4,1.2-0.2,2.6,0.5,3.6c1,1.5,3.1,2.2,4.8,1.6c1.2-0.4,2.2-1.4,2.6-2.6c0.5-1.6,0-3.6-1.4-4.6C43.6,53.2,42.3,52.9,41.1,53.2z     M72.1,65.3c1.8,0.4,3.6,0.8,5.5,1.1c0-0.5,0-1,0-1.5c-0.1-1.2,0-2.4-0.1-3.6c0-1.1,0-2.2-0.1-3.4c-1.9-0.8-3.7-1.7-5.5-2.6    C72,58.6,72,62,72.1,65.3z M79.2,58.7c0,2.7,0.1,5.4,0.1,8c1.5,0.3,3,0.5,4.6,0.7c0-2.3-0.1-4.7-0.1-7    C82.2,59.9,80.7,59.3,79.2,58.7z M85.6,61.1c0,2,0.1,3.9,0.1,5.9c0,0.2,0,0.5,0.1,0.7c1.2,0.2,2.4,0.3,3.6,0.4    c0-1.9-0.1-3.9-0.1-5.8C88.1,61.9,86.9,61.5,85.6,61.1z M91.1,62.9c0,0.5,0,1,0,1.6c0,1.3,0,2.5,0.1,3.8c0.6,0.1,1.2,0.1,1.8,0.2    c0-0.5,0-0.9,0-1.4c-0.1-1.2,0-2.4-0.1-3.6C92.3,63.3,91.7,63.1,91.1,62.9z" /></g><path
       id="path2664"
       d="M12.8,77.3c3.6,0,7.3,0,10.9,0c0,0.9,0,1.8,0,2.7c5.1,0,10.3,0,15.4,0c0-0.9,0-1.8,0-2.7   c18.8,0,37.6,0,56.3,0c0,1.1,0,2.3,0,3.4c0,0.2-0.2,0.2-0.4,0.2c-16.2,1.8-32.5,3.7-48.7,5.4c-13.3,0-26.7,0-40,0   c0-2.1,0-4.2,0-6.4c2.1,0,4.2,0,6.4,0C12.8,79.1,12.8,78.2,12.8,77.3z" /></g></svg>
