<?xml version="1.0" encoding="UTF-8" standalone="no"?>
<svg
   xmlns:dc="http://purl.org/dc/elements/1.1/"
   xmlns:cc="http://creativecommons.org/ns#"
   xmlns:rdf="http://www.w3.org/1999/02/22-rdf-syntax-ns#"
   xmlns:svg="http://www.w3.org/2000/svg"
   xmlns="http://www.w3.org/2000/svg"
   xmlns:sodipodi="http://sodipodi.sourceforge.net/DTD/sodipodi-0.dtd"
   xmlns:inkscape="http://www.inkscape.org/namespaces/inkscape"
   inkscape:version="1.0beta2 (2b71d25, 2019-12-03)"
   sodipodi:docname="ui_trees.svg"
   id="svg3878"
   xml:space="preserve"
   style="enable-background:new 0 0 512 512;"
   viewBox="0 0 512 512"
   y="0px"
   x="0px"
   version="1.1"
   fill="#FFFFFF"
   width="100px"
   height="100px"><metadata
     id="metadata3884"><rdf:RDF><cc:Work
         rdf:about=""><dc:format>image/svg+xml</dc:format><dc:type
           rdf:resource="http://purl.org/dc/dcmitype/StillImage" /><dc:title></dc:title></cc:Work></rdf:RDF></metadata><defs
     id="defs3882" /><sodipodi:namedview
     inkscape:current-layer="svg3878"
     inkscape:window-maximized="0"
     inkscape:window-y="23"
     inkscape:window-x="0"
     inkscape:cy="50"
     inkscape:cx="4.2279412"
     inkscape:zoom="2.72"
     inkscape:pagecheckerboard="true"
     showgrid="false"
     id="namedview3880"
     inkscape:window-height="862"
     inkscape:window-width="1536"
     inkscape:pageshadow="2"
     inkscape:pageopacity="0"
     guidetolerance="10"
     gridtolerance="10"
     objecttolerance="10"
     borderopacity="1"
     inkscape:document-rotation="0"
     bordercolor="#666666"
     pagecolor="#ffffff" /><g
     inkscape:export-ydpi="245.75999"
     inkscape:export-xdpi="245.75999"
     inkscape:export-filename="/Users/Jonas/Transidious/Assets/Resources/Sprites/ui_trees.png"
     id="g3876"><g
       id="g3874"><path
         id="path3870"
         d="M495.6,480H393.6v-66.5c10,3.9,20.6,5.9,31.5,5.9c47.9,0,86.9-39,86.9-86.9c0-19.1-6.1-37.3-17.6-52.5    c-8.1-10.7-18.7-19.4-30.6-25.4c0.5-3.8,0.7-7.6,0.7-11.4c0-47.9-39-86.9-86.9-86.9s-86.9,39-86.9,86.9c0,3.8,0.2,7.6,0.7,11.4    c-4.9,2.4-9.6,5.4-14,8.7c14.7,20.2,22.4,44,22.4,69.1c0,25.8-8.3,49.7-22.4,69.1c14.6,11.2,32.9,17.8,52.6,17.8    c10.9,0,21.6-2,31.5-5.9V480H272v-43.8c-4.8-2.7-9.5-5.8-14-9.2l-2.9-2.2c-4.8,3.8-9.8,7.2-15.1,10.2V480h-89.6v-66.5    c10,3.9,20.6,5.9,31.5,5.9c47.9,0,86.9-39,86.9-86.9c0-19.1-6.1-37.3-17.6-52.5c-8.1-10.7-18.7-19.4-30.6-25.4    c0.5-3.8,0.7-7.6,0.7-11.4c0-47.9-39-86.9-86.9-86.9s-86.9,39-86.9,86.9c0,3.8,0.2,7.6,0.7,11.4c-11.9,6-22.5,14.7-30.6,25.4    C6.1,295.2,0,313.3,0,332.5c0,47.9,39,86.9,86.9,86.9c10.9,0,21.6-2,31.5-5.9V480H16.4c-8.8,0-16,7.2-16,16s7.2,16,16,16h479.3    c8.8,0,16-7.2,16-16S504.5,480,495.6,480z" /><path
         id="path3872"
         d="M252.2,237.8c1,0.7,2,1.5,2.9,2.3l2.9-2.2c0.2-0.2,0.5-0.4,0.7-0.5c2.9-59.4,49.7-107.5,108.6-112.5    c-2.9-1.7-5.8-3.2-8.8-4.6c0.9-5.4,1.3-10.8,1.3-16.3C359.8,46.6,313.2,0,256,0S152.2,46.6,152.2,103.8c0,5.5,0.4,10.9,1.3,16.3    c-3.5,1.6-6.9,3.5-10.3,5.5C202.4,130,249.5,178.2,252.2,237.8z" /></g></g></svg>
