<?xml version="1.0" encoding="UTF-8" standalone="no"?>
<svg
   xmlns:dc="http://purl.org/dc/elements/1.1/"
   xmlns:cc="http://creativecommons.org/ns#"
   xmlns:rdf="http://www.w3.org/1999/02/22-rdf-syntax-ns#"
   xmlns:svg="http://www.w3.org/2000/svg"
   xmlns="http://www.w3.org/2000/svg"
   xmlns:sodipodi="http://sodipodi.sourceforge.net/DTD/sodipodi-0.dtd"
   xmlns:inkscape="http://www.inkscape.org/namespaces/inkscape"
   width="331pt"
   height="331pt"
   viewBox="0 0 331 331"
   version="1.1"
   id="svg875"
   sodipodi:docname="WIP.svg"
   inkscape:version="0.92.3 (2405546, 2018-03-11)">
  <metadata
     id="metadata881">
    <rdf:RDF>
      <cc:Work
         rdf:about="">
        <dc:format>image/svg+xml</dc:format>
        <dc:type
           rdf:resource="http://purl.org/dc/dcmitype/StillImage" />
      </cc:Work>
    </rdf:RDF>
  </metadata>
  <defs
     id="defs879" />
  <sodipodi:namedview
     pagecolor="#ffffff"
     bordercolor="#666666"
     borderopacity="1"
     objecttolerance="10"
     gridtolerance="10"
     guidetolerance="10"
     inkscape:pageopacity="0"
     inkscape:pageshadow="2"
     inkscape:window-width="1853"
     inkscape:window-height="1025"
     id="namedview877"
     showgrid="false"
     inkscape:zoom="1.9123867"
     inkscape:cx="220.66667"
     inkscape:cy="241.58294"
     inkscape:window-x="67"
     inkscape:window-y="27"
     inkscape:window-maximized="1"
     inkscape:current-layer="svg875" />
  <path
     d="m165.49 15.47c30.28 10.787 58.307 27.796 81.948 49.566 22.675 21.132 41.915 47.019 51.072 76.93 6.2062 19.233 4.9292 40.017 0.82663 59.543-4.0982 18.189-12.101 35.528-23.755 50.119 13.217 12.923 26.307 25.974 39.558 38.863-1.7648 6.603-4.4693 13.351-9.8987 17.802-4.5399 3.9187-10.352 5.8133-16.072 7.2378-12.941-13.445-25.948-26.823-38.896-40.261-16.129 11.019-35.594 16.827-55.031 17.685-24.481 1.0821-48.954-6.8092-68.929-20.826-10.771-7.4027-20.48-16.254-29.387-25.794-1.5255 1.5006-3.1903 2.847-4.9022 4.1295 0.42452 3.2013 0.88448 6.3985 1.3259 9.6005-3.3426 0.19229-6.6797 1.0096-9.4884 2.8931-8.6657 5.4918-14.683 14.017-20.834 22.02-7.6271 9.9016-14.482 20.892-25.111 27.906-6.4414 3.9792-15.973 2.2974-19.918-4.3912-4.1259-6.5622-1.7458-15.032 2.6981-20.789 10.861-15.963 30.253-22.786 42.394-37.492 3.1577-3.9512 5.5457-8.5309 6.7303-13.461 3.101 0.19817 6.2023 0.39974 9.3044 0.60175 2.6274-2.6649 5.2677-5.3163 7.8851-7.9898 2.9183-0.0754 5.8923 0.23651 8.7736-0.32607 3.0076-2.6527 5.4052-5.9141 8.1214-8.8522 2.9751 0.8335 4.6657 3.6241 6.8187 5.617 13.307 12.12 28.525 22.682 45.869 28.068 22.179 7.1054 46.889 4.8481 67.694-5.4908-41.672-42.905-83.205-85.947-124.82-128.91-9.3317 9.8253-18.627 19.688-28.092 29.385-11.559-11.792-23.231-23.473-34.849-35.207 21.898-21.92 44.042-43.594 66.061-65.393 19.037 5.1825 38.049 10.456 57.103 15.577-13.021 11.821-26.257 23.403-39.323 35.173 43.419 42.566 86.622 85.358 130.11 127.86 10.498-12.773 16.407-29.037 17.21-45.504 1.4809-21.788-3.5608-43.463-10.743-63.901-10.152-26.973-29.562-49.179-50.658-68.282-13.185-11.72-26.774-23.002-40.801-33.701z"
     fill="#ffd600"
     id="path873"
     style="fill:#ffd600;fill-opacity:1" />
</svg>
